SplineFontDB: 3.2
FontName: Fitenkasunti
FullName: Fitenkasunti
FamilyName: Fitenkasunti
Weight: Regular
Copyright: Kinboise 2023
UComments: "20231016: 1.0"
Version: 1.0
ItalicAngle: 0
UnderlinePosition: -100
UnderlineWidth: 50
Ascent: 800
Descent: 200
InvalidEm: 0
LayerCount: 2
Layer: 0 0 "Back" 1
Layer: 1 0 "Fore" 0
XUID: [1021 430 -1304014728 21740]
FSType: 0
OS2Version: 0
OS2_WeightWidthSlopeOnly: 0
OS2_UseTypoMetrics: 1
CreationTime: 1697424538
ModificationTime: 1714897990
PfmFamily: 17
TTFWeight: 400
TTFWidth: 5
LineGap: 90
VLineGap: 0
OS2TypoAscent: 0
OS2TypoAOffset: 1
OS2TypoDescent: 0
OS2TypoDOffset: 1
OS2TypoLinegap: 90
OS2WinAscent: 0
OS2WinAOffset: 1
OS2WinDescent: 0
OS2WinDOffset: 1
HheadAscent: 0
HheadAOffset: 1
HheadDescent: 0
HheadDOffset: 1
OS2Vendor: 'PfEd'
MarkAttachClasses: 1
DEI: 91125
LangName: 1033
Encoding: UnicodeFull
Compacted: 1
UnicodeInterp: none
NameList: AGL For New Fonts
DisplaySize: -48
AntiAlias: 1
FitToEm: 0
WinInfo: 1254 38 12
BeginPrivate: 0
EndPrivate
TeXData: 1 0 0 346030 173015 115343 0 1048576 115343 783286 444596 497025 792723 393216 433062 380633 303038 157286 324010 404750 52429 2506097 1059062 262144
BeginChars: 1114112 1697

StartChar: glyph0
Encoding: 983072 983072 0
Width: 1000
VWidth: 0
Flags: W
LayerCount: 2
Fore
SplineSet
300 248 m 1
 304 230 l 1
 287 234 l 1
 237 269 l 1
 242 274 590 608 703 706 c 2
 757 752 l 1
 763 746 l 1
 670 638 670 638 381 332 c 0
 355 305 328 276 300 248 c 1
EndSplineSet
Validated: 1
EndChar

StartChar: glyph1
Encoding: 983073 983073 1
Width: 1000
VWidth: 0
Flags: W
LayerCount: 2
Fore
SplineSet
244 321 m 2
 243 323 241 324 240 326 c 2
 284 367 l 1
 301 370 l 1
 297 353 l 1
 350 296 488 156 656 -28 c 0
 699 -75 730 -110 760 -146 c 1
 754 -152 l 1
 677 -88 505 69 245 321 c 1
 244 321 l 2
EndSplineSet
Validated: 1
EndChar

StartChar: glyph2
Encoding: 983074 983074 2
Width: 1000
VWidth: 0
Flags: W
HStem: 90 20<251 639>
LayerCount: 2
Fore
SplineSet
639 110 m 1
 689 160 l 1
 749 110 l 1
 749 90 l 1
 251 90 l 1
 251 110 l 1
 639 110 l 1
EndSplineSet
Validated: 1
EndChar

StartChar: glyph3
Encoding: 983075 983075 3
Width: 1000
VWidth: 0
Flags: W
LayerCount: 2
Fore
SplineSet
711 364 m 1
 713 365 715 367 717 368 c 2
 757 324 l 1
 761 307 l 1
 744 311 l 1
 717 286 435 15 345 -64 c 0
 316 -90 281 -121 245 -152 c 1
 239 -146 l 1
 363 2 651 300 712 363 c 1
 711 364 l 1
EndSplineSet
Validated: 1
EndChar

StartChar: glyph4
Encoding: 983076 983076 4
Width: 1000
VWidth: 0
Flags: W
VStem: 706 52<246 271.394>
LayerCount: 2
Fore
SplineSet
248 750 m 1
 292 726 l 1
 336 698 l 1
 463 606 599 468 752 282 c 1
 758 260 l 1
 748 240 l 1
 726 234 l 1
 706 244 l 1
 636 336 511 489 406 594 c 2
 362 638 l 2
 335 663 307 687 280 712 c 2
 242 743 l 1
 248 750 l 1
EndSplineSet
Validated: 1
EndChar

StartChar: glyph5
Encoding: 983077 983077 5
Width: 1000
VWidth: 0
Flags: W
VStem: 718 54<248.333 270.719>
LayerCount: 2
Fore
SplineSet
518 486 m 1
 457 425 390 348 292 248 c 1
 296 230 l 1
 278 234 l 1
 228 269 l 1
 254 295 436 466 438 468 c 0
 455 485 473 501 490 518 c 1
 467 544 442 569 418 594 c 2
 374 638 l 2
 347 663 319 687 292 712 c 2
 254 743 l 1
 260 750 l 1
 304 726 l 1
 348 698 l 2
 381 674 413 648 444 622 c 2
 494 578 l 1
 522 549 l 1
 524 551 641 659 694 706 c 2
 748 752 l 1
 754 746 l 1
 676 655 660 637 566 537 c 1
 552 521 l 1
 571 502 650 423 766 282 c 1
 772 260 l 1
 760 240 l 1
 738 234 l 1
 718 244 l 2
 716 247 600 398 518 487 c 1
 518 486 l 1
EndSplineSet
Validated: 1
EndChar

StartChar: glyph6
Encoding: 983078 983078 6
Width: 1000
VWidth: 0
Flags: W
HStem: 490 20<251 639>
LayerCount: 2
Fore
SplineSet
639 510 m 1
 689 560 l 1
 749 510 l 1
 749 490 l 1
 251 490 l 1
 251 510 l 1
 639 510 l 1
EndSplineSet
Validated: 1
EndChar

StartChar: glyph7
Encoding: 983079 983079 7
Width: 1000
VWidth: 0
Flags: W
LayerCount: 2
Fore
SplineSet
820 300 m 1
 816 250 l 1
 803 201 l 1
 783 156 l 1
 756 114 l 1
 724 76 l 1
 686 44 l 1
 644 17 l 1
 599 -3 l 1
 550 -16 l 1
 500 -20 l 1
 449 -16 l 1
 400 -3 l 1
 355 17 l 1
 313 44 l 1
 276 76 l 1
 243 114 l 1
 216 156 l 1
 196 201 l 1
 184 250 l 1
 180 300 l 1
 184 351 l 1
 196 400 l 1
 216 445 l 1
 243 487 l 1
 276 524 l 1
 313 557 l 1
 355 584 l 1
 400 604 l 1
 449 616 l 1
 500 620 l 1
 550 616 l 1
 599 604 l 1
 644 584 l 1
 686 557 l 1
 724 524 l 1
 756 487 l 1
 783 445 l 1
 803 400 l 1
 816 351 l 1
 820 300 l 1
780 300 m 1
 776 344 l 1
 765 386 l 1
 748 426 l 1
 724 463 l 1
 696 496 l 1
 662 524 l 1
 626 548 l 1
 586 566 l 1
 544 576 l 1
 500 580 l 1
 456 576 l 1
 414 566 l 1
 374 548 l 1
 337 524 l 1
 304 496 l 1
 276 463 l 1
 252 426 l 1
 234 386 l 1
 224 344 l 1
 220 300 l 1
 224 256 l 1
 234 214 l 1
 252 174 l 1
 276 138 l 1
 304 104 l 1
 337 76 l 1
 374 52 l 1
 414 35 l 1
 456 24 l 1
 500 20 l 1
 544 24 l 1
 586 35 l 1
 626 52 l 1
 662 76 l 1
 696 104 l 1
 724 138 l 1
 748 174 l 1
 765 214 l 1
 776 256 l 1
 780 300 l 1
EndSplineSet
Validated: 1
EndChar

StartChar: glyph8
Encoding: 983080 983080 8
Width: 1000
VWidth: 0
Flags: W
HStem: 10 20<156 470 530 734> 542 20<208 470 530 682>
VStem: 470 60<30 542>
LayerCount: 2
Fore
SplineSet
734 30 m 1
 784 80 l 1
 844 30 l 1
 844 10 l 1
 156 10 l 1
 156 30 l 1
 470 30 l 1
 470 542 l 1
 208 542 l 1
 208 562 l 1
 682 562 l 1
 732 612 l 1
 792 562 l 1
 792 542 l 1
 530 542 l 1
 530 30 l 1
 734 30 l 1
EndSplineSet
Validated: 1
EndChar

StartChar: glyph9
Encoding: 983081 983081 9
Width: 1000
VWidth: 0
Flags: W
HStem: 10 20<230 754>
VStem: 170 60<-50 10 30 556> 754 60<-20 10 30 556>
LayerCount: 2
Fore
SplineSet
814 556 m 1
 814 -20 l 1
 754 -50 l 1
 754 10 l 1
 230 10 l 1
 230 -50 l 1
 170 -80 l 1
 170 585 l 1
 230 575 l 1
 246 565 l 1
 230 556 l 1
 230 30 l 1
 754 30 l 1
 754 585 l 1
 814 575 l 1
 830 565 l 1
 814 556 l 1
EndSplineSet
Validated: 1
EndChar

StartChar: glyph10
Encoding: 983082 983082 10
Width: 1000
VWidth: 0
Flags: W
HStem: 10 20<388 608> 374 20<174 328 388 608 668 716>
VStem: 328 60<-50 10 30 374 394 584> 608 60<-20 10 30 374 394 584>
LayerCount: 2
Fore
SplineSet
608 374 m 1
 388 374 l 1
 388 30 l 1
 608 30 l 1
 608 374 l 1
716 394 m 1
 766 444 l 1
 826 394 l 1
 826 374 l 1
 668 374 l 1
 668 -20 l 1
 608 -50 l 1
 608 10 l 1
 388 10 l 1
 388 -50 l 1
 328 -80 l 1
 328 374 l 1
 174 374 l 1
 174 394 l 1
 328 394 l 1
 328 613 l 1
 388 603 l 1
 403 593 l 1
 388 584 l 1
 388 394 l 1
 608 394 l 1
 608 613 l 1
 668 603 l 1
 683 593 l 1
 668 584 l 1
 668 394 l 1
 716 394 l 1
EndSplineSet
Validated: 1
EndChar

StartChar: glyph11
Encoding: 983083 983083 11
Width: 1000
VWidth: 0
Flags: W
VStem: 458 58<524 599>
LayerCount: 2
Fore
SplineSet
793 -42 m 1
 732 -4 l 1
 679 40 l 1
 632 90 l 1
 592 148 l 1
 560 211 l 1
 534 280 l 1
 516 355 l 1
 504 436 l 1
 504 445 l 1
 501 426 l 1
 482 340 l 1
 456 261 l 1
 422 190 l 1
 382 128 l 1
 335 72 l 1
 281 26 l 1
 220 -12 l 1
 154 -40 l 1
 150 -32 l 1
 210 5 l 1
 264 47 l 1
 311 95 l 1
 351 149 l 1
 385 210 l 1
 412 277 l 1
 433 352 l 1
 448 434 l 1
 456 522 l 1
 458 619 l 1
 458 631 l 1
 518 619 l 1
 533 609 l 1
 517 599 l 1
 516 574 l 1
 520 524 l 1
 533 440 l 1
 550 364 l 1
 574 294 l 1
 602 231 l 1
 636 176 l 1
 674 126 l 1
 718 84 l 1
 768 48 l 1
 822 18 l 1
 850 4 l 1
 793 -42 l 1
EndSplineSet
Validated: 1
EndChar

StartChar: glyph12
Encoding: 983084 983084 12
Width: 1000
VWidth: 0
Flags: W
HStem: 398 20<166 464 526 720>
VStem: 468 60<418 612>
LayerCount: 2
Fore
SplineSet
792 -37 m 1
 744 -8 l 1
 700 24 l 1
 662 60 l 1
 628 99 l 1
 598 142 l 1
 572 188 l 1
 550 236 l 1
 532 289 l 1
 520 344 l 1
 516 382 l 1
 510 344 l 1
 490 273 l 1
 464 208 l 1
 430 149 l 1
 388 96 l 1
 340 50 l 1
 286 12 l 1
 224 -20 l 1
 156 -44 l 1
 152 -36 l 1
 216 -3 l 1
 270 34 l 1
 318 75 l 1
 360 121 l 1
 394 172 l 1
 422 227 l 1
 444 288 l 1
 458 354 l 1
 464 398 l 1
 166 398 l 1
 166 418 l 1
 466 418 l 1
 466 426 l 1
 468 504 l 1
 468 641 l 1
 528 631 l 1
 544 621 l 1
 528 612 l 1
 528 504 l 1
 522 422 l 1
 522 418 l 1
 720 418 l 1
 770 468 l 1
 830 418 l 1
 830 398 l 1
 526 398 l 1
 537 364 548 331 560 298 c 2
 582 252 l 1
 608 208 l 1
 636 168 l 1
 666 132 l 1
 700 100 l 1
 738 70 l 1
 778 44 l 2
 801 32 825 20 848 8 c 1
 792 -37 l 1
EndSplineSet
Validated: 1
EndChar

StartChar: glyph13
Encoding: 983085 983085 13
Width: 1000
VWidth: 0
Flags: W
HStem: -42 20<232 743>
LayerCount: 2
Fore
SplineSet
743 -22 m 1
 793 28 l 1
 853 -22 l 1
 853 -42 l 1
 222 -42 l 1
 215 -55 l 1
 147 -52 l 1
 533 655 l 1
 581 618 l 1
 589 602 l 1
 570 599 l 1
 232 -22 l 1
 743 -22 l 1
EndSplineSet
Validated: 1
EndChar

StartChar: glyph14
Encoding: 983086 983086 14
Width: 1000
VWidth: 0
Flags: W
HStem: -42 20<232 743> 398 20<173 393 472 727>
LayerCount: 2
Fore
SplineSet
743 -22 m 1
 793 28 l 1
 853 -22 l 1
 853 -42 l 1
 222 -42 l 1
 215 -55 l 1
 147 -52 l 1
 393 398 l 1
 173 398 l 1
 173 418 l 1
 404 418 l 1
 533 655 l 1
 581 618 l 1
 589 602 l 1
 570 599 l 1
 472 418 l 1
 727 418 l 1
 777 468 l 1
 837 418 l 1
 837 398 l 1
 461 398 l 1
 232 -22 l 1
 743 -22 l 1
EndSplineSet
Validated: 1
EndChar

StartChar: glyph15
Encoding: 983087 983087 15
Width: 1000
VWidth: 0
Flags: W
VStem: 762 60<42 624>
LayerCount: 2
Fore
SplineSet
828 0 m 1
 822 -14 l 1
 822 -26 l 1
 818 -26 l 1
 804 -56 l 1
 778 -38 694 20 614 73 c 1
 488 148 l 2
 423 185 341 232 228 287 c 2
 162 320 l 1
 166 328 l 1
 420 242 555 166 702 78 c 2
 762 42 l 1
 762 653 l 1
 822 643 l 1
 838 633 l 1
 822 624 l 1
 822 15 l 1
 830 18 l 1
 828 0 l 1
EndSplineSet
Validated: 1
EndChar

StartChar: glyph16
Encoding: 983088 983088 16
Width: 1000
VWidth: 0
Flags: W
HStem: -9 15<622 668.667> 602 20<172 742>
VStem: 742 60<12 16 20 582>
LayerCount: 2
Fore
SplineSet
736 8 m 1
 740 12 l 1
 740 16 l 1
 742 20 l 1
 742 602 l 1
 172 602 l 1
 172 622 l 1
 742 622 l 1
 772 647 l 1
 828 602 l 1
 802 582 l 1
 802 14 l 1
 800 1 l 1
 796 -11 l 2
 791 -18 786 -25 780 -32 c 2
 770 -40 l 1
 760 -47 l 1
 748 -51 l 1
 734 -53 l 1
 722 -54 l 1
 722 -24 l 1
 622 -9 l 1
 622 6 l 1
 728 6 l 1
 732 8 l 1
 736 8 l 1
EndSplineSet
Validated: 1
EndChar

StartChar: glyph17
Encoding: 983089 983089 17
Width: 1000
VWidth: 0
Flags: W
HStem: 606 20<160 750>
LayerCount: 2
Fore
SplineSet
806 587 m 1
 782 524 l 1
 748 445 l 2
 725 395 701 346 676 298 c 2
 636 230 l 2
 608 188 578 146 548 106 c 2
 502 51 l 1
 452 0 l 1
 400 -47 l 1
 392 -40 l 1
 438 12 l 1
 522 126 l 1
 571 203 615 275 668 391 c 1
 728 544 l 1
 750 606 l 1
 160 606 l 1
 160 626 l 1
 754 626 l 1
 784 651 l 1
 840 606 l 1
 814 591 l 1
 806 587 l 1
EndSplineSet
Validated: 1
EndChar

StartChar: glyph18
Encoding: 983090 983090 18
Width: 1000
VWidth: 0
Flags: W
HStem: 334 20<196 546> 606 20<160 750>
LayerCount: 2
Fore
SplineSet
546 354 m 1
 596 404 l 1
 652 358 l 1
 668 391 668 391 728 544 c 1
 750 606 l 1
 160 606 l 1
 160 626 l 1
 754 626 l 1
 784 651 l 1
 840 606 l 1
 814 591 l 1
 806 587 l 1
 782 524 l 1
 748 445 l 2
 725 395 701 346 676 298 c 2
 636 230 l 2
 608 188 578 146 548 106 c 2
 502 51 l 1
 452 0 l 1
 400 -47 l 1
 392 -40 l 1
 438 12 l 1
 522 126 l 2
 534 144 598 246 642 334 c 1
 196 334 l 1
 196 354 l 1
 546 354 l 1
EndSplineSet
Validated: 1
EndChar

StartChar: glyph19
Encoding: 983091 983091 19
Width: 1000
VWidth: 0
Flags: W
VStem: 179 60<46 580>
LayerCount: 2
Fore
SplineSet
226 -35 m 1
 199 -62 l 1
 149 -12 l 1
 179 18 l 1
 179 609 l 1
 239 599 l 1
 254 589 l 1
 239 580 l 1
 239 46 l 1
 243 49 466 209 709 336 c 2
 777 372 l 1
 847 404 l 1
 851 396 l 1
 609 241 556 206 347 56 c 1
 227 -36 l 1
 226 -35 l 1
EndSplineSet
Validated: 1
EndChar

StartChar: glyph20
Encoding: 983092 983092 20
Width: 1000
VWidth: 0
Flags: W
HStem: 598 20<158 600>
VStem: 600 60<72 578>
LayerCount: 2
Fore
SplineSet
594 -24 m 1
 596 -21 598 -18 600 -14 c 2
 600 598 l 1
 158 598 l 1
 158 618 l 1
 600 618 l 1
 630 643 l 1
 685 598 l 1
 660 578 l 1
 660 72 l 1
 661 74 766 228 801 277 c 2
 834 322 l 1
 842 318 l 1
 791 213 750 137 749 135 c 2
 728 98 l 1
 710 62 l 2
 699 42 687 22 676 2 c 2
 662 -24 l 1
 660 -29 l 1
 668 -47 l 1
 650 -48 l 1
 594 -24 l 1
EndSplineSet
Validated: 1
EndChar

StartChar: glyph21
Encoding: 983093 983093 21
Width: 1000
VWidth: 0
Flags: W
HStem: 606 20<247 281 292 697>
LayerCount: 2
Fore
SplineSet
499 252 m 1
 513 268 l 1
 565 346 l 1
 615 432 l 1
 663 526 l 1
 697 606 l 1
 292 606 l 1
 329 524 l 1
 372 440 l 1
 417 364 l 1
 465 294 l 1
 499 252 l 1
797 -54 m 1
 725 -16 l 1
 657 28 l 1
 595 80 l 1
 535 136 l 1
 498 180 l 1
 475 155 451 132 427 108 c 2
 361 54 l 1
 293 10 l 1
 221 -26 l 1
 149 -52 l 1
 145 -44 l 1
 213 -9 l 1
 279 32 l 1
 341 80 l 1
 401 136 l 1
 458 198 l 1
 471 215 l 1
 431 270 l 1
 386 346 l 1
 345 428 l 1
 310 516 l 1
 281 606 l 1
 247 606 l 1
 247 626 l 1
 705 626 l 1
 707 627 l 1
 707 628 l 1
 735 651 l 1
 790 606 l 1
 765 591 l 1
 754 586 l 1
 725 524 693 465 661 406 c 1
 607 320 l 1
 550 240 l 1
 530 217 l 1
 572 172 l 1
 630 122 l 1
 691 77 l 1
 756 38 l 1
 824 6 l 1
 855 -7 l 1
 797 -54 l 1
EndSplineSet
Validated: 1
EndChar

StartChar: glyph22
Encoding: 983094 983094 22
Width: 1000
VWidth: 0
Flags: W
HStem: 322 20<156 470 530 734>
VStem: 470 60<-25 322 342 608>
LayerCount: 2
Fore
SplineSet
530 608 m 1
 530 342 l 1
 734 342 l 1
 784 392 l 1
 844 342 l 1
 844 322 l 1
 530 322 l 1
 530 -25 l 1
 470 -55 l 1
 470 322 l 1
 156 322 l 1
 156 342 l 1
 470 342 l 1
 470 637 l 1
 530 627 l 1
 545 617 l 1
 530 608 l 1
EndSplineSet
Validated: 1
EndChar

StartChar: glyph23
Encoding: 983095 983095 23
Width: 1000
VWidth: 0
Flags: W
HStem: 318 20<212 762>
LayerCount: 2
Fore
SplineSet
770 338 m 1
 774 342 l 1
 776 342 l 1
 800 363 l 1
 856 318 l 1
 830 303 l 1
 816 297 l 1
 808 284 l 1
 721 164 641 82 544 -12 c 1
 496 -55 l 1
 488 -48 l 1
 642 134 695 210 742 283 c 1
 758 314 l 1
 762 318 l 1
 208 318 l 1
 208 314 l 1
 144 294 l 1
 204 654 l 1
 260 634 l 1
 274 622 l 1
 258 617 l 1
 212 338 l 1
 770 338 l 1
EndSplineSet
Validated: 1
EndChar

StartChar: glyph24
Encoding: 983096 983096 24
Width: 1000
VWidth: 0
Flags: W
HStem: 306 20<328 716> 610 20<162 704>
LayerCount: 2
Fore
SplineSet
728 328 m 1
 754 351 l 1
 810 306 l 1
 784 291 l 1
 772 285 l 1
 752 250 l 1
 716 201 l 1
 674 156 l 1
 626 114 l 1
 572 78 l 1
 514 44 l 1
 450 16 l 1
 380 -8 l 1
 304 -29 l 1
 222 -44 l 1
 222 -36 l 1
 272 -19 321 -2 370 16 c 2
 436 46 l 1
 496 78 l 1
 550 113 l 1
 596 150 l 1
 638 191 l 1
 674 234 l 1
 702 280 l 1
 716 306 l 1
 294 306 l 1
 256 285 l 1
 200 322 l 1
 704 610 l 1
 162 610 l 1
 162 630 l 1
 752 630 l 1
 782 655 l 1
 800 640 820 625 838 610 c 1
 812 595 l 1
 758 572 l 1
 328 326 l 1
 724 326 l 1
 726 328 l 1
 728 328 l 1
EndSplineSet
Validated: 1
EndChar

StartChar: glyph25
Encoding: 983097 983097 25
Width: 1000
VWidth: 0
Flags: W
HStem: 430 20<160 550 610 730>
VStem: 550 60<42 430 450 612>
LayerCount: 2
Fore
SplineSet
730 450 m 1
 780 500 l 1
 840 450 l 1
 840 430 l 1
 610 430 l 1
 610 4 l 1
 616 5 l 1
 611 -12 l 1
 610 -14 l 1
 572 -59 l 1
 565 -51 558 -42 551 -34 c 2
 534 -14 l 2
 519 1 504 16 488 31 c 2
 462 56 l 2
 441 74 420 92 398 111 c 0
 375 130 350 150 326 170 c 2
 285 204 l 1
 290 212 l 1
 380 161 l 2
 407 143 478 98 518 66 c 2
 546 46 l 1
 550 42 l 1
 550 430 l 1
 160 430 l 1
 160 450 l 1
 550 450 l 1
 550 641 l 1
 610 631 l 1
 625 621 l 1
 610 612 l 1
 610 450 l 1
 730 450 l 1
EndSplineSet
Validated: 1
EndChar

StartChar: glyph26
Encoding: 983098 983098 26
Width: 1000
VWidth: 0
Flags: W
HStem: 450 20<152 408 470 758>
LayerCount: 2
Fore
SplineSet
456 638 m 1
 460 652 l 1
 516 628 l 1
 528 615 l 1
 510 610 l 1
 497 563 484 516 470 470 c 1
 762 470 l 1
 792 495 l 1
 848 450 l 1
 822 435 l 1
 814 432 l 1
 803 400 792 368 780 336 c 2
 760 282 l 1
 718 184 718 184 666 80 c 1
 640 34 l 2
 622 6 603 -22 584 -50 c 1
 576 -46 l 1
 596 1 617 47 637 95 c 0
 658 147 678 197 712 299 c 2
 730 354 l 2
 739 386 748 418 758 450 c 1
 464 450 l 1
 441 380 422 320 358 180 c 2
 328 118 l 1
 296 60 l 2
 274 25 252 -9 228 -42 c 1
 220 -38 l 1
 238 -2 255 36 272 73 c 2
 298 132 l 2
 315 174 332 217 348 260 c 0
 372 330 372 330 408 450 c 1
 152 450 l 1
 152 470 l 1
 414 470 l 1
 423 499 430 530 438 560 c 2
 456 638 l 1
EndSplineSet
Validated: 1
EndChar

StartChar: glyph27
Encoding: 983099 983099 27
Width: 1000
VWidth: 0
Flags: W
HStem: 232 19<156 338 390 590> 450 20<152 408 470 758>
LayerCount: 2
Fore
SplineSet
590 253 m 1
 640 304 l 1
 698 256 l 1
 724 330 757 448 758 450 c 1
 464 450 l 1
 449 404 433 359 416 314 c 2
 390 252 l 1
 590 253 l 1
456 638 m 1
 460 652 l 1
 516 628 l 1
 528 615 l 1
 510 610 l 1
 497 563 484 516 470 470 c 1
 762 470 l 1
 792 495 l 1
 848 450 l 1
 822 435 l 1
 814 432 l 1
 803 400 792 368 780 336 c 2
 760 282 l 1
 718 184 718 184 666 80 c 1
 640 34 l 2
 622 6 603 -22 584 -50 c 1
 576 -46 l 1
 596 1 617 47 637 95 c 0
 650 127 664 160 676 194 c 2
 690 234 l 1
 382 232 l 1
 365 193 346 155 328 118 c 2
 296 60 l 2
 274 25 252 -9 228 -42 c 1
 220 -38 l 1
 238 -2 255 36 272 73 c 2
 298 132 l 2
 311 165 325 198 338 232 c 1
 156 230 l 1
 156 250 l 1
 344 251 l 1
 355 276 363 304 372 330 c 2
 408 450 l 1
 152 450 l 1
 152 470 l 1
 414 470 l 1
 423 499 430 530 438 560 c 2
 456 638 l 1
EndSplineSet
Validated: 1
EndChar

StartChar: glyph28
Encoding: 983100 983100 28
Width: 1000
VWidth: 0
Flags: W
HStem: 306 20<156 354 414 586 646 734>
VStem: 354 60<-17 306 326 620> 586 60<-17 306 326 620>
LayerCount: 2
Fore
SplineSet
646 620 m 1
 646 326 l 1
 734 326 l 1
 784 376 l 1
 844 326 l 1
 844 306 l 1
 646 306 l 1
 646 -17 l 1
 586 -47 l 1
 586 306 l 1
 414 306 l 1
 414 -17 l 1
 354 -47 l 1
 354 306 l 1
 156 306 l 1
 156 326 l 1
 354 326 l 1
 354 649 l 1
 414 639 l 1
 429 629 l 1
 414 620 l 1
 414 326 l 1
 586 326 l 1
 586 649 l 1
 646 639 l 1
 661 629 l 1
 646 620 l 1
EndSplineSet
Validated: 1
EndChar

StartChar: glyph29
Encoding: 983101 983101 29
Width: 1000
VWidth: 0
Flags: W
LayerCount: 2
Fore
SplineSet
745 300 m 1
 742 262 l 1
 732 224 l 1
 716 190 l 1
 696 158 l 1
 672 128 l 1
 642 104 l 1
 610 84 l 1
 576 68 l 1
 538 58 l 1
 500 55 l 1
 461 58 l 1
 424 68 l 1
 389 84 l 1
 357 104 l 1
 328 128 l 1
 304 158 l 1
 283 190 l 1
 268 224 l 1
 258 262 l 1
 255 300 l 1
 258 339 l 1
 268 376 l 1
 283 411 l 1
 304 443 l 1
 328 472 l 1
 357 496 l 1
 389 517 l 1
 424 532 l 1
 461 542 l 1
 500 545 l 1
 538 542 l 1
 576 532 l 1
 610 517 l 1
 642 496 l 1
 672 472 l 1
 696 443 l 1
 716 411 l 1
 732 376 l 1
 742 339 l 1
 745 300 l 1
705 300 m 1
 702 332 l 1
 694 363 l 1
 681 392 l 1
 664 420 l 1
 643 444 l 1
 619 464 l 1
 592 482 l 1
 562 494 l 1
 532 502 l 1
 500 505 l 1
 468 502 l 1
 437 494 l 1
 408 482 l 1
 380 464 l 1
 356 444 l 1
 336 420 l 1
 318 392 l 1
 306 363 l 1
 298 332 l 1
 295 300 l 1
 298 268 l 1
 306 238 l 1
 318 208 l 1
 336 181 l 1
 356 157 l 1
 380 136 l 1
 408 119 l 1
 437 106 l 1
 468 98 l 1
 500 95 l 1
 532 98 l 1
 562 106 l 1
 592 119 l 1
 619 136 l 1
 643 157 l 1
 664 181 l 1
 681 208 l 1
 694 238 l 1
 702 268 l 1
 705 300 l 1
EndSplineSet
Validated: 1
EndChar

StartChar: glyph30
Encoding: 983102 983102 30
Width: 1000
VWidth: 0
Flags: W
HStem: 80 20<242 470 530 648> 479 20<281 470 530 609>
VStem: 470 60<100 479>
LayerCount: 2
Fore
SplineSet
648 100 m 1
 698 150 l 1
 758 100 l 1
 758 80 l 1
 242 80 l 1
 242 100 l 1
 470 100 l 1
 470 479 l 1
 281 479 l 1
 281 499 l 1
 609 499 l 1
 659 549 l 1
 719 499 l 1
 719 479 l 1
 530 479 l 1
 530 100 l 1
 648 100 l 1
EndSplineSet
Validated: 1
EndChar

StartChar: glyph31
Encoding: 983103 983103 31
Width: 1000
VWidth: 0
Flags: W
HStem: 80 20<304 682>
VStem: 244 60<20 80 100 486> 682 60<50 80 100 486>
LayerCount: 2
Fore
SplineSet
742 486 m 1
 742 50 l 1
 682 20 l 1
 682 80 l 1
 304 80 l 1
 304 20 l 1
 244 -10 l 1
 244 515 l 1
 304 505 l 1
 318 495 l 1
 304 486 l 1
 304 100 l 1
 682 100 l 1
 682 515 l 1
 742 505 l 1
 756 495 l 1
 742 486 l 1
EndSplineSet
Validated: 1
EndChar

StartChar: glyph32
Encoding: 983104 983104 32
Width: 1000
VWidth: 0
Flags: W
HStem: 80 20<424 574> 353 20<256 364 424 574 634 654>
VStem: 364 60<20 80 100 353 373 507> 574 60<50 80 100 353 373 507>
LayerCount: 2
Fore
SplineSet
574 353 m 1
 424 353 l 1
 424 100 l 1
 574 100 l 1
 574 353 l 1
654 373 m 1
 694 418 l 1
 744 373 l 1
 744 353 l 1
 634 353 l 1
 634 50 l 1
 574 20 l 1
 574 80 l 1
 424 80 l 1
 424 20 l 1
 364 -10 l 1
 364 353 l 1
 256 353 l 1
 256 373 l 1
 364 373 l 1
 364 536 l 1
 424 526 l 1
 438 516 l 1
 424 507 l 1
 424 373 l 1
 574 373 l 1
 574 536 l 1
 634 526 l 1
 648 516 l 1
 634 507 l 1
 634 373 l 1
 654 373 l 1
EndSplineSet
Validated: 1
EndChar

StartChar: glyph33
Encoding: 983105 983105 33
Width: 1000
VWidth: 0
Flags: W
LayerCount: 2
Fore
SplineSet
711 36 m 1
 665 66 l 1
 624 100 l 1
 588 138 l 1
 559 182 l 1
 534 230 l 1
 516 283 l 1
 502 340 l 1
 498 373 l 1
 488 328 l 1
 467 268 l 1
 442 215 l 1
 410 168 l 1
 374 126 l 1
 333 92 l 1
 286 64 l 1
 236 44 l 1
 232 52 l 1
 277 80 l 1
 316 113 l 1
 350 149 l 1
 380 190 l 1
 404 234 l 1
 424 284 l 1
 438 340 l 1
 449 400 l 1
 455 466 l 1
 456 538 l 1
 456 550 l 1
 516 538 l 1
 531 528 l 1
 515 518 l 1
 512 474 l 1
 524 405 l 1
 538 348 l 1
 555 296 l 1
 576 250 l 1
 602 210 l 1
 631 174 l 1
 664 144 l 1
 700 118 l 1
 740 96 l 1
 768 82 l 1
 711 36 l 1
EndSplineSet
Validated: 1
EndChar

StartChar: glyph34
Encoding: 983106 983106 34
Width: 1000
VWidth: 0
Flags: W
HStem: 371 20<245 460 520 633>
VStem: 464 60<391 528>
LayerCount: 2
Fore
SplineSet
710 40 m 1
 674 62 l 1
 642 87 l 1
 612 114 l 1
 586 145 l 1
 564 178 l 1
 544 213 l 1
 528 250 l 1
 516 290 l 1
 509 329 l 1
 494 278 l 1
 474 228 l 1
 447 184 l 1
 416 144 l 1
 378 110 l 1
 336 81 l 1
 289 58 l 1
 238 41 l 1
 234 50 l 1
 280 75 l 1
 321 104 l 1
 356 134 l 1
 386 169 l 1
 412 206 l 1
 432 248 l 1
 446 293 l 1
 457 342 l 1
 460 371 l 1
 245 371 l 1
 245 391 l 1
 462 391 l 1
 463 396 l 1
 464 453 l 1
 464 557 l 1
 524 547 l 1
 539 537 l 1
 524 528 l 1
 524 453 l 1
 520 391 l 1
 633 391 l 1
 683 441 l 1
 743 391 l 1
 743 371 l 1
 516 371 l 1
 528 337 l 1
 544 300 l 2
 555 277 567 255 580 233 c 2
 602 204 l 1
 624 178 l 1
 650 154 l 1
 678 134 l 1
 708 115 l 2
 727 105 746 95 766 85 c 1
 710 40 l 1
EndSplineSet
Validated: 1
EndChar

StartChar: glyph35
Encoding: 983107 983107 35
Width: 1000
VWidth: 0
Flags: W
HStem: 41 20<314 660>
LayerCount: 2
Fore
SplineSet
660 61 m 1
 710 111 l 1
 770 61 l 1
 770 41 l 1
 304 41 l 1
 298 28 l 1
 230 30 l 1
 524 571 l 1
 572 534 l 1
 580 518 l 1
 562 515 l 1
 314 61 l 1
 660 61 l 1
EndSplineSet
Validated: 1
EndChar

StartChar: glyph36
Encoding: 983108 983108 36
Width: 1000
VWidth: 0
Flags: W
HStem: 41 20<314 660> 371 20<260 416 494 648>
LayerCount: 2
Fore
SplineSet
660 61 m 1
 710 111 l 1
 770 61 l 1
 770 41 l 1
 304 41 l 1
 298 28 l 1
 230 30 l 1
 416 371 l 1
 260 371 l 1
 260 391 l 1
 426 391 l 1
 524 571 l 1
 572 534 l 1
 580 518 l 1
 562 515 l 1
 494 391 l 1
 648 391 l 1
 698 441 l 1
 758 391 l 1
 758 371 l 1
 484 371 l 1
 314 61 l 1
 660 61 l 1
EndSplineSet
Validated: 1
EndChar

StartChar: glyph37
Encoding: 983109 983109 37
Width: 1000
VWidth: 0
Flags: W
VStem: 684 60<120 537>
LayerCount: 2
Fore
SplineSet
744 82 m 1
 744 53 l 1
 731 53 l 1
 719 26 l 1
 701 38 684 51 666 64 c 2
 622 95 l 2
 620 96 527 157 440 207 c 0
 405 227 372 245 339 262 c 2
 241 314 l 1
 244 322 l 1
 298 306 l 1
 402 266 l 1
 517 215 597 171 684 120 c 1
 684 566 l 1
 744 556 l 1
 759 546 l 1
 744 537 l 1
 744 100 l 1
 745 100 l 1
 744 82 l 1
EndSplineSet
Validated: 1
EndChar

StartChar: glyph38
Encoding: 983110 983110 38
Width: 1000
VWidth: 0
Flags: W
HStem: 57 30<601.333 648> 72 15<548 594.667> 524 20<248 668>
VStem: 668 60<88.0312 96 101 504>
LayerCount: 2
Fore
SplineSet
662 90 m 2xb0
 663 91 665 92 666 94 c 2
 666 96 l 1
 668 101 l 1
 668 524 l 1
 248 524 l 1
 248 544 l 1
 668 544 l 1
 698 569 l 1
 752 524 l 1
 728 504 l 1
 728 107 l 2
 727 99 725 90 724 82 c 2
 720 70 l 1
 714 58 l 1
 706 48 l 1
 696 40 l 1
 684 34 l 1
 672 30 l 1
 660 28 l 1
 648 27 l 1
 648 57 l 1xb0
 548 72 l 1
 548 87 l 1x70
 648 87 l 1
 654 88 l 1
 658 88 l 1
 662 90 l 2xb0
EndSplineSet
Validated: 8388609
EndChar

StartChar: glyph39
Encoding: 983111 983111 39
Width: 1000
VWidth: 0
Flags: W
HStem: 527 20<238 672>
LayerCount: 2
Fore
SplineSet
726 508 m 1
 690 411 679 389 630 296 c 1
 600 245 l 2
 578 213 555 182 532 152 c 2
 496 111 l 1
 458 73 l 1
 418 39 l 1
 412 46 l 1
 434 73 455 100 476 128 c 2
 506 172 l 1
 599 324 622 386 658 486 c 2
 672 527 l 1
 238 527 l 1
 238 547 l 1
 676 547 l 1
 706 572 l 1
 762 527 l 1
 736 512 l 1
 726 508 l 1
EndSplineSet
Validated: 1
EndChar

StartChar: glyph40
Encoding: 983112 983112 40
Width: 1000
VWidth: 0
Flags: W
HStem: 323 20<266 500> 527 20<238 672>
LayerCount: 2
Fore
SplineSet
500 343 m 1
 550 393 l 1
 604 349 l 1
 616 374 625 401 636 427 c 2
 658 486 l 1
 672 527 l 1
 238 527 l 1
 238 547 l 1
 676 547 l 1
 706 572 l 1
 762 527 l 1
 736 512 l 1
 726 508 l 1
 690 411 679 389 630 296 c 1
 600 245 l 2
 578 213 555 182 532 152 c 2
 496 111 l 1
 458 73 l 1
 418 39 l 1
 412 46 l 1
 434 73 455 100 476 128 c 2
 506 172 l 2
 525 203 544 235 562 267 c 2
 588 318 l 1
 592 323 l 1
 266 323 l 1
 266 343 l 1
 500 343 l 1
EndSplineSet
Validated: 1
EndChar

StartChar: glyph41
Encoding: 983113 983113 41
Width: 1000
VWidth: 0
Flags: W
VStem: 259 60<124 504>
LayerCount: 2
Fore
SplineSet
306 43 m 1
 279 16 l 1
 229 66 l 1
 259 96 l 1
 259 533 l 1
 319 523 l 1
 334 513 l 1
 319 504 l 1
 319 124 l 1
 489 239 601 301 714 356 c 1
 766 379 l 1
 771 372 l 1
 768 370 601 258 488 178 c 2
 396 112 l 2
 367 88 337 65 307 42 c 1
 306 43 l 1
EndSplineSet
Validated: 1
EndChar

StartChar: glyph42
Encoding: 983114 983114 42
Width: 1000
VWidth: 0
Flags: W
HStem: 521 20<243 567>
VStem: 567 60<150 501>
LayerCount: 2
Fore
SplineSet
627 150 m 1
 657 195 714 273 749 318 c 1
 757 313 l 1
 745 288 734 263 723 238 c 0
 722 236 652 102 638 74 c 2
 629 55 l 1
 637 37 l 1
 619 36 l 1
 563 60 l 1
 567 67 l 1
 567 521 l 1
 243 521 l 1
 243 541 l 1
 567 541 l 1
 597 566 l 1
 652 521 l 1
 627 501 l 1
 627 150 l 1
EndSplineSet
Validated: 1
EndChar

StartChar: glyph43
Encoding: 983115 983115 43
Width: 1000
VWidth: 0
Flags: W
HStem: 527 20<305 330 341 633>
LayerCount: 2
Fore
SplineSet
494 273 m 1
 510 293 523 317 538 338 c 2
 575 403 l 1
 610 473 l 1
 633 527 l 1
 341 527 l 1
 361 486 381 446 402 406 c 2
 436 350 l 1
 474 298 l 1
 494 273 l 1
714 27 m 1
 660 56 l 1
 609 90 l 1
 561 130 l 1
 517 173 l 1
 493 201 l 1
 476 185 460 168 443 152 c 2
 393 112 l 1
 341 80 l 1
 287 54 l 1
 232 35 l 1
 228 44 l 1
 278 70 l 1
 326 102 l 1
 372 138 l 1
 417 180 l 1
 466 236 l 1
 439 274 l 1
 406 332 l 1
 376 394 l 1
 350 460 l 1
 330 527 l 1
 305 527 l 1
 305 547 l 1
 641 547 l 1
 643 548 l 1
 643 549 l 1
 671 572 l 1
 726 527 l 1
 701 512 l 1
 690 507 l 1
 669 462 646 419 622 376 c 2
 580 311 l 2
 562 287 544 262 525 238 c 1
 553 209 l 1
 596 172 l 1
 642 139 l 1
 690 111 l 2
 717 99 745 86 772 74 c 1
 714 27 l 1
EndSplineSet
Validated: 1
EndChar

StartChar: glyph44
Encoding: 983116 983116 44
Width: 1000
VWidth: 0
Flags: W
HStem: 314 20<242 470 530 648>
VStem: 470 60<-152 314 334 742>
LayerCount: 2
Fore
SplineSet
531 742 m 1
 530 334 l 1
 648 334 l 1
 698 384 l 1
 758 334 l 1
 758 314 l 1
 530 314 l 1
 530 -152 l 1
 470 -182 l 1
 470 314 l 1
 242 314 l 1
 242 334 l 1
 470 334 l 1
 471 771 l 1
 531 761 l 1
 546 751 l 1
 531 742 l 1
EndSplineSet
Validated: 1
EndChar

StartChar: glyph45
Encoding: 983117 983117 45
Width: 1000
VWidth: 0
Flags: W
HStem: 311 20<290 684>
LayerCount: 2
Fore
SplineSet
693 331 m 2
 695 332 696 334 696 336 c 1
 698 335 l 1
 723 356 l 1
 778 311 l 1
 753 296 l 1
 738 290 l 2
 737 289 682 212 626 156 c 2
 598 126 l 2
 576 105 554 85 532 65 c 2
 495 33 l 1
 488 40 l 1
 584 160 584 160 640 240 c 2
 658 266 l 2
 667 281 676 296 684 311 c 1
 286 311 l 1
 286 306 l 1
 222 286 l 1
 268 568 l 1
 326 548 l 1
 338 536 l 1
 323 531 l 1
 290 331 l 1
 693 331 l 2
EndSplineSet
Validated: 1
EndChar

StartChar: glyph46
Encoding: 983118 983118 46
Width: 1000
VWidth: 0
Flags: W
HStem: 41 9<284.444 296.433> 302 20<384 646> 530 20<240 627>
LayerCount: 2
Fore
SplineSet
657 324 m 1
 684 347 l 1
 739 302 l 1
 714 287 l 1
 701 281 l 1
 688 259 l 1
 660 222 l 1
 628 188 l 1
 592 156 l 1
 551 129 l 1
 506 104 l 1
 457 83 l 1
 404 66 l 1
 347 51 l 1
 286 41 l 1
 284 50 l 1
 322 63 359 76 395 90 c 2
 444 114 l 1
 488 138 l 1
 527 164 l 1
 562 192 l 1
 592 222 l 1
 618 254 l 1
 639 288 l 1
 646 302 l 1
 349 302 l 1
 312 281 l 1
 256 318 l 1
 627 530 l 1
 240 530 l 1
 240 550 l 1
 675 550 l 1
 705 575 l 1
 723 560 742 545 760 530 c 1
 735 515 l 1
 681 492 l 1
 384 322 l 1
 654 322 l 1
 656 324 l 1
 657 324 l 1
EndSplineSet
Validated: 1
EndChar

StartChar: glyph47
Encoding: 983119 983119 47
Width: 1000
VWidth: 0
Flags: W
HStem: 395 20<245 530 590 645>
VStem: 530 60<120 395 415 528>
LayerCount: 2
Fore
SplineSet
645 415 m 1
 695 465 l 1
 755 415 l 1
 755 395 l 1
 590 395 l 1
 590 89 l 1
 593 89 l 1
 590 78 l 1
 590 62 l 1
 580 62 l 1
 550 25 l 1
 531 44 552 24 520 60 c 2
 505 77 l 2
 479 103 450 131 415 160 c 0
 404 169 386 185 368 201 c 2
 338 228 l 1
 344 235 l 1
 386 210 419 197 470 162 c 0
 486 152 501 141 517 130 c 2
 530 120 l 1
 530 395 l 1
 245 395 l 1
 245 415 l 1
 530 415 l 1
 530 557 l 1
 590 547 l 1
 605 537 l 1
 590 528 l 1
 590 415 l 1
 645 415 l 1
EndSplineSet
Validated: 1
EndChar

StartChar: glyph48
Encoding: 983120 983120 48
Width: 1000
VWidth: 0
Flags: W
HStem: 410 20<232 416 478 678>
LayerCount: 2
Fore
SplineSet
456 566 m 1
 512 543 l 1
 524 530 l 1
 506 525 l 1
 497 493 488 461 478 430 c 1
 682 430 l 1
 712 455 l 1
 768 410 l 1
 742 395 l 1
 734 392 l 1
 692 276 679 242 640 169 c 2
 622 133 l 2
 609 110 595 88 580 67 c 2
 558 37 l 1
 550 42 l 2
 551 44 598 158 620 222 c 2
 634 261 l 2
 651 311 660 339 678 410 c 1
 472 410 l 1
 454 353 413 237 344 119 c 1
 318 79 l 1
 290 43 l 1
 282 48 l 1
 302 88 l 2
 314 117 326 146 338 176 c 2
 356 223 l 2
 395 332 395 332 416 410 c 1
 232 410 l 1
 232 430 l 1
 422 430 l 1
 422 431 431 457 456 566 c 1
EndSplineSet
Validated: 1
EndChar

StartChar: glyph49
Encoding: 983121 983121 49
Width: 1000
VWidth: 0
Flags: W
HStem: 246 20<236 364 418 534> 410 20<232 416 478 678>
LayerCount: 2
Fore
SplineSet
534 267 m 1
 584 318 l 1
 638 273 l 1
 645 296 653 319 660 342 c 0
 666 365 672 387 678 410 c 1
 472 410 l 1
 461 375 448 342 436 308 c 2
 418 266 l 1
 534 267 l 1
456 566 m 1
 512 543 l 1
 524 530 l 1
 506 525 l 1
 497 493 488 461 478 430 c 1
 682 430 l 1
 712 455 l 1
 768 410 l 1
 742 395 l 1
 734 392 l 1
 692 276 679 242 640 169 c 2
 622 133 l 2
 609 110 595 88 580 67 c 2
 558 37 l 1
 550 42 l 2
 551 44 598 158 620 222 c 2
 630 248 l 1
 408 247 l 1
 392 208 l 2
 377 178 361 148 344 119 c 2
 318 79 l 1
 290 43 l 1
 282 48 l 1
 302 88 l 2
 314 117 326 146 338 176 c 2
 356 223 l 1
 364 246 l 1
 236 246 l 1
 236 265 l 1
 372 266 l 1
 378 282 396 336 416 410 c 1
 232 410 l 1
 232 430 l 1
 422 430 l 1
 422 431 431 457 456 566 c 1
EndSplineSet
Validated: 1
EndChar

StartChar: glyph50
Encoding: 983122 983122 50
Width: 1000
VWidth: 0
Flags: W
HStem: 302 20<242 383 443 557 617 648>
VStem: 383 60<66 302 322 534> 557 60<66 302 322 534>
LayerCount: 2
Fore
SplineSet
617 534 m 1
 617 322 l 1
 648 322 l 1
 698 372 l 1
 758 322 l 1
 758 302 l 1
 617 302 l 1
 617 66 l 1
 557 36 l 1
 557 302 l 1
 443 302 l 1
 443 66 l 1
 383 36 l 1
 383 302 l 1
 242 302 l 1
 242 322 l 1
 383 322 l 1
 383 563 l 1
 443 553 l 1
 458 543 l 1
 443 534 l 1
 443 322 l 1
 557 322 l 1
 557 563 l 1
 617 553 l 1
 632 543 l 1
 617 534 l 1
EndSplineSet
Validated: 1
EndChar

StartChar: glyph51
Encoding: 983123 983123 51
Width: 1000
VWidth: 0
Flags: W
LayerCount: 2
Fore
SplineSet
372 431 m 1
 376 413 l 1
 358 416 l 1
 309 452 l 1
 348 491 490 619 520 648 c 0
 544 668 567 689 590 710 c 2
 662 770 l 1
 669 763 l 1
 655 744 655 744 554 628 c 0
 550 623 419 480 390 450 c 2
 372 431 l 1
745 100 m 1
 742 62 l 1
 732 24 l 1
 716 -10 l 1
 696 -42 l 1
 672 -72 l 1
 642 -96 l 1
 610 -116 l 1
 576 -132 l 1
 538 -142 l 1
 500 -145 l 1
 461 -142 l 1
 424 -132 l 1
 389 -116 l 1
 357 -96 l 1
 328 -72 l 1
 304 -42 l 1
 283 -10 l 1
 268 24 l 1
 258 62 l 1
 255 100 l 1
 258 139 l 1
 268 176 l 1
 283 211 l 1
 304 243 l 1
 328 272 l 1
 357 296 l 1
 389 317 l 1
 424 332 l 1
 461 342 l 1
 500 345 l 1
 538 342 l 1
 576 332 l 1
 610 317 l 1
 642 296 l 1
 672 272 l 1
 696 243 l 1
 716 211 l 1
 732 176 l 1
 742 139 l 1
 745 100 l 1
705 100 m 1
 702 132 l 1
 694 163 l 1
 681 192 l 1
 664 220 l 1
 643 244 l 1
 619 264 l 1
 592 282 l 1
 562 294 l 1
 532 302 l 1
 500 305 l 1
 468 302 l 1
 437 294 l 1
 408 282 l 1
 380 264 l 1
 356 244 l 1
 336 220 l 1
 318 192 l 1
 306 163 l 1
 298 132 l 1
 295 100 l 1
 298 68 l 1
 306 38 l 1
 318 8 l 1
 336 -19 l 1
 356 -43 l 1
 380 -64 l 1
 408 -81 l 1
 437 -94 l 1
 468 -102 l 1
 500 -105 l 1
 532 -102 l 1
 562 -94 l 1
 592 -81 l 1
 619 -64 l 1
 643 -43 l 1
 664 -19 l 1
 681 8 l 1
 694 38 l 1
 702 68 l 1
 705 100 l 1
EndSplineSet
Validated: 1
EndChar

StartChar: glyph52
Encoding: 983124 983124 52
Width: 1000
VWidth: 0
Flags: W
LayerCount: 2
Fore
SplineSet
316 142 m 1
 314 143 l 1
 358 184 l 1
 376 188 l 1
 372 170 l 2
 375 167 581 -55 640 -126 c 2
 669 -162 l 1
 662 -169 l 1
 621 -138 600 -119 418 47 c 0
 395 68 372 89 350 110 c 2
 320 138 l 1
 316 142 l 1
745 500 m 1
 742 462 l 1
 732 424 l 1
 716 390 l 1
 696 358 l 1
 672 328 l 1
 642 304 l 1
 610 284 l 1
 576 268 l 1
 538 258 l 1
 500 255 l 1
 461 258 l 1
 424 268 l 1
 389 284 l 1
 357 304 l 1
 328 328 l 1
 304 358 l 1
 283 390 l 1
 268 424 l 1
 258 462 l 1
 255 500 l 1
 258 539 l 1
 268 576 l 1
 283 611 l 1
 304 643 l 1
 328 672 l 1
 357 696 l 1
 389 717 l 1
 424 732 l 1
 461 742 l 1
 500 745 l 1
 538 742 l 1
 576 732 l 1
 610 717 l 1
 642 696 l 1
 672 672 l 1
 696 643 l 1
 716 611 l 1
 732 576 l 1
 742 539 l 1
 745 500 l 1
705 500 m 1
 702 532 l 1
 694 563 l 1
 681 592 l 1
 664 620 l 1
 643 644 l 1
 619 664 l 1
 592 682 l 1
 562 694 l 1
 532 702 l 1
 500 705 l 1
 468 702 l 1
 437 694 l 1
 408 682 l 1
 380 664 l 1
 356 644 l 1
 336 620 l 1
 318 592 l 1
 306 563 l 1
 298 532 l 1
 295 500 l 1
 298 468 l 1
 306 438 l 1
 318 408 l 1
 336 381 l 1
 356 357 l 1
 380 336 l 1
 408 319 l 1
 437 306 l 1
 468 298 l 1
 500 295 l 1
 532 298 l 1
 562 306 l 1
 592 319 l 1
 619 336 l 1
 643 357 l 1
 664 381 l 1
 681 408 l 1
 694 438 l 1
 702 468 l 1
 705 500 l 1
EndSplineSet
Validated: 1
EndChar

StartChar: glyph53
Encoding: 983125 983125 53
Width: 1000
VWidth: 0
Flags: W
HStem: -10 20<334 556>
LayerCount: 2
Fore
SplineSet
556 10 m 1
 606 60 l 1
 666 10 l 1
 666 -10 l 1
 334 -10 l 1
 334 10 l 1
 556 10 l 1
745 500 m 1
 742 462 l 1
 732 424 l 1
 716 390 l 1
 696 358 l 1
 672 328 l 1
 642 304 l 1
 610 284 l 1
 576 268 l 1
 538 258 l 1
 500 255 l 1
 461 258 l 1
 424 268 l 1
 389 284 l 1
 357 304 l 1
 328 328 l 1
 304 358 l 1
 283 390 l 1
 268 424 l 1
 258 462 l 1
 255 500 l 1
 258 539 l 1
 268 576 l 1
 283 611 l 1
 304 643 l 1
 328 672 l 1
 357 696 l 1
 389 717 l 1
 424 732 l 1
 461 742 l 1
 500 745 l 1
 538 742 l 1
 576 732 l 1
 610 717 l 1
 642 696 l 1
 672 672 l 1
 696 643 l 1
 716 611 l 1
 732 576 l 1
 742 539 l 1
 745 500 l 1
705 500 m 1
 702 532 l 1
 694 563 l 1
 681 592 l 1
 664 620 l 1
 643 644 l 1
 619 664 l 1
 592 682 l 1
 562 694 l 1
 532 702 l 1
 500 705 l 1
 468 702 l 1
 437 694 l 1
 408 682 l 1
 380 664 l 1
 356 644 l 1
 336 620 l 1
 318 592 l 1
 306 563 l 1
 298 532 l 1
 295 500 l 1
 298 468 l 1
 306 438 l 1
 318 408 l 1
 336 381 l 1
 356 357 l 1
 380 336 l 1
 408 319 l 1
 437 306 l 1
 468 298 l 1
 500 295 l 1
 532 298 l 1
 562 306 l 1
 592 319 l 1
 619 336 l 1
 643 357 l 1
 664 381 l 1
 681 408 l 1
 694 438 l 1
 702 468 l 1
 705 500 l 1
EndSplineSet
Validated: 1
EndChar

StartChar: glyph54
Encoding: 983126 983126 54
Width: 1000
VWidth: 0
Flags: W
LayerCount: 2
Fore
SplineSet
642 186 m 1
 684 142 l 1
 687 124 l 1
 669 128 l 1
 651 111 634 94 613 75 c 0
 611 73 469 -57 444 -78 c 0
 421 -99 398 -120 374 -140 c 2
 337 -169 l 1
 330 -162 l 1
 390 -90 l 1
 389 -91 l 1
 389 -91 400 -78 515 48 c 0
 516 49 639 179 642 186 c 1
745 500 m 1
 742 462 l 1
 732 424 l 1
 716 390 l 1
 696 358 l 1
 672 328 l 1
 642 304 l 1
 610 284 l 1
 576 268 l 1
 538 258 l 1
 500 255 l 1
 461 258 l 1
 424 268 l 1
 389 284 l 1
 357 304 l 1
 328 328 l 1
 304 358 l 1
 283 390 l 1
 268 424 l 1
 258 462 l 1
 255 500 l 1
 258 539 l 1
 268 576 l 1
 283 611 l 1
 304 643 l 1
 328 672 l 1
 357 696 l 1
 389 717 l 1
 424 732 l 1
 461 742 l 1
 500 745 l 1
 538 742 l 1
 576 732 l 1
 610 717 l 1
 642 696 l 1
 672 672 l 1
 696 643 l 1
 716 611 l 1
 732 576 l 1
 742 539 l 1
 745 500 l 1
705 500 m 1
 702 532 l 1
 694 563 l 1
 681 592 l 1
 664 620 l 1
 643 644 l 1
 619 664 l 1
 592 682 l 1
 562 694 l 1
 532 702 l 1
 500 705 l 1
 468 702 l 1
 437 694 l 1
 408 682 l 1
 380 664 l 1
 356 644 l 1
 336 620 l 1
 318 592 l 1
 306 563 l 1
 298 532 l 1
 295 500 l 1
 298 468 l 1
 306 438 l 1
 318 408 l 1
 336 381 l 1
 356 357 l 1
 380 336 l 1
 408 319 l 1
 437 306 l 1
 468 298 l 1
 500 295 l 1
 532 298 l 1
 562 306 l 1
 592 319 l 1
 619 336 l 1
 643 357 l 1
 664 381 l 1
 681 408 l 1
 694 438 l 1
 702 468 l 1
 705 500 l 1
EndSplineSet
Validated: 1
EndChar

StartChar: glyph55
Encoding: 983127 983127 55
Width: 1000
VWidth: 0
Flags: W
LayerCount: 2
Fore
SplineSet
745 100 m 1
 742 62 l 1
 732 24 l 1
 716 -10 l 1
 696 -42 l 1
 672 -72 l 1
 642 -96 l 1
 610 -116 l 1
 576 -132 l 1
 538 -142 l 1
 500 -145 l 1
 461 -142 l 1
 424 -132 l 1
 389 -116 l 1
 357 -96 l 1
 328 -72 l 1
 304 -42 l 1
 283 -10 l 1
 268 24 l 1
 258 62 l 1
 255 100 l 1
 258 139 l 1
 268 176 l 1
 283 211 l 1
 304 243 l 1
 328 272 l 1
 357 296 l 1
 389 317 l 1
 424 332 l 1
 461 342 l 1
 500 345 l 1
 538 342 l 1
 576 332 l 1
 610 317 l 1
 642 296 l 1
 672 272 l 1
 696 243 l 1
 716 211 l 1
 732 176 l 1
 742 139 l 1
 745 100 l 1
705 100 m 1
 702 132 l 1
 694 163 l 1
 681 192 l 1
 664 220 l 1
 643 244 l 1
 619 264 l 1
 592 282 l 1
 562 294 l 1
 532 302 l 1
 500 305 l 1
 468 302 l 1
 437 294 l 1
 408 282 l 1
 380 264 l 1
 356 244 l 1
 336 220 l 1
 318 192 l 1
 306 163 l 1
 298 132 l 1
 295 100 l 1
 298 68 l 1
 306 38 l 1
 318 8 l 1
 336 -19 l 1
 356 -43 l 1
 380 -64 l 1
 408 -81 l 1
 437 -94 l 1
 468 -102 l 1
 500 -105 l 1
 532 -102 l 1
 562 -94 l 1
 592 -81 l 1
 619 -64 l 1
 643 -43 l 1
 664 -19 l 1
 681 8 l 1
 694 38 l 1
 702 68 l 1
 705 100 l 1
340 768 m 1
 370 753 l 1
 401 734 l 2
 423 719 444 703 465 686 c 2
 498 658 l 2
 521 635 545 613 568 590 c 0
 593 563 617 537 642 510 c 2
 680 464 l 1
 686 442 l 1
 675 422 l 1
 653 416 l 1
 633 428 l 1
 610 457 587 487 564 516 c 0
 542 542 520 568 499 594 c 0
 430 670 382 720 336 760 c 1
 340 768 l 1
EndSplineSet
Validated: 1
EndChar

StartChar: glyph56
Encoding: 983128 983128 56
Width: 1000
VWidth: 0
Flags: W
LayerCount: 2
Fore
SplineSet
745 100 m 1
 742 62 l 1
 732 24 l 1
 716 -10 l 1
 696 -42 l 1
 672 -72 l 1
 642 -96 l 1
 610 -116 l 1
 576 -132 l 1
 538 -142 l 1
 500 -145 l 1
 461 -142 l 1
 424 -132 l 1
 389 -116 l 1
 357 -96 l 1
 328 -72 l 1
 304 -42 l 1
 283 -10 l 1
 268 24 l 1
 258 62 l 1
 255 100 l 1
 258 139 l 1
 268 176 l 1
 283 211 l 1
 304 243 l 1
 328 272 l 1
 357 296 l 1
 389 317 l 1
 424 332 l 1
 461 342 l 1
 500 345 l 1
 538 342 l 1
 576 332 l 1
 610 317 l 1
 642 296 l 1
 672 272 l 1
 696 243 l 1
 716 211 l 1
 732 176 l 1
 742 139 l 1
 745 100 l 1
705 100 m 1
 702 132 l 1
 694 163 l 1
 681 192 l 1
 664 220 l 1
 643 244 l 1
 619 264 l 1
 592 282 l 1
 562 294 l 1
 532 302 l 1
 500 305 l 1
 468 302 l 1
 437 294 l 1
 408 282 l 1
 380 264 l 1
 356 244 l 1
 336 220 l 1
 318 192 l 1
 306 163 l 1
 298 132 l 1
 295 100 l 1
 298 68 l 1
 306 38 l 1
 318 8 l 1
 336 -19 l 1
 356 -43 l 1
 380 -64 l 1
 408 -81 l 1
 437 -94 l 1
 468 -102 l 1
 500 -105 l 1
 532 -102 l 1
 562 -94 l 1
 592 -81 l 1
 619 -64 l 1
 643 -43 l 1
 664 -19 l 1
 681 8 l 1
 694 38 l 1
 702 68 l 1
 705 100 l 1
482 613 m 1
 412 688 371 729 336 760 c 1
 340 768 l 1
 370 753 l 1
 401 734 l 2
 423 719 444 703 465 686 c 2
 498 658 l 1
 514 642 l 1
 515 643 548 675 626 740 c 2
 662 770 l 1
 669 763 l 1
 633 715 543 616 542 615 c 1
 564 595 584 573 604 551 c 2
 642 510 l 1
 680 464 l 1
 686 442 l 1
 675 422 l 1
 653 416 l 1
 633 428 l 1
 610 457 587 487 566 513 c 0
 546 537 528 558 510 580 c 1
 509 579 418 479 390 450 c 2
 372 431 l 1
 376 413 l 1
 358 416 l 1
 309 452 l 1
 321 464 407 545 452 585 c 2
 482 613 l 1
EndSplineSet
Validated: 1
EndChar

StartChar: glyph57
Encoding: 983129 983129 57
Width: 1000
VWidth: 0
Flags: W
HStem: 590 20<334 556>
LayerCount: 2
Fore
SplineSet
556 610 m 1
 606 660 l 1
 666 610 l 1
 666 590 l 1
 334 590 l 1
 334 610 l 1
 556 610 l 1
745 100 m 1
 742 62 l 1
 732 24 l 1
 716 -10 l 1
 696 -42 l 1
 672 -72 l 1
 642 -96 l 1
 610 -116 l 1
 576 -132 l 1
 538 -142 l 1
 500 -145 l 1
 461 -142 l 1
 424 -132 l 1
 389 -116 l 1
 357 -96 l 1
 328 -72 l 1
 304 -42 l 1
 283 -10 l 1
 268 24 l 1
 258 62 l 1
 255 100 l 1
 258 139 l 1
 268 176 l 1
 283 211 l 1
 304 243 l 1
 328 272 l 1
 357 296 l 1
 389 317 l 1
 424 332 l 1
 461 342 l 1
 500 345 l 1
 538 342 l 1
 576 332 l 1
 610 317 l 1
 642 296 l 1
 672 272 l 1
 696 243 l 1
 716 211 l 1
 732 176 l 1
 742 139 l 1
 745 100 l 1
705 100 m 1
 702 132 l 1
 694 163 l 1
 681 192 l 1
 664 220 l 1
 643 244 l 1
 619 264 l 1
 592 282 l 1
 562 294 l 1
 532 302 l 1
 500 305 l 1
 468 302 l 1
 437 294 l 1
 408 282 l 1
 380 264 l 1
 356 244 l 1
 336 220 l 1
 318 192 l 1
 306 163 l 1
 298 132 l 1
 295 100 l 1
 298 68 l 1
 306 38 l 1
 318 8 l 1
 336 -19 l 1
 356 -43 l 1
 380 -64 l 1
 408 -81 l 1
 437 -94 l 1
 468 -102 l 1
 500 -105 l 1
 532 -102 l 1
 562 -94 l 1
 592 -81 l 1
 619 -64 l 1
 643 -43 l 1
 664 -19 l 1
 681 8 l 1
 694 38 l 1
 702 68 l 1
 705 100 l 1
EndSplineSet
Validated: 1
EndChar

StartChar: glyph58
Encoding: 983130 983130 58
Width: 1000
VWidth: 0
Flags: W
HStem: -120 20<242 470 530 648> 279 20<281 470 530 609>
VStem: 470 60<-100 279>
LayerCount: 2
Fore
SplineSet
372 431 m 1
 376 413 l 1
 358 416 l 1
 309 452 l 1
 348 491 490 619 520 648 c 0
 544 668 567 689 590 710 c 2
 662 770 l 1
 669 763 l 1
 655 744 655 744 554 628 c 0
 550 623 419 480 390 450 c 2
 372 431 l 1
648 -100 m 1
 698 -50 l 1
 758 -100 l 1
 758 -120 l 1
 242 -120 l 1
 242 -100 l 1
 470 -100 l 1
 470 279 l 1
 281 279 l 1
 281 299 l 1
 609 299 l 1
 659 349 l 1
 719 299 l 1
 719 279 l 1
 530 279 l 1
 530 -100 l 1
 648 -100 l 1
EndSplineSet
Validated: 1
EndChar

StartChar: glyph59
Encoding: 983131 983131 59
Width: 1000
VWidth: 0
Flags: W
HStem: 280 20<242 470 530 648> 679 20<281 470 530 609>
VStem: 470 60<300 679>
LayerCount: 2
Fore
SplineSet
316 142 m 1
 314 143 l 1
 358 184 l 1
 376 188 l 1
 372 170 l 2
 375 167 581 -55 640 -126 c 2
 669 -162 l 1
 662 -169 l 1
 621 -138 600 -119 418 47 c 0
 395 68 372 89 350 110 c 2
 320 138 l 1
 316 142 l 1
648 300 m 1
 698 350 l 1
 758 300 l 1
 758 280 l 1
 242 280 l 1
 242 300 l 1
 470 300 l 1
 470 679 l 1
 281 679 l 1
 281 699 l 1
 609 699 l 1
 659 749 l 1
 719 699 l 1
 719 679 l 1
 530 679 l 1
 530 300 l 1
 648 300 l 1
EndSplineSet
Validated: 1
EndChar

StartChar: glyph60
Encoding: 983132 983132 60
Width: 1000
VWidth: 0
Flags: W
HStem: -10 20<334 556> 280 20<242 470 530 648> 679 20<281 470 530 609>
VStem: 470 60<300 679>
LayerCount: 2
Fore
SplineSet
556 10 m 1
 606 60 l 1
 666 10 l 1
 666 -10 l 1
 334 -10 l 1
 334 10 l 1
 556 10 l 1
648 300 m 1
 698 350 l 1
 758 300 l 1
 758 280 l 1
 242 280 l 1
 242 300 l 1
 470 300 l 1
 470 679 l 1
 281 679 l 1
 281 699 l 1
 609 699 l 1
 659 749 l 1
 719 699 l 1
 719 679 l 1
 530 679 l 1
 530 300 l 1
 648 300 l 1
EndSplineSet
Validated: 1
EndChar

StartChar: glyph61
Encoding: 983133 983133 61
Width: 1000
VWidth: 0
Flags: W
HStem: 280 20<242 470 530 648> 679 20<281 470 530 609>
VStem: 470 60<300 679>
LayerCount: 2
Fore
SplineSet
642 186 m 1
 684 142 l 1
 687 124 l 1
 669 128 l 1
 651 111 634 94 613 75 c 0
 611 73 469 -57 444 -78 c 0
 421 -99 398 -120 374 -140 c 2
 337 -169 l 1
 330 -162 l 1
 390 -90 l 1
 389 -91 l 1
 389 -91 400 -78 515 48 c 0
 516 49 639 179 642 186 c 1
648 300 m 1
 698 350 l 1
 758 300 l 1
 758 280 l 1
 242 280 l 1
 242 300 l 1
 470 300 l 1
 470 679 l 1
 281 679 l 1
 281 699 l 1
 609 699 l 1
 659 749 l 1
 719 699 l 1
 719 679 l 1
 530 679 l 1
 530 300 l 1
 648 300 l 1
EndSplineSet
Validated: 1
EndChar

StartChar: glyph62
Encoding: 983134 983134 62
Width: 1000
VWidth: 0
Flags: W
HStem: -120 20<242 470 530 648> 279 20<281 470 530 609>
VStem: 470 60<-100 279>
LayerCount: 2
Fore
SplineSet
648 -100 m 1
 698 -50 l 1
 758 -100 l 1
 758 -120 l 1
 242 -120 l 1
 242 -100 l 1
 470 -100 l 1
 470 279 l 1
 281 279 l 1
 281 299 l 1
 609 299 l 1
 659 349 l 1
 719 299 l 1
 719 279 l 1
 530 279 l 1
 530 -100 l 1
 648 -100 l 1
340 768 m 1
 370 753 l 1
 401 734 l 2
 423 719 444 703 465 686 c 2
 498 658 l 2
 521 635 545 613 568 590 c 0
 593 563 617 537 642 510 c 2
 680 464 l 1
 686 442 l 1
 675 422 l 1
 653 416 l 1
 633 428 l 1
 610 457 587 487 564 516 c 0
 542 542 520 568 499 594 c 0
 430 670 382 720 336 760 c 1
 340 768 l 1
EndSplineSet
Validated: 1
EndChar

StartChar: glyph63
Encoding: 983135 983135 63
Width: 1000
VWidth: 0
Flags: W
HStem: -120 20<242 470 530 648> 279 20<281 470 530 609>
VStem: 470 60<-100 279>
LayerCount: 2
Fore
SplineSet
648 -100 m 1
 698 -50 l 1
 758 -100 l 1
 758 -120 l 1
 242 -120 l 1
 242 -100 l 1
 470 -100 l 1
 470 279 l 1
 281 279 l 1
 281 299 l 1
 609 299 l 1
 659 349 l 1
 719 299 l 1
 719 279 l 1
 530 279 l 1
 530 -100 l 1
 648 -100 l 1
482 613 m 1
 412 688 371 729 336 760 c 1
 340 768 l 1
 370 753 l 1
 401 734 l 2
 423 719 444 703 465 686 c 2
 498 658 l 1
 514 642 l 1
 515 643 548 675 626 740 c 2
 662 770 l 1
 669 763 l 1
 633 715 543 616 542 615 c 1
 564 595 584 573 604 551 c 2
 642 510 l 1
 680 464 l 1
 686 442 l 1
 675 422 l 1
 653 416 l 1
 633 428 l 1
 610 457 587 487 566 513 c 0
 546 537 528 558 510 580 c 1
 509 579 418 479 390 450 c 2
 372 431 l 1
 376 413 l 1
 358 416 l 1
 309 452 l 1
 321 464 407 545 452 585 c 2
 482 613 l 1
EndSplineSet
Validated: 1
EndChar

StartChar: glyph64
Encoding: 983136 983136 64
Width: 1000
VWidth: 0
Flags: W
HStem: -120 20<242 470 530 648> 279 20<281 470 530 609> 590 20<334 556>
VStem: 470 60<-100 279>
LayerCount: 2
Fore
SplineSet
556 610 m 1
 606 660 l 1
 666 610 l 1
 666 590 l 1
 334 590 l 1
 334 610 l 1
 556 610 l 1
648 -100 m 1
 698 -50 l 1
 758 -100 l 1
 758 -120 l 1
 242 -120 l 1
 242 -100 l 1
 470 -100 l 1
 470 279 l 1
 281 279 l 1
 281 299 l 1
 609 299 l 1
 659 349 l 1
 719 299 l 1
 719 279 l 1
 530 279 l 1
 530 -100 l 1
 648 -100 l 1
EndSplineSet
Validated: 1
EndChar

StartChar: glyph65
Encoding: 983137 983137 65
Width: 1000
VWidth: 0
Flags: W
HStem: -120 20<304 682>
VStem: 244 60<-100 286> 682 60<-100 286>
LayerCount: 2
Fore
SplineSet
364 431 m 1
 368 413 l 1
 350 416 l 1
 302 452 l 1
 334 484 458 597 512 648 c 0
 536 668 559 689 582 710 c 2
 654 770 l 1
 662 763 l 1
 643 738 623 714 582 669 c 0
 581 666 447 517 382 450 c 2
 364 431 l 1
742 286 m 1
 742 -120 l 1
 682 -150 l 1
 682 -120 l 1
 304 -120 l 1
 244 -150 l 1
 244 315 l 1
 304 305 l 1
 318 295 l 1
 304 286 l 1
 304 -100 l 1
 682 -100 l 1
 682 315 l 1
 742 305 l 1
 756 295 l 1
 742 286 l 1
EndSplineSet
Validated: 1
EndChar

StartChar: glyph66
Encoding: 983138 983138 66
Width: 1000
VWidth: 0
Flags: W
HStem: 280 20<304 682>
VStem: 244 60<220 280 300 686> 682 60<250 280 300 686>
LayerCount: 2
Fore
SplineSet
308 142 m 1
 306 143 l 1
 350 184 l 1
 368 188 l 1
 364 170 l 1
 380 152 398 134 420 110 c 0
 439 90 570 -51 632 -126 c 2
 662 -162 l 1
 654 -169 l 1
 587 -118 345 107 342 110 c 2
 312 138 l 1
 308 142 l 1
742 686 m 1
 742 250 l 1
 682 220 l 1
 682 280 l 1
 304 280 l 1
 304 220 l 1
 244 190 l 1
 244 715 l 1
 304 705 l 1
 318 695 l 1
 304 686 l 1
 304 300 l 1
 682 300 l 1
 682 715 l 1
 742 705 l 1
 756 695 l 1
 742 686 l 1
EndSplineSet
Validated: 1
EndChar

StartChar: glyph67
Encoding: 983139 983139 67
Width: 1000
VWidth: 0
Flags: W
HStem: -10 20<326 548> 280 20<304 682>
VStem: 244 60<220 280 300 686> 682 60<250 280 300 686>
LayerCount: 2
Fore
SplineSet
548 10 m 1
 598 60 l 1
 658 10 l 1
 658 -10 l 1
 326 -10 l 1
 326 10 l 1
 548 10 l 1
742 686 m 1
 742 250 l 1
 682 220 l 1
 682 280 l 1
 304 280 l 1
 304 220 l 1
 244 190 l 1
 244 715 l 1
 304 705 l 1
 318 695 l 1
 304 686 l 1
 304 300 l 1
 682 300 l 1
 682 715 l 1
 742 705 l 1
 756 695 l 1
 742 686 l 1
EndSplineSet
Validated: 1
EndChar

StartChar: glyph68
Encoding: 983140 983140 68
Width: 1000
VWidth: 0
Flags: W
HStem: 280 20<304 682>
VStem: 244 60<220 280 300 686> 682 60<250 280 300 686>
LayerCount: 2
Fore
SplineSet
634 186 m 1
 676 142 l 1
 680 124 l 1
 662 128 l 1
 618 87 420 -95 366 -140 c 2
 330 -169 l 1
 322 -162 l 1
 382 -90 l 2
 403 -67 424 -44 444 -20 c 0
 446 -18 629 177 634 186 c 1
742 686 m 1
 742 250 l 1
 682 220 l 1
 682 280 l 1
 304 280 l 1
 304 220 l 1
 244 190 l 1
 244 715 l 1
 304 705 l 1
 318 695 l 1
 304 686 l 1
 304 300 l 1
 682 300 l 1
 682 715 l 1
 742 705 l 1
 756 695 l 1
 742 686 l 1
EndSplineSet
Validated: 1
EndChar

StartChar: glyph69
Encoding: 983141 983141 69
Width: 1000
VWidth: 0
Flags: W
HStem: -120 20<304 682>
VStem: 244 60<-100 286> 682 60<-100 286>
LayerCount: 2
Fore
SplineSet
742 286 m 1
 742 -120 l 1
 682 -150 l 1
 682 -120 l 1
 304 -120 l 1
 244 -150 l 1
 244 315 l 1
 304 305 l 1
 318 295 l 1
 304 286 l 1
 304 -100 l 1
 682 -100 l 1
 682 315 l 1
 742 305 l 1
 756 295 l 1
 742 286 l 1
332 768 m 1
 362 753 l 1
 394 734 l 2
 416 719 437 703 458 686 c 2
 490 658 l 2
 513 635 537 613 560 590 c 0
 585 563 609 537 634 510 c 2
 672 464 l 1
 678 442 l 1
 668 422 l 1
 646 416 l 1
 626 428 l 1
 603 457 579 487 556 516 c 0
 534 542 513 568 492 594 c 0
 468 621 392 703 328 760 c 1
 332 768 l 1
EndSplineSet
Validated: 1
EndChar

StartChar: glyph70
Encoding: 983142 983142 70
Width: 1000
VWidth: 0
Flags: W
HStem: -120 20<304 682>
VStem: 244 60<-100 286> 682 60<-100 286>
LayerCount: 2
Fore
SplineSet
742 286 m 1
 742 -120 l 1
 682 -150 l 1
 682 -120 l 1
 304 -120 l 1
 244 -150 l 1
 244 315 l 1
 304 305 l 1
 318 295 l 1
 304 286 l 1
 304 -100 l 1
 682 -100 l 1
 682 315 l 1
 742 305 l 1
 756 295 l 1
 742 286 l 1
474 613 m 1
 405 687 378 716 328 760 c 1
 332 768 l 1
 362 753 l 1
 394 734 l 2
 416 719 437 703 458 686 c 2
 490 658 l 1
 506 642 l 1
 520 656 617 739 618 740 c 2
 654 770 l 1
 662 763 l 1
 634 726 535 616 534 615 c 1
 556 595 576 573 596 551 c 2
 634 510 l 1
 672 464 l 1
 678 442 l 1
 668 422 l 1
 646 416 l 1
 626 428 l 1
 603 457 579 487 558 513 c 0
 538 537 520 558 502 580 c 1
 501 579 410 479 382 450 c 2
 364 431 l 1
 368 413 l 1
 350 416 l 1
 302 452 l 1
 303 453 403 548 444 585 c 2
 474 613 l 1
EndSplineSet
Validated: 1
EndChar

StartChar: glyph71
Encoding: 983143 983143 71
Width: 1000
VWidth: 0
Flags: W
HStem: -120 20<304 682> 590 20<326 548>
VStem: 244 60<-100 286> 682 60<-100 286>
LayerCount: 2
Fore
SplineSet
548 610 m 1
 598 660 l 1
 658 610 l 1
 658 590 l 1
 326 590 l 1
 326 610 l 1
 548 610 l 1
742 286 m 1
 742 -120 l 1
 682 -150 l 1
 682 -120 l 1
 304 -120 l 1
 244 -150 l 1
 244 315 l 1
 304 305 l 1
 318 295 l 1
 304 286 l 1
 304 -100 l 1
 682 -100 l 1
 682 315 l 1
 742 305 l 1
 756 295 l 1
 742 286 l 1
EndSplineSet
Validated: 1
EndChar

StartChar: glyph72
Encoding: 983144 983144 72
Width: 1000
VWidth: 0
Flags: W
HStem: -120 20<424 574> 153 20<256 364 424 574 634 654>
VStem: 364 60<-100 153 173 307> 574 60<-100 153 173 307>
LayerCount: 2
Fore
SplineSet
370 431 m 1
 374 413 l 1
 356 416 l 1
 308 452 l 1
 340 484 464 597 518 648 c 0
 542 668 565 689 588 710 c 2
 660 770 l 1
 668 763 l 1
 649 738 629 714 588 669 c 0
 587 666 453 517 388 450 c 2
 370 431 l 1
574 153 m 1
 424 153 l 1
 424 -100 l 1
 574 -100 l 1
 574 153 l 1
654 173 m 1
 694 218 l 1
 744 173 l 1
 744 153 l 1
 634 153 l 1
 634 -120 l 1
 574 -150 l 1
 574 -120 l 1
 424 -120 l 1
 364 -150 l 1
 364 153 l 1
 256 153 l 1
 256 173 l 1
 364 173 l 1
 364 336 l 1
 424 326 l 1
 438 316 l 1
 424 307 l 1
 424 173 l 1
 574 173 l 1
 574 336 l 1
 634 326 l 1
 648 316 l 1
 634 307 l 1
 634 173 l 1
 654 173 l 1
EndSplineSet
Validated: 1
EndChar

StartChar: glyph73
Encoding: 983145 983145 73
Width: 1000
VWidth: 0
Flags: W
HStem: 280 20<424 574> 553 20<256 364 424 574 634 654>
VStem: 364 60<245 280 300 553 573 707> 574 60<250 280 300 553 573 707>
LayerCount: 2
Fore
SplineSet
314 142 m 1
 312 143 l 1
 356 184 l 1
 374 188 l 1
 370 170 l 1
 386 152 404 134 426 110 c 0
 445 90 576 -51 638 -126 c 2
 668 -162 l 1
 660 -169 l 1
 593 -118 351 107 348 110 c 2
 318 138 l 1
 314 142 l 1
574 553 m 1
 424 553 l 1
 424 300 l 1
 574 300 l 1
 574 553 l 1
654 573 m 1
 694 618 l 1
 744 573 l 1
 744 553 l 1
 634 553 l 1
 634 250 l 1
 574 220 l 1
 574 280 l 1
 424 280 l 1
 424 245 l 1
 364 215 l 1
 364 553 l 1
 256 553 l 1
 256 573 l 1
 364 573 l 1
 364 736 l 1
 424 726 l 1
 438 716 l 1
 424 707 l 1
 424 573 l 1
 574 573 l 1
 574 736 l 1
 634 726 l 1
 648 716 l 1
 634 707 l 1
 634 573 l 1
 654 573 l 1
EndSplineSet
Validated: 1
EndChar

StartChar: glyph74
Encoding: 983146 983146 74
Width: 1000
VWidth: 0
Flags: W
HStem: -10 20<332 554> 280 20<424 574> 553 20<256 364 424 574 634 654>
VStem: 364 60<220 280 300 553 573 707> 574 60<250 280 300 553 573 707>
LayerCount: 2
Fore
SplineSet
554 10 m 1
 604 60 l 1
 664 10 l 1
 664 -10 l 1
 332 -10 l 1
 332 10 l 1
 554 10 l 1
574 553 m 1
 424 553 l 1
 424 300 l 1
 574 300 l 1
 574 553 l 1
654 573 m 1
 694 618 l 1
 744 573 l 1
 744 553 l 1
 634 553 l 1
 634 250 l 1
 574 220 l 1
 574 280 l 1
 424 280 l 1
 424 220 l 1
 364 190 l 1
 364 553 l 1
 256 553 l 1
 256 573 l 1
 364 573 l 1
 364 736 l 1
 424 726 l 1
 438 716 l 1
 424 707 l 1
 424 573 l 1
 574 573 l 1
 574 736 l 1
 634 726 l 1
 648 716 l 1
 634 707 l 1
 634 573 l 1
 654 573 l 1
EndSplineSet
Validated: 1
EndChar

StartChar: glyph75
Encoding: 983147 983147 75
Width: 1000
VWidth: 0
Flags: W
HStem: 280 20<424 574> 553 20<256 364 424 574 634 654>
VStem: 364 60<220 280 300 553 573 707> 574 60<260 280 300 553 573 707>
LayerCount: 2
Fore
SplineSet
640 186 m 1
 682 142 l 1
 686 124 l 1
 668 128 l 1
 624 87 426 -95 372 -140 c 2
 336 -169 l 1
 328 -162 l 1
 388 -90 l 2
 409 -67 430 -44 450 -20 c 0
 452 -18 635 177 640 186 c 1
574 553 m 1
 424 553 l 1
 424 300 l 1
 574 300 l 1
 574 553 l 1
654 573 m 1
 694 618 l 1
 744 573 l 1
 744 553 l 1
 634 553 l 1
 634 260 l 1
 574 230 l 1
 574 280 l 1
 424 280 l 1
 424 220 l 1
 364 190 l 1
 364 553 l 1
 256 553 l 1
 256 573 l 1
 364 573 l 1
 364 736 l 1
 424 726 l 1
 438 716 l 1
 424 707 l 1
 424 573 l 1
 574 573 l 1
 574 736 l 1
 634 726 l 1
 648 716 l 1
 634 707 l 1
 634 573 l 1
 654 573 l 1
EndSplineSet
Validated: 1
EndChar

StartChar: glyph76
Encoding: 983148 983148 76
Width: 1000
VWidth: 0
Flags: W
HStem: -120 20<424 574> 153 20<256 364 424 574 634 654>
VStem: 364 60<-100 153 173 307> 574 60<-100 153 173 307>
LayerCount: 2
Fore
SplineSet
574 153 m 1
 424 153 l 1
 424 -100 l 1
 574 -100 l 1
 574 153 l 1
654 173 m 1
 694 218 l 1
 744 173 l 1
 744 153 l 1
 634 153 l 1
 634 -120 l 1
 574 -150 l 1
 574 -120 l 1
 424 -120 l 1
 364 -150 l 1
 364 153 l 1
 256 153 l 1
 256 173 l 1
 364 173 l 1
 364 336 l 1
 424 326 l 1
 438 316 l 1
 424 307 l 1
 424 173 l 1
 574 173 l 1
 574 336 l 1
 634 326 l 1
 648 316 l 1
 634 307 l 1
 634 173 l 1
 654 173 l 1
338 768 m 1
 368 753 l 1
 400 734 l 2
 422 719 443 703 464 686 c 2
 496 658 l 2
 519 635 543 613 566 590 c 0
 591 563 615 537 640 510 c 2
 678 464 l 1
 684 442 l 1
 674 422 l 1
 652 416 l 1
 632 428 l 1
 609 457 585 487 562 516 c 0
 540 542 519 568 498 594 c 0
 474 621 398 703 334 760 c 1
 338 768 l 1
EndSplineSet
Validated: 1
EndChar

StartChar: glyph77
Encoding: 983149 983149 77
Width: 1000
VWidth: 0
Flags: W
HStem: -120 20<424 574> 153 20<256 364 424 574 634 654>
VStem: 364 60<-100 153 173 307> 574 60<-100 153 173 307>
LayerCount: 2
Fore
SplineSet
574 153 m 1
 424 153 l 1
 424 -100 l 1
 574 -100 l 1
 574 153 l 1
654 173 m 1
 694 218 l 1
 744 173 l 1
 744 153 l 1
 634 153 l 1
 634 -120 l 1
 574 -150 l 1
 574 -120 l 1
 424 -120 l 1
 364 -150 l 1
 364 153 l 1
 256 153 l 1
 256 173 l 1
 364 173 l 1
 364 336 l 1
 424 326 l 1
 438 316 l 1
 424 307 l 1
 424 173 l 1
 574 173 l 1
 574 336 l 1
 634 326 l 1
 648 316 l 1
 634 307 l 1
 634 173 l 1
 654 173 l 1
480 613 m 1
 411 687 384 716 334 760 c 1
 338 768 l 1
 368 753 l 1
 400 734 l 2
 422 719 443 703 464 686 c 2
 496 658 l 1
 512 642 l 1
 526 656 623 739 624 740 c 2
 660 770 l 1
 668 763 l 1
 640 726 541 616 540 615 c 1
 562 595 582 573 602 551 c 2
 640 510 l 1
 678 464 l 1
 684 442 l 1
 674 422 l 1
 652 416 l 1
 632 428 l 1
 609 457 585 487 564 513 c 0
 544 537 526 558 508 580 c 1
 507 579 416 479 388 450 c 2
 370 431 l 1
 374 413 l 1
 356 416 l 1
 308 452 l 1
 309 453 409 548 450 585 c 2
 480 613 l 1
EndSplineSet
Validated: 1
EndChar

StartChar: glyph78
Encoding: 983150 983150 78
Width: 1000
VWidth: 0
Flags: W
HStem: -120 20<424 574> 153 20<256 364 424 574 634 654> 590 20<332 554>
VStem: 364 60<-100 153 173 307> 574 60<-100 153 173 307>
LayerCount: 2
Fore
SplineSet
554 610 m 1
 604 660 l 1
 664 610 l 1
 664 590 l 1
 332 590 l 1
 332 610 l 1
 554 610 l 1
574 153 m 1
 424 153 l 1
 424 -100 l 1
 574 -100 l 1
 574 153 l 1
654 173 m 1
 694 218 l 1
 744 173 l 1
 744 153 l 1
 634 153 l 1
 634 -120 l 1
 574 -150 l 1
 574 -120 l 1
 424 -120 l 1
 364 -150 l 1
 364 153 l 1
 256 153 l 1
 256 173 l 1
 364 173 l 1
 364 336 l 1
 424 326 l 1
 438 316 l 1
 424 307 l 1
 424 173 l 1
 574 173 l 1
 574 336 l 1
 634 326 l 1
 648 316 l 1
 634 307 l 1
 634 173 l 1
 654 173 l 1
EndSplineSet
Validated: 1
EndChar

StartChar: glyph79
Encoding: 983151 983151 79
Width: 1000
VWidth: 0
Flags: W
LayerCount: 2
Fore
SplineSet
358 431 m 1
 362 413 l 1
 344 416 l 1
 295 452 l 1
 334 491 476 619 506 648 c 0
 530 668 553 689 576 710 c 2
 648 770 l 1
 655 763 l 1
 641 744 641 744 540 628 c 0
 536 623 405 480 376 450 c 2
 358 431 l 1
711 -164 m 1
 665 -134 l 1
 624 -100 l 1
 588 -62 l 1
 559 -18 l 1
 534 30 l 1
 516 83 l 1
 502 140 l 1
 498 173 l 1
 488 128 l 1
 467 68 l 1
 442 15 l 1
 410 -32 l 1
 374 -74 l 1
 333 -108 l 1
 286 -136 l 1
 236 -156 l 1
 232 -148 l 1
 277 -120 l 1
 316 -87 l 1
 350 -51 l 1
 380 -10 l 1
 404 34 l 1
 424 84 l 1
 438 140 l 1
 449 200 l 1
 455 266 l 1
 456 338 l 1
 456 350 l 1
 516 338 l 1
 531 328 l 1
 515 318 l 1
 512 274 l 1
 524 205 l 1
 538 148 l 1
 555 96 l 1
 576 50 l 1
 602 10 l 1
 631 -26 l 1
 664 -56 l 1
 700 -82 l 1
 740 -104 l 1
 768 -118 l 1
 711 -164 l 1
EndSplineSet
Validated: 1
EndChar

StartChar: glyph80
Encoding: 983152 983152 80
Width: 1000
VWidth: 0
Flags: W
LayerCount: 2
Fore
SplineSet
302 142 m 1
 300 143 l 1
 344 184 l 1
 362 188 l 1
 358 170 l 2
 361 167 567 -55 626 -126 c 2
 655 -162 l 1
 648 -169 l 1
 607 -138 586 -119 404 47 c 0
 381 68 358 89 336 110 c 2
 306 138 l 1
 302 142 l 1
711 236 m 1
 665 266 l 1
 624 300 l 1
 588 338 l 1
 559 382 l 1
 534 430 l 1
 516 483 l 1
 502 540 l 1
 498 573 l 1
 488 528 l 1
 467 468 l 1
 442 415 l 1
 410 368 l 1
 374 326 l 1
 333 292 l 1
 286 264 l 1
 236 244 l 1
 232 252 l 1
 277 280 l 1
 316 313 l 1
 350 349 l 1
 380 390 l 1
 404 434 l 1
 424 484 l 1
 438 540 l 1
 449 600 l 1
 455 666 l 1
 456 738 l 1
 456 750 l 1
 516 738 l 1
 531 728 l 1
 515 718 l 1
 512 674 l 1
 524 605 l 1
 538 548 l 1
 555 496 l 1
 576 450 l 1
 602 410 l 1
 631 374 l 1
 664 344 l 1
 700 318 l 1
 740 296 l 1
 768 282 l 1
 711 236 l 1
EndSplineSet
Validated: 1
EndChar

StartChar: glyph81
Encoding: 983153 983153 81
Width: 1000
VWidth: 0
Flags: W
HStem: -10 20<320 542>
LayerCount: 2
Fore
SplineSet
542 10 m 1
 592 60 l 1
 652 10 l 1
 652 -10 l 1
 320 -10 l 1
 320 10 l 1
 542 10 l 1
711 236 m 1
 665 266 l 1
 624 300 l 1
 588 338 l 1
 559 382 l 1
 534 430 l 1
 516 483 l 1
 502 540 l 1
 498 573 l 1
 488 528 l 1
 467 468 l 1
 442 415 l 1
 410 368 l 1
 374 326 l 1
 333 292 l 1
 286 264 l 1
 236 244 l 1
 232 252 l 1
 277 280 l 1
 316 313 l 1
 350 349 l 1
 380 390 l 1
 404 434 l 1
 424 484 l 1
 438 540 l 1
 449 600 l 1
 455 666 l 1
 456 738 l 1
 456 750 l 1
 516 738 l 1
 531 728 l 1
 515 718 l 1
 512 674 l 1
 524 605 l 1
 538 548 l 1
 555 496 l 1
 576 450 l 1
 602 410 l 1
 631 374 l 1
 664 344 l 1
 700 318 l 1
 740 296 l 1
 768 282 l 1
 711 236 l 1
EndSplineSet
Validated: 1
EndChar

StartChar: glyph82
Encoding: 983154 983154 82
Width: 1000
VWidth: 0
Flags: W
LayerCount: 2
Fore
SplineSet
628 186 m 1
 670 142 l 1
 673 124 l 1
 655 128 l 1
 637 111 620 94 599 75 c 0
 597 73 455 -57 430 -78 c 0
 407 -99 384 -120 360 -140 c 2
 323 -169 l 1
 316 -162 l 1
 376 -90 l 1
 375 -91 l 1
 375 -91 386 -78 501 48 c 0
 502 49 625 179 628 186 c 1
711 236 m 1
 665 266 l 1
 624 300 l 1
 588 338 l 1
 559 382 l 1
 534 430 l 1
 516 483 l 1
 502 540 l 1
 498 573 l 1
 488 528 l 1
 467 468 l 1
 442 415 l 1
 410 368 l 1
 374 326 l 1
 333 292 l 1
 286 264 l 1
 236 244 l 1
 232 252 l 1
 277 280 l 1
 316 313 l 1
 350 349 l 1
 380 390 l 1
 404 434 l 1
 424 484 l 1
 438 540 l 1
 449 600 l 1
 455 666 l 1
 456 738 l 1
 456 750 l 1
 516 738 l 1
 531 728 l 1
 515 718 l 1
 512 674 l 1
 524 605 l 1
 538 548 l 1
 555 496 l 1
 576 450 l 1
 602 410 l 1
 631 374 l 1
 664 344 l 1
 700 318 l 1
 740 296 l 1
 768 282 l 1
 711 236 l 1
EndSplineSet
Validated: 1
EndChar

StartChar: glyph83
Encoding: 983155 983155 83
Width: 1000
VWidth: 0
Flags: W
LayerCount: 2
Fore
SplineSet
711 -164 m 1
 665 -134 l 1
 624 -100 l 1
 588 -62 l 1
 559 -18 l 1
 534 30 l 1
 516 83 l 1
 502 140 l 1
 498 173 l 1
 488 128 l 1
 467 68 l 1
 442 15 l 1
 410 -32 l 1
 374 -74 l 1
 333 -108 l 1
 286 -136 l 1
 236 -156 l 1
 232 -148 l 1
 277 -120 l 1
 316 -87 l 1
 350 -51 l 1
 380 -10 l 1
 404 34 l 1
 424 84 l 1
 438 140 l 1
 449 200 l 1
 455 266 l 1
 456 338 l 1
 456 350 l 1
 516 338 l 1
 531 328 l 1
 515 318 l 1
 512 274 l 1
 524 205 l 1
 538 148 l 1
 555 96 l 1
 576 50 l 1
 602 10 l 1
 631 -26 l 1
 664 -56 l 1
 700 -82 l 1
 740 -104 l 1
 768 -118 l 1
 711 -164 l 1
326 768 m 1
 356 753 l 1
 387 734 l 2
 409 719 430 703 451 686 c 2
 484 658 l 2
 507 635 531 613 554 590 c 0
 579 563 603 537 628 510 c 2
 666 464 l 1
 672 442 l 1
 661 422 l 1
 639 416 l 1
 619 428 l 1
 596 457 573 487 550 516 c 0
 528 542 506 568 485 594 c 0
 416 670 368 720 322 760 c 1
 326 768 l 1
EndSplineSet
Validated: 1
EndChar

StartChar: glyph84
Encoding: 983156 983156 84
Width: 1000
VWidth: 0
Flags: W
LayerCount: 2
Fore
SplineSet
711 -164 m 1
 665 -134 l 1
 624 -100 l 1
 588 -62 l 1
 559 -18 l 1
 534 30 l 1
 516 83 l 1
 502 140 l 1
 498 173 l 1
 488 128 l 1
 467 68 l 1
 442 15 l 1
 410 -32 l 1
 374 -74 l 1
 333 -108 l 1
 286 -136 l 1
 236 -156 l 1
 232 -148 l 1
 277 -120 l 1
 316 -87 l 1
 350 -51 l 1
 380 -10 l 1
 404 34 l 1
 424 84 l 1
 438 140 l 1
 449 200 l 1
 455 266 l 1
 456 338 l 1
 456 350 l 1
 516 338 l 1
 531 328 l 1
 515 318 l 1
 512 274 l 1
 524 205 l 1
 538 148 l 1
 555 96 l 1
 576 50 l 1
 602 10 l 1
 631 -26 l 1
 664 -56 l 1
 700 -82 l 1
 740 -104 l 1
 768 -118 l 1
 711 -164 l 1
468 613 m 1
 398 688 357 729 322 760 c 1
 326 768 l 1
 356 753 l 1
 387 734 l 2
 409 719 430 703 451 686 c 2
 484 658 l 1
 500 642 l 1
 501 643 534 675 612 740 c 2
 648 770 l 1
 655 763 l 1
 619 715 529 616 528 615 c 1
 550 595 570 573 590 551 c 2
 628 510 l 1
 666 464 l 1
 672 442 l 1
 661 422 l 1
 639 416 l 1
 619 428 l 1
 596 457 573 487 552 513 c 0
 532 537 514 558 496 580 c 1
 495 579 404 479 376 450 c 2
 358 431 l 1
 362 413 l 1
 344 416 l 1
 295 452 l 1
 307 464 393 545 438 585 c 2
 468 613 l 1
EndSplineSet
Validated: 1
EndChar

StartChar: glyph85
Encoding: 983157 983157 85
Width: 1000
VWidth: 0
Flags: W
HStem: 590 20<320 542>
LayerCount: 2
Fore
SplineSet
542 610 m 1
 592 660 l 1
 652 610 l 1
 652 590 l 1
 320 590 l 1
 320 610 l 1
 542 610 l 1
711 -164 m 1
 665 -134 l 1
 624 -100 l 1
 588 -62 l 1
 559 -18 l 1
 534 30 l 1
 516 83 l 1
 502 140 l 1
 498 173 l 1
 488 128 l 1
 467 68 l 1
 442 15 l 1
 410 -32 l 1
 374 -74 l 1
 333 -108 l 1
 286 -136 l 1
 236 -156 l 1
 232 -148 l 1
 277 -120 l 1
 316 -87 l 1
 350 -51 l 1
 380 -10 l 1
 404 34 l 1
 424 84 l 1
 438 140 l 1
 449 200 l 1
 455 266 l 1
 456 338 l 1
 456 350 l 1
 516 338 l 1
 531 328 l 1
 515 318 l 1
 512 274 l 1
 524 205 l 1
 538 148 l 1
 555 96 l 1
 576 50 l 1
 602 10 l 1
 631 -26 l 1
 664 -56 l 1
 700 -82 l 1
 740 -104 l 1
 768 -118 l 1
 711 -164 l 1
EndSplineSet
Validated: 1
EndChar

StartChar: glyph86
Encoding: 983158 983158 86
Width: 1000
VWidth: 0
Flags: W
HStem: 171 20<245 460 520 633>
VStem: 464 60<191 328>
LayerCount: 2
Fore
SplineSet
366 431 m 1
 370 413 l 1
 352 416 l 1
 303 452 l 1
 342 491 484 619 514 648 c 0
 538 668 561 689 584 710 c 2
 656 770 l 1
 663 763 l 1
 649 744 649 744 548 628 c 0
 544 623 413 480 384 450 c 2
 366 431 l 1
710 -160 m 1
 674 -138 l 1
 642 -113 l 1
 612 -86 l 1
 586 -55 l 1
 564 -22 l 1
 544 13 l 1
 528 50 l 1
 516 90 l 1
 509 129 l 1
 494 78 l 1
 474 28 l 1
 447 -16 l 1
 416 -56 l 1
 378 -90 l 1
 336 -119 l 1
 289 -142 l 1
 238 -159 l 1
 234 -150 l 1
 280 -125 l 1
 321 -96 l 1
 356 -66 l 1
 386 -31 l 1
 412 6 l 1
 432 48 l 1
 446 93 l 1
 457 142 l 1
 460 171 l 1
 245 171 l 1
 245 191 l 1
 462 191 l 1
 463 196 l 1
 464 253 l 1
 464 357 l 1
 524 347 l 1
 539 337 l 1
 524 328 l 1
 524 253 l 1
 520 191 l 1
 633 191 l 1
 683 241 l 1
 743 191 l 1
 743 171 l 1
 516 171 l 1
 528 137 l 1
 544 100 l 2
 555 77 567 55 580 33 c 2
 602 4 l 1
 624 -22 l 1
 650 -46 l 1
 678 -66 l 1
 708 -85 l 2
 727 -95 746 -105 766 -115 c 1
 710 -160 l 1
EndSplineSet
Validated: 1
EndChar

StartChar: glyph87
Encoding: 983159 983159 87
Width: 1000
VWidth: 0
Flags: W
HStem: 571 20<245 460 520 633>
VStem: 464 60<591 728>
LayerCount: 2
Fore
SplineSet
310 142 m 1
 308 143 l 1
 352 184 l 1
 370 188 l 1
 366 170 l 2
 369 167 575 -55 634 -126 c 2
 663 -162 l 1
 656 -169 l 1
 615 -138 594 -119 412 47 c 0
 389 68 366 89 344 110 c 2
 314 138 l 1
 310 142 l 1
710 240 m 1
 674 262 l 1
 642 287 l 1
 612 314 l 1
 586 345 l 1
 564 378 l 1
 544 413 l 1
 528 450 l 1
 516 490 l 1
 509 529 l 1
 494 478 l 1
 474 428 l 1
 447 384 l 1
 416 344 l 1
 378 310 l 1
 336 281 l 1
 289 258 l 1
 238 241 l 1
 234 250 l 1
 280 275 l 1
 321 304 l 1
 356 334 l 1
 386 369 l 1
 412 406 l 1
 432 448 l 1
 446 493 l 1
 457 542 l 1
 460 571 l 1
 245 571 l 1
 245 591 l 1
 462 591 l 1
 463 596 l 1
 464 653 l 1
 464 757 l 1
 524 747 l 1
 539 737 l 1
 524 728 l 1
 524 653 l 1
 520 591 l 1
 633 591 l 1
 683 641 l 1
 743 591 l 1
 743 571 l 1
 516 571 l 1
 528 537 l 1
 544 500 l 2
 555 477 567 455 580 433 c 2
 602 404 l 1
 624 378 l 1
 650 354 l 1
 678 334 l 1
 708 315 l 2
 727 305 746 295 766 285 c 1
 710 240 l 1
EndSplineSet
Validated: 1
EndChar

StartChar: glyph88
Encoding: 983160 983160 88
Width: 1000
VWidth: 0
Flags: W
HStem: -10 20<328 550> 571 20<245 460 520 633>
VStem: 464 60<591 728>
LayerCount: 2
Fore
SplineSet
550 10 m 1
 600 60 l 1
 660 10 l 1
 660 -10 l 1
 328 -10 l 1
 328 10 l 1
 550 10 l 1
710 240 m 1
 674 262 l 1
 642 287 l 1
 612 314 l 1
 586 345 l 1
 564 378 l 1
 544 413 l 1
 528 450 l 1
 516 490 l 1
 509 529 l 1
 494 478 l 1
 474 428 l 1
 447 384 l 1
 416 344 l 1
 378 310 l 1
 336 281 l 1
 289 258 l 1
 238 241 l 1
 234 250 l 1
 280 275 l 1
 321 304 l 1
 356 334 l 1
 386 369 l 1
 412 406 l 1
 432 448 l 1
 446 493 l 1
 457 542 l 1
 460 571 l 1
 245 571 l 1
 245 591 l 1
 462 591 l 1
 463 596 l 1
 464 653 l 1
 464 757 l 1
 524 747 l 1
 539 737 l 1
 524 728 l 1
 524 653 l 1
 520 591 l 1
 633 591 l 1
 683 641 l 1
 743 591 l 1
 743 571 l 1
 516 571 l 1
 528 537 l 1
 544 500 l 2
 555 477 567 455 580 433 c 2
 602 404 l 1
 624 378 l 1
 650 354 l 1
 678 334 l 1
 708 315 l 2
 727 305 746 295 766 285 c 1
 710 240 l 1
EndSplineSet
Validated: 1
EndChar

StartChar: glyph89
Encoding: 983161 983161 89
Width: 1000
VWidth: 0
Flags: W
HStem: 571 20<245 460 520 633>
VStem: 464 60<591 728>
LayerCount: 2
Fore
SplineSet
636 186 m 1
 678 142 l 1
 681 124 l 1
 663 128 l 1
 645 111 628 94 607 75 c 0
 605 73 463 -57 438 -78 c 0
 415 -99 392 -120 368 -140 c 2
 331 -169 l 1
 324 -162 l 1
 384 -90 l 1
 383 -91 l 1
 383 -91 394 -78 509 48 c 0
 510 49 633 179 636 186 c 1
710 240 m 1
 674 262 l 1
 642 287 l 1
 612 314 l 1
 586 345 l 1
 564 378 l 1
 544 413 l 1
 528 450 l 1
 516 490 l 1
 509 529 l 1
 494 478 l 1
 474 428 l 1
 447 384 l 1
 416 344 l 1
 378 310 l 1
 336 281 l 1
 289 258 l 1
 238 241 l 1
 234 250 l 1
 280 275 l 1
 321 304 l 1
 356 334 l 1
 386 369 l 1
 412 406 l 1
 432 448 l 1
 446 493 l 1
 457 542 l 1
 460 571 l 1
 245 571 l 1
 245 591 l 1
 462 591 l 1
 463 596 l 1
 464 653 l 1
 464 757 l 1
 524 747 l 1
 539 737 l 1
 524 728 l 1
 524 653 l 1
 520 591 l 1
 633 591 l 1
 683 641 l 1
 743 591 l 1
 743 571 l 1
 516 571 l 1
 528 537 l 1
 544 500 l 2
 555 477 567 455 580 433 c 2
 602 404 l 1
 624 378 l 1
 650 354 l 1
 678 334 l 1
 708 315 l 2
 727 305 746 295 766 285 c 1
 710 240 l 1
EndSplineSet
Validated: 1
EndChar

StartChar: glyph90
Encoding: 983162 983162 90
Width: 1000
VWidth: 0
Flags: W
HStem: 171 20<245 460 520 633>
VStem: 464 60<191 328>
LayerCount: 2
Fore
SplineSet
710 -160 m 1
 674 -138 l 1
 642 -113 l 1
 612 -86 l 1
 586 -55 l 1
 564 -22 l 1
 544 13 l 1
 528 50 l 1
 516 90 l 1
 509 129 l 1
 494 78 l 1
 474 28 l 1
 447 -16 l 1
 416 -56 l 1
 378 -90 l 1
 336 -119 l 1
 289 -142 l 1
 238 -159 l 1
 234 -150 l 1
 280 -125 l 1
 321 -96 l 1
 356 -66 l 1
 386 -31 l 1
 412 6 l 1
 432 48 l 1
 446 93 l 1
 457 142 l 1
 460 171 l 1
 245 171 l 1
 245 191 l 1
 462 191 l 1
 463 196 l 1
 464 253 l 1
 464 357 l 1
 524 347 l 1
 539 337 l 1
 524 328 l 1
 524 253 l 1
 520 191 l 1
 633 191 l 1
 683 241 l 1
 743 191 l 1
 743 171 l 1
 516 171 l 1
 528 137 l 1
 544 100 l 2
 555 77 567 55 580 33 c 2
 602 4 l 1
 624 -22 l 1
 650 -46 l 1
 678 -66 l 1
 708 -85 l 2
 727 -95 746 -105 766 -115 c 1
 710 -160 l 1
334 768 m 1
 364 753 l 1
 395 734 l 2
 417 719 438 703 459 686 c 2
 492 658 l 2
 515 635 539 613 562 590 c 0
 587 563 611 537 636 510 c 2
 674 464 l 1
 680 442 l 1
 669 422 l 1
 647 416 l 1
 627 428 l 1
 604 457 581 487 558 516 c 0
 536 542 514 568 493 594 c 0
 424 670 376 720 330 760 c 1
 334 768 l 1
EndSplineSet
Validated: 1
EndChar

StartChar: glyph91
Encoding: 983163 983163 91
Width: 1000
VWidth: 0
Flags: W
HStem: 171 20<245 460 520 633>
VStem: 464 60<191 328>
LayerCount: 2
Fore
SplineSet
710 -160 m 1
 674 -138 l 1
 642 -113 l 1
 612 -86 l 1
 586 -55 l 1
 564 -22 l 1
 544 13 l 1
 528 50 l 1
 516 90 l 1
 509 129 l 1
 494 78 l 1
 474 28 l 1
 447 -16 l 1
 416 -56 l 1
 378 -90 l 1
 336 -119 l 1
 289 -142 l 1
 238 -159 l 1
 234 -150 l 1
 280 -125 l 1
 321 -96 l 1
 356 -66 l 1
 386 -31 l 1
 412 6 l 1
 432 48 l 1
 446 93 l 1
 457 142 l 1
 460 171 l 1
 245 171 l 1
 245 191 l 1
 462 191 l 1
 463 196 l 1
 464 253 l 1
 464 357 l 1
 524 347 l 1
 539 337 l 1
 524 328 l 1
 524 253 l 1
 520 191 l 1
 633 191 l 1
 683 241 l 1
 743 191 l 1
 743 171 l 1
 516 171 l 1
 528 137 l 1
 544 100 l 2
 555 77 567 55 580 33 c 2
 602 4 l 1
 624 -22 l 1
 650 -46 l 1
 678 -66 l 1
 708 -85 l 2
 727 -95 746 -105 766 -115 c 1
 710 -160 l 1
476 613 m 1
 406 688 365 729 330 760 c 1
 334 768 l 1
 364 753 l 1
 395 734 l 2
 417 719 438 703 459 686 c 2
 492 658 l 1
 508 642 l 1
 509 643 542 675 620 740 c 2
 656 770 l 1
 663 763 l 1
 627 715 537 616 536 615 c 1
 558 595 578 573 598 551 c 2
 636 510 l 1
 674 464 l 1
 680 442 l 1
 669 422 l 1
 647 416 l 1
 627 428 l 1
 604 457 581 487 560 513 c 0
 540 537 522 558 504 580 c 1
 503 579 412 479 384 450 c 2
 366 431 l 1
 370 413 l 1
 352 416 l 1
 303 452 l 1
 315 464 401 545 446 585 c 2
 476 613 l 1
EndSplineSet
Validated: 1
EndChar

StartChar: glyph92
Encoding: 983164 983164 92
Width: 1000
VWidth: 0
Flags: W
HStem: 171 20<245 460 520 633> 590 20<328 550>
VStem: 464 60<191 328>
LayerCount: 2
Fore
SplineSet
550 610 m 1
 600 660 l 1
 660 610 l 1
 660 590 l 1
 328 590 l 1
 328 610 l 1
 550 610 l 1
710 -160 m 1
 674 -138 l 1
 642 -113 l 1
 612 -86 l 1
 586 -55 l 1
 564 -22 l 1
 544 13 l 1
 528 50 l 1
 516 90 l 1
 509 129 l 1
 494 78 l 1
 474 28 l 1
 447 -16 l 1
 416 -56 l 1
 378 -90 l 1
 336 -119 l 1
 289 -142 l 1
 238 -159 l 1
 234 -150 l 1
 280 -125 l 1
 321 -96 l 1
 356 -66 l 1
 386 -31 l 1
 412 6 l 1
 432 48 l 1
 446 93 l 1
 457 142 l 1
 460 171 l 1
 245 171 l 1
 245 191 l 1
 462 191 l 1
 463 196 l 1
 464 253 l 1
 464 357 l 1
 524 347 l 1
 539 337 l 1
 524 328 l 1
 524 253 l 1
 520 191 l 1
 633 191 l 1
 683 241 l 1
 743 191 l 1
 743 171 l 1
 516 171 l 1
 528 137 l 1
 544 100 l 2
 555 77 567 55 580 33 c 2
 602 4 l 1
 624 -22 l 1
 650 -46 l 1
 678 -66 l 1
 708 -85 l 2
 727 -95 746 -105 766 -115 c 1
 710 -160 l 1
EndSplineSet
Validated: 1
EndChar

StartChar: glyph93
Encoding: 983165 983165 93
Width: 1000
VWidth: 0
Flags: W
HStem: -159 20<314 660>
LayerCount: 2
Fore
SplineSet
382 431 m 1
 386 413 l 1
 368 416 l 1
 318 452 l 1
 331 465 519 637 530 648 c 0
 554 668 577 689 600 710 c 2
 672 770 l 1
 678 763 l 1
 659 738 640 714 599 669 c 0
 598 666 445 496 400 450 c 2
 382 431 l 1
660 -139 m 1
 710 -89 l 1
 770 -139 l 1
 770 -159 l 1
 304 -159 l 1
 298 -172 l 1
 230 -170 l 1
 524 371 l 1
 572 334 l 1
 580 318 l 1
 562 315 l 1
 314 -139 l 1
 660 -139 l 1
EndSplineSet
Validated: 1
EndChar

StartChar: glyph94
Encoding: 983166 983166 94
Width: 1000
VWidth: 0
Flags: W
HStem: 241 20<314 660>
LayerCount: 2
Fore
SplineSet
326 142 m 1
 324 143 l 1
 368 184 l 1
 386 188 l 1
 382 170 l 2
 385 167 600 -66 650 -126 c 2
 678 -162 l 1
 672 -169 l 1
 669 -166 545 -67 360 110 c 2
 330 138 l 1
 326 142 l 1
660 261 m 1
 710 311 l 1
 770 261 l 1
 770 241 l 1
 304 241 l 1
 298 228 l 1
 230 230 l 1
 524 771 l 1
 572 734 l 1
 580 718 l 1
 562 715 l 1
 314 261 l 1
 660 261 l 1
EndSplineSet
Validated: 1
EndChar

StartChar: glyph95
Encoding: 983167 983167 95
Width: 1000
VWidth: 0
Flags: W
HStem: -10 20<344 566> 241 20<314 660>
LayerCount: 2
Fore
SplineSet
566 10 m 1
 616 60 l 1
 676 10 l 1
 676 -10 l 1
 344 -10 l 1
 344 10 l 1
 566 10 l 1
660 261 m 1
 710 311 l 1
 770 261 l 1
 770 241 l 1
 304 241 l 1
 298 228 l 1
 230 230 l 1
 524 771 l 1
 572 734 l 1
 580 718 l 1
 562 715 l 1
 314 261 l 1
 660 261 l 1
EndSplineSet
Validated: 1
EndChar

StartChar: glyph96
Encoding: 983168 983168 96
Width: 1000
VWidth: 0
Flags: W
HStem: 241 20<314 660>
LayerCount: 2
Fore
SplineSet
652 186 m 1
 694 142 l 1
 696 124 l 1
 678 128 l 1
 660 111 643 94 622 75 c 0
 591 47 433 -99 384 -140 c 2
 346 -169 l 1
 340 -162 l 1
 400 -90 l 1
 399 -91 l 1
 399 -91 410 -78 525 48 c 0
 526 49 651 184 652 186 c 1
660 261 m 1
 710 311 l 1
 770 261 l 1
 770 241 l 1
 304 241 l 1
 298 228 l 1
 230 230 l 1
 524 771 l 1
 572 734 l 1
 580 718 l 1
 562 715 l 1
 314 261 l 1
 660 261 l 1
EndSplineSet
Validated: 1
EndChar

StartChar: glyph97
Encoding: 983169 983169 97
Width: 1000
VWidth: 0
Flags: W
HStem: -159 20<314 660>
LayerCount: 2
Fore
SplineSet
660 -139 m 1
 710 -89 l 1
 770 -139 l 1
 770 -159 l 1
 304 -159 l 1
 298 -172 l 1
 230 -170 l 1
 524 371 l 1
 572 334 l 1
 580 318 l 1
 562 315 l 1
 314 -139 l 1
 660 -139 l 1
350 768 m 1
 380 753 l 1
 410 734 l 2
 432 719 453 703 474 686 c 2
 508 658 l 2
 531 635 555 613 578 590 c 0
 603 563 627 537 652 510 c 2
 690 464 l 1
 696 442 l 1
 684 422 l 1
 662 416 l 1
 642 428 l 1
 619 457 597 487 574 516 c 0
 475 633 475 633 400 708 c 0
 378 730 363 745 346 760 c 1
 350 768 l 1
EndSplineSet
Validated: 1
EndChar

StartChar: glyph98
Encoding: 983170 983170 98
Width: 1000
VWidth: 0
Flags: W
HStem: -159 20<314 660>
LayerCount: 2
Fore
SplineSet
660 -139 m 1
 710 -89 l 1
 770 -139 l 1
 770 -159 l 1
 304 -159 l 1
 298 -172 l 1
 230 -170 l 1
 524 371 l 1
 572 334 l 1
 580 318 l 1
 562 315 l 1
 314 -139 l 1
 660 -139 l 1
492 613 m 1
 491 614 395 717 346 760 c 1
 350 768 l 1
 380 753 l 1
 410 734 l 2
 432 719 453 703 474 686 c 2
 508 658 l 1
 524 642 l 1
 525 643 558 675 636 740 c 2
 672 770 l 1
 678 763 l 1
 647 722 553 616 552 615 c 1
 574 595 594 573 614 551 c 2
 652 510 l 1
 690 464 l 1
 696 442 l 1
 684 422 l 1
 662 416 l 1
 642 428 l 1
 567 522 567 522 520 580 c 1
 501 559 481 539 464 520 c 0
 441 495 421 472 400 450 c 2
 382 431 l 1
 386 413 l 1
 368 416 l 1
 318 452 l 1
 319 453 422 550 462 585 c 2
 492 613 l 1
EndSplineSet
Validated: 1
EndChar

StartChar: glyph99
Encoding: 983171 983171 99
Width: 1000
VWidth: 0
Flags: W
HStem: -159 20<314 660> 590 20<344 566>
LayerCount: 2
Fore
SplineSet
566 610 m 1
 616 660 l 1
 676 610 l 1
 676 590 l 1
 344 590 l 1
 344 610 l 1
 566 610 l 1
660 -139 m 1
 710 -89 l 1
 770 -139 l 1
 770 -159 l 1
 304 -159 l 1
 298 -172 l 1
 230 -170 l 1
 524 371 l 1
 572 334 l 1
 580 318 l 1
 562 315 l 1
 314 -139 l 1
 660 -139 l 1
EndSplineSet
Validated: 1
EndChar

StartChar: glyph100
Encoding: 983172 983172 100
Width: 1000
VWidth: 0
Flags: W
HStem: -159 20<314 660> 171 20<260 416 494 648>
LayerCount: 2
Fore
SplineSet
382 431 m 1
 386 413 l 1
 368 416 l 1
 318 452 l 1
 331 465 519 637 530 648 c 0
 554 668 577 689 600 710 c 2
 672 770 l 1
 678 763 l 1
 659 738 640 714 599 669 c 0
 598 666 445 496 400 450 c 2
 382 431 l 1
660 -139 m 1
 710 -89 l 1
 770 -139 l 1
 770 -159 l 1
 304 -159 l 1
 298 -172 l 1
 230 -170 l 1
 416 171 l 1
 260 171 l 1
 260 191 l 1
 426 191 l 1
 524 371 l 1
 572 334 l 1
 580 318 l 1
 562 315 l 1
 494 191 l 1
 648 191 l 1
 698 241 l 1
 758 191 l 1
 758 171 l 1
 484 171 l 1
 314 -139 l 1
 660 -139 l 1
EndSplineSet
Validated: 1
EndChar

StartChar: glyph101
Encoding: 983173 983173 101
Width: 1000
VWidth: 0
Flags: W
HStem: 241 20<314 660> 571 20<260 416 494 648>
LayerCount: 2
Fore
SplineSet
326 142 m 1
 324 143 l 1
 368 184 l 1
 386 188 l 1
 382 170 l 2
 385 167 600 -66 650 -126 c 2
 678 -162 l 1
 672 -169 l 1
 669 -166 545 -67 360 110 c 2
 330 138 l 1
 326 142 l 1
660 261 m 1
 710 311 l 1
 770 261 l 1
 770 241 l 1
 304 241 l 1
 298 228 l 1
 230 230 l 1
 416 571 l 1
 260 571 l 1
 260 591 l 1
 426 591 l 1
 524 771 l 1
 572 734 l 1
 580 718 l 1
 562 715 l 1
 494 591 l 1
 648 591 l 1
 698 641 l 1
 758 591 l 1
 758 571 l 1
 484 571 l 1
 314 261 l 1
 660 261 l 1
EndSplineSet
Validated: 1
EndChar

StartChar: glyph102
Encoding: 983174 983174 102
Width: 1000
VWidth: 0
Flags: W
HStem: -10 20<344 566> 241 20<314 660> 571 20<260 416 494 648>
LayerCount: 2
Fore
SplineSet
566 10 m 1
 616 60 l 1
 676 10 l 1
 676 -10 l 1
 344 -10 l 1
 344 10 l 1
 566 10 l 1
660 261 m 1
 710 311 l 1
 770 261 l 1
 770 241 l 1
 304 241 l 1
 298 228 l 1
 230 230 l 1
 416 571 l 1
 260 571 l 1
 260 591 l 1
 426 591 l 1
 524 771 l 1
 572 734 l 1
 580 718 l 1
 562 715 l 1
 494 591 l 1
 648 591 l 1
 698 641 l 1
 758 591 l 1
 758 571 l 1
 484 571 l 1
 314 261 l 1
 660 261 l 1
EndSplineSet
Validated: 1
EndChar

StartChar: glyph103
Encoding: 983175 983175 103
Width: 1000
VWidth: 0
Flags: W
HStem: 241 20<314 660> 571 20<260 416 494 648>
LayerCount: 2
Fore
SplineSet
652 186 m 1
 694 142 l 1
 696 124 l 1
 678 128 l 1
 660 111 643 94 622 75 c 0
 591 47 433 -99 384 -140 c 2
 346 -169 l 1
 340 -162 l 1
 400 -90 l 1
 399 -91 l 1
 399 -91 410 -78 525 48 c 0
 526 49 651 184 652 186 c 1
660 261 m 1
 710 311 l 1
 770 261 l 1
 770 241 l 1
 304 241 l 1
 298 228 l 1
 230 230 l 1
 416 571 l 1
 260 571 l 1
 260 591 l 1
 426 591 l 1
 524 771 l 1
 572 734 l 1
 580 718 l 1
 562 715 l 1
 494 591 l 1
 648 591 l 1
 698 641 l 1
 758 591 l 1
 758 571 l 1
 484 571 l 1
 314 261 l 1
 660 261 l 1
EndSplineSet
Validated: 1
EndChar

StartChar: glyph104
Encoding: 983176 983176 104
Width: 1000
VWidth: 0
Flags: W
HStem: -159 20<314 660> 171 20<260 416 494 648>
LayerCount: 2
Fore
SplineSet
660 -139 m 1
 710 -89 l 1
 770 -139 l 1
 770 -159 l 1
 304 -159 l 1
 298 -172 l 1
 230 -170 l 1
 416 171 l 1
 260 171 l 1
 260 191 l 1
 426 191 l 1
 524 371 l 1
 572 334 l 1
 580 318 l 1
 562 315 l 1
 494 191 l 1
 648 191 l 1
 698 241 l 1
 758 191 l 1
 758 171 l 1
 484 171 l 1
 314 -139 l 1
 660 -139 l 1
350 768 m 1
 380 753 l 1
 410 734 l 2
 432 719 453 703 474 686 c 2
 508 658 l 2
 531 635 555 613 578 590 c 0
 603 563 627 537 652 510 c 2
 690 464 l 1
 696 442 l 1
 684 422 l 1
 662 416 l 1
 642 428 l 1
 619 457 597 487 574 516 c 0
 475 633 475 633 400 708 c 0
 378 730 363 745 346 760 c 1
 350 768 l 1
EndSplineSet
Validated: 1
EndChar

StartChar: glyph105
Encoding: 983177 983177 105
Width: 1000
VWidth: 0
Flags: W
HStem: -159 20<314 660> 171 20<260 416 494 648>
LayerCount: 2
Fore
SplineSet
660 -139 m 1
 710 -89 l 1
 770 -139 l 1
 770 -159 l 1
 304 -159 l 1
 298 -172 l 1
 230 -170 l 1
 416 171 l 1
 260 171 l 1
 260 191 l 1
 426 191 l 1
 524 371 l 1
 572 334 l 1
 580 318 l 1
 562 315 l 1
 494 191 l 1
 648 191 l 1
 698 241 l 1
 758 191 l 1
 758 171 l 1
 484 171 l 1
 314 -139 l 1
 660 -139 l 1
492 613 m 1
 491 614 395 717 346 760 c 1
 350 768 l 1
 380 753 l 1
 410 734 l 2
 432 719 453 703 474 686 c 2
 508 658 l 1
 524 642 l 1
 525 643 558 675 636 740 c 2
 672 770 l 1
 678 763 l 1
 647 722 553 616 552 615 c 1
 574 595 594 573 614 551 c 2
 652 510 l 1
 690 464 l 1
 696 442 l 1
 684 422 l 1
 662 416 l 1
 642 428 l 1
 567 522 567 522 520 580 c 1
 501 559 481 539 464 520 c 0
 441 495 421 472 400 450 c 2
 382 431 l 1
 386 413 l 1
 368 416 l 1
 318 452 l 1
 319 453 422 550 462 585 c 2
 492 613 l 1
EndSplineSet
Validated: 1
EndChar

StartChar: glyph106
Encoding: 983178 983178 106
Width: 1000
VWidth: 0
Flags: W
HStem: -159 20<314 660> 171 20<260 416 494 648> 590 20<344 566>
LayerCount: 2
Fore
SplineSet
566 610 m 1
 616 660 l 1
 676 610 l 1
 676 590 l 1
 344 590 l 1
 344 610 l 1
 566 610 l 1
660 -139 m 1
 710 -89 l 1
 770 -139 l 1
 770 -159 l 1
 304 -159 l 1
 298 -172 l 1
 230 -170 l 1
 416 171 l 1
 260 171 l 1
 260 191 l 1
 426 191 l 1
 524 371 l 1
 572 334 l 1
 580 318 l 1
 562 315 l 1
 494 191 l 1
 648 191 l 1
 698 241 l 1
 758 191 l 1
 758 171 l 1
 484 171 l 1
 314 -139 l 1
 660 -139 l 1
EndSplineSet
Validated: 1
EndChar

StartChar: glyph107
Encoding: 983179 983179 107
Width: 1000
VWidth: 0
Flags: W
VStem: 684 60<-80 337>
LayerCount: 2
Fore
SplineSet
376 431 m 1
 380 413 l 1
 362 416 l 1
 313 452 l 1
 352 491 494 619 524 648 c 0
 548 668 571 689 594 710 c 2
 666 770 l 1
 673 763 l 1
 659 744 659 744 558 628 c 0
 554 623 423 480 394 450 c 2
 376 431 l 1
744 -118 m 1
 744 -147 l 1
 731 -147 l 1
 719 -174 l 1
 701 -162 684 -149 666 -136 c 2
 622 -105 l 2
 620 -104 527 -43 440 7 c 0
 405 27 372 45 339 62 c 2
 241 114 l 1
 244 122 l 1
 298 106 l 1
 402 66 l 1
 517 15 597 -29 684 -80 c 1
 684 366 l 1
 744 356 l 1
 759 346 l 1
 744 337 l 1
 744 -100 l 1
 745 -100 l 1
 744 -118 l 1
EndSplineSet
Validated: 1
EndChar

StartChar: glyph108
Encoding: 983180 983180 108
Width: 1000
VWidth: 0
Flags: W
VStem: 684 60<320 737>
LayerCount: 2
Fore
SplineSet
320 142 m 1
 318 143 l 1
 362 184 l 1
 380 188 l 1
 376 170 l 2
 379 167 585 -55 644 -126 c 2
 673 -162 l 1
 666 -169 l 1
 625 -138 604 -119 422 47 c 0
 399 68 376 89 354 110 c 2
 324 138 l 1
 320 142 l 1
744 282 m 1
 744 253 l 1
 731 253 l 1
 719 226 l 1
 701 238 684 251 666 264 c 2
 622 295 l 2
 620 296 527 357 440 407 c 0
 405 427 372 445 339 462 c 2
 241 514 l 1
 244 522 l 1
 298 506 l 1
 402 466 l 1
 517 415 597 371 684 320 c 1
 684 766 l 1
 744 756 l 1
 759 746 l 1
 744 737 l 1
 744 300 l 1
 745 300 l 1
 744 282 l 1
EndSplineSet
Validated: 1
EndChar

StartChar: glyph109
Encoding: 983181 983181 109
Width: 1000
VWidth: 0
Flags: W
HStem: -10 20<338 560>
VStem: 684 60<320 737>
LayerCount: 2
Fore
SplineSet
560 10 m 1
 610 60 l 1
 670 10 l 1
 670 -10 l 1
 338 -10 l 1
 338 10 l 1
 560 10 l 1
744 282 m 1
 744 253 l 1
 731 253 l 1
 719 226 l 1
 701 238 684 251 666 264 c 2
 622 295 l 2
 620 296 527 357 440 407 c 0
 405 427 372 445 339 462 c 2
 241 514 l 1
 244 522 l 1
 298 506 l 1
 402 466 l 1
 517 415 597 371 684 320 c 1
 684 766 l 1
 744 756 l 1
 759 746 l 1
 744 737 l 1
 744 300 l 1
 745 300 l 1
 744 282 l 1
EndSplineSet
Validated: 1
EndChar

StartChar: glyph110
Encoding: 983182 983182 110
Width: 1000
VWidth: 0
Flags: W
VStem: 684 60<320 737>
LayerCount: 2
Fore
SplineSet
646 186 m 1
 688 142 l 1
 691 124 l 1
 673 128 l 1
 655 111 638 94 617 75 c 0
 615 73 473 -57 448 -78 c 0
 425 -99 402 -120 378 -140 c 2
 341 -169 l 1
 334 -162 l 1
 394 -90 l 1
 393 -91 l 1
 393 -91 404 -78 519 48 c 0
 520 49 643 179 646 186 c 1
744 282 m 1
 744 253 l 1
 731 253 l 1
 719 226 l 1
 701 238 684 251 666 264 c 2
 622 295 l 2
 620 296 527 357 440 407 c 0
 405 427 372 445 339 462 c 2
 241 514 l 1
 244 522 l 1
 298 506 l 1
 402 466 l 1
 517 415 597 371 684 320 c 1
 684 766 l 1
 744 756 l 1
 759 746 l 1
 744 737 l 1
 744 300 l 1
 745 300 l 1
 744 282 l 1
EndSplineSet
Validated: 1
EndChar

StartChar: glyph111
Encoding: 983183 983183 111
Width: 1000
VWidth: 0
Flags: W
VStem: 684 60<-80 337>
LayerCount: 2
Fore
SplineSet
744 -118 m 1
 744 -147 l 1
 731 -147 l 1
 719 -174 l 1
 701 -162 684 -149 666 -136 c 2
 622 -105 l 2
 620 -104 527 -43 440 7 c 0
 405 27 372 45 339 62 c 2
 241 114 l 1
 244 122 l 1
 298 106 l 1
 402 66 l 1
 517 15 597 -29 684 -80 c 1
 684 366 l 1
 744 356 l 1
 759 346 l 1
 744 337 l 1
 744 -100 l 1
 745 -100 l 1
 744 -118 l 1
344 768 m 1
 374 753 l 1
 405 734 l 2
 427 719 448 703 469 686 c 2
 502 658 l 2
 525 635 549 613 572 590 c 0
 597 563 621 537 646 510 c 2
 684 464 l 1
 690 442 l 1
 679 422 l 1
 657 416 l 1
 637 428 l 1
 614 457 591 487 568 516 c 0
 546 542 524 568 503 594 c 0
 434 670 386 720 340 760 c 1
 344 768 l 1
EndSplineSet
Validated: 1
EndChar

StartChar: glyph112
Encoding: 983184 983184 112
Width: 1000
VWidth: 0
Flags: W
VStem: 684 60<-80 337>
LayerCount: 2
Fore
SplineSet
744 -118 m 1
 744 -147 l 1
 731 -147 l 1
 719 -174 l 1
 701 -162 684 -149 666 -136 c 2
 622 -105 l 2
 620 -104 527 -43 440 7 c 0
 405 27 372 45 339 62 c 2
 241 114 l 1
 244 122 l 1
 298 106 l 1
 402 66 l 1
 517 15 597 -29 684 -80 c 1
 684 366 l 1
 744 356 l 1
 759 346 l 1
 744 337 l 1
 744 -100 l 1
 745 -100 l 1
 744 -118 l 1
486 613 m 1
 416 688 375 729 340 760 c 1
 344 768 l 1
 374 753 l 1
 405 734 l 2
 427 719 448 703 469 686 c 2
 502 658 l 1
 518 642 l 1
 519 643 552 675 630 740 c 2
 666 770 l 1
 673 763 l 1
 637 715 547 616 546 615 c 1
 568 595 588 573 608 551 c 2
 646 510 l 1
 684 464 l 1
 690 442 l 1
 679 422 l 1
 657 416 l 1
 637 428 l 1
 614 457 591 487 570 513 c 0
 550 537 532 558 514 580 c 1
 513 579 422 479 394 450 c 2
 376 431 l 1
 380 413 l 1
 362 416 l 1
 313 452 l 1
 325 464 411 545 456 585 c 2
 486 613 l 1
EndSplineSet
Validated: 1
EndChar

StartChar: glyph113
Encoding: 983185 983185 113
Width: 1000
VWidth: 0
Flags: W
HStem: 590 20<338 560>
VStem: 684 60<-80 337>
LayerCount: 2
Fore
SplineSet
560 610 m 1
 610 660 l 1
 670 610 l 1
 670 590 l 1
 338 590 l 1
 338 610 l 1
 560 610 l 1
744 -118 m 1
 744 -147 l 1
 731 -147 l 1
 719 -174 l 1
 701 -162 684 -149 666 -136 c 2
 622 -105 l 2
 620 -104 527 -43 440 7 c 0
 405 27 372 45 339 62 c 2
 241 114 l 1
 244 122 l 1
 298 106 l 1
 402 66 l 1
 517 15 597 -29 684 -80 c 1
 684 366 l 1
 744 356 l 1
 759 346 l 1
 744 337 l 1
 744 -100 l 1
 745 -100 l 1
 744 -118 l 1
EndSplineSet
Validated: 1
EndChar

StartChar: glyph114
Encoding: 983186 983186 114
Width: 1000
VWidth: 0
Flags: W
HStem: -143 30<601.333 648> -128 15<548 594.667> 324 20<248 668>
VStem: 668 60<-111.969 -104 -99 304>
LayerCount: 2
Fore
SplineSet
360 431 m 1x30
 364 413 l 1
 346 416 l 1
 296 452 l 1
 309 465 497 637 508 648 c 0
 532 668 555 689 578 710 c 2
 650 770 l 1
 656 763 l 1
 637 738 618 714 577 669 c 0
 576 666 423 496 378 450 c 2
 360 431 l 1x30
662 -110 m 2
 663 -109 665 -108 666 -106 c 2
 666 -104 l 1
 668 -99 l 1
 668 324 l 1
 248 324 l 1
 248 344 l 1
 668 344 l 1
 698 369 l 1
 752 324 l 1
 728 304 l 1
 728 -93 l 2
 727 -101 725 -110 724 -118 c 2
 720 -130 l 1
 714 -142 l 1
 706 -152 l 1
 696 -160 l 1
 684 -166 l 1
 672 -170 l 1
 660 -172 l 1
 648 -173 l 1
 648 -143 l 1xb0
 548 -128 l 1
 548 -113 l 1x70
 648 -113 l 1xb0
 654 -112 l 1
 658 -112 l 1
 662 -110 l 2
EndSplineSet
Validated: 8388609
EndChar

StartChar: glyph115
Encoding: 983187 983187 115
Width: 1000
VWidth: 0
Flags: W
HStem: 257 30<601.333 648> 272 15<548 594.667> 724 20<248 668>
VStem: 668 60<288.031 296 301 704>
LayerCount: 2
Fore
SplineSet
304 142 m 1x30
 302 143 l 1
 346 184 l 1
 364 188 l 1
 360 170 l 2
 363 167 578 -66 628 -126 c 2
 656 -162 l 1
 650 -169 l 1
 647 -166 523 -67 338 110 c 2
 308 138 l 1
 304 142 l 1x30
662 290 m 2
 663 291 665 292 666 294 c 2
 666 296 l 1
 668 301 l 1
 668 724 l 1
 248 724 l 1
 248 744 l 1
 668 744 l 1
 698 770 l 1
 752 724 l 1
 728 704 l 1
 728 307 l 2
 727 299 725 290 724 282 c 2
 720 270 l 1
 714 258 l 1
 706 248 l 1
 696 240 l 1
 684 234 l 1
 672 230 l 1
 660 228 l 1
 648 227 l 1
 648 257 l 1xb0
 548 272 l 1
 548 287 l 1x70
 648 287 l 1xb0
 654 288 l 1
 658 288 l 1
 662 290 l 2
EndSplineSet
Validated: 8388609
EndChar

StartChar: glyph116
Encoding: 983188 983188 116
Width: 1000
VWidth: 0
Flags: W
HStem: -10 20<322 544> 257 30<601.333 648> 272 15<548 594.667> 724 20<248 668>
VStem: 668 60<288.031 296 301 704>
LayerCount: 2
Fore
SplineSet
544 10 m 1x98
 594 60 l 1
 654 10 l 1
 654 -10 l 1
 322 -10 l 1
 322 10 l 1
 544 10 l 1x98
662 290 m 2
 663 291 665 292 666 294 c 2
 666 296 l 1
 668 301 l 1
 668 724 l 1
 248 724 l 1
 248 744 l 1
 668 744 l 1
 698 770 l 1
 752 724 l 1
 728 704 l 1
 728 307 l 2
 727 299 725 290 724 282 c 2
 720 270 l 1
 714 258 l 1
 706 248 l 1
 696 240 l 1
 684 234 l 1
 672 230 l 1
 660 228 l 1
 648 227 l 1
 648 257 l 1xd8
 548 272 l 1
 548 287 l 1xb8
 648 287 l 1xd8
 654 288 l 1
 658 288 l 1
 662 290 l 2
EndSplineSet
Validated: 8388609
EndChar

StartChar: glyph117
Encoding: 983189 983189 117
Width: 1000
VWidth: 0
Flags: W
HStem: 257 30<601.333 648> 272 15<548 594.667> 724 20<248 668>
VStem: 668 60<288.031 296 301 704>
LayerCount: 2
Fore
SplineSet
630 186 m 1x30
 672 142 l 1
 674 124 l 1
 656 128 l 1
 638 111 621 94 600 75 c 0
 569 47 411 -99 362 -140 c 2
 324 -169 l 1
 318 -162 l 1
 378 -90 l 1
 377 -91 l 1
 377 -91 388 -78 503 48 c 0
 504 49 629 184 630 186 c 1x30
662 290 m 2
 663 291 665 292 666 294 c 2
 666 296 l 1
 668 301 l 1
 668 724 l 1
 248 724 l 1
 248 744 l 1
 668 744 l 1
 698 770 l 1
 752 724 l 1
 728 704 l 1
 728 307 l 2
 727 299 725 290 724 282 c 2
 720 270 l 1
 714 258 l 1
 706 248 l 1
 696 240 l 1
 684 234 l 1
 672 230 l 1
 660 228 l 1
 648 227 l 1
 648 257 l 1xb0
 548 272 l 1
 548 287 l 1x70
 648 287 l 1xb0
 654 288 l 1
 658 288 l 1
 662 290 l 2
EndSplineSet
Validated: 8388609
EndChar

StartChar: glyph118
Encoding: 983190 983190 118
Width: 1000
VWidth: 0
Flags: W
HStem: -143 30<601.333 648> -128 15<548 594.667> 324 20<248 668>
VStem: 668 60<-111.969 -104 -99 304>
LayerCount: 2
Fore
SplineSet
662 -110 m 2xb0
 663 -109 665 -108 666 -106 c 2
 666 -104 l 1
 668 -99 l 1
 668 324 l 1
 248 324 l 1
 248 344 l 1
 668 344 l 1
 698 369 l 1
 752 324 l 1
 728 304 l 1
 728 -93 l 2
 727 -101 725 -110 724 -118 c 2
 720 -130 l 1
 714 -142 l 1
 706 -152 l 1
 696 -160 l 1
 684 -166 l 1
 672 -170 l 1
 660 -172 l 1
 648 -173 l 1
 648 -143 l 1xb0
 548 -128 l 1
 548 -113 l 1x70
 648 -113 l 1
 654 -112 l 1
 658 -112 l 1
 662 -110 l 2xb0
328 768 m 1
 358 753 l 1
 388 734 l 2
 410 719 431 703 452 686 c 2
 486 658 l 2
 509 635 533 613 556 590 c 0
 581 563 605 537 630 510 c 2
 668 464 l 1
 674 442 l 1
 662 422 l 1
 640 416 l 1
 620 428 l 1
 597 457 575 487 552 516 c 0
 453 633 453 633 378 708 c 0
 356 730 341 745 324 760 c 1
 328 768 l 1
EndSplineSet
Validated: 8388609
EndChar

StartChar: glyph119
Encoding: 983191 983191 119
Width: 1000
VWidth: 0
Flags: W
HStem: -143 30<601.333 648> -128 15<548 594.667> 324 20<248 668>
VStem: 668 60<-111.969 -104 -99 304>
LayerCount: 2
Fore
SplineSet
662 -110 m 2xb0
 663 -109 665 -108 666 -106 c 2
 666 -104 l 1
 668 -99 l 1
 668 324 l 1
 248 324 l 1
 248 344 l 1
 668 344 l 1
 698 369 l 1
 752 324 l 1
 728 304 l 1
 728 -93 l 2
 727 -101 725 -110 724 -118 c 2
 720 -130 l 1
 714 -142 l 1
 706 -152 l 1
 696 -160 l 1
 684 -166 l 1
 672 -170 l 1
 660 -172 l 1
 648 -173 l 1
 648 -143 l 1xb0
 548 -128 l 1
 548 -113 l 1x70
 648 -113 l 1
 654 -112 l 1
 658 -112 l 1
 662 -110 l 2xb0
470 613 m 1
 469 614 373 717 324 760 c 1
 328 768 l 1
 358 753 l 1
 388 734 l 2
 410 719 431 703 452 686 c 2
 486 658 l 1
 502 642 l 1
 503 643 536 675 614 740 c 2
 650 770 l 1
 656 763 l 1
 625 722 531 616 530 615 c 1
 552 595 572 573 592 551 c 2
 630 510 l 1
 668 464 l 1
 674 442 l 1
 662 422 l 1
 640 416 l 1
 620 428 l 1
 545 522 545 522 498 580 c 1
 479 559 459 539 442 520 c 0
 419 495 399 472 378 450 c 2
 360 431 l 1
 364 413 l 1
 346 416 l 1
 296 452 l 1
 297 453 400 550 440 585 c 2
 470 613 l 1
EndSplineSet
Validated: 8388609
EndChar

StartChar: glyph120
Encoding: 983192 983192 120
Width: 1000
VWidth: 0
Flags: W
HStem: -143 30<601.333 648> -128 15<548 594.667> 324 20<248 668> 590 20<322 544>
VStem: 668 60<-111.969 -104 -99 304>
LayerCount: 2
Fore
SplineSet
544 610 m 1x38
 594 660 l 1
 654 610 l 1
 654 590 l 1
 322 590 l 1
 322 610 l 1
 544 610 l 1x38
662 -110 m 2
 663 -109 665 -108 666 -106 c 2
 666 -104 l 1
 668 -99 l 1
 668 324 l 1
 248 324 l 1
 248 344 l 1
 668 344 l 1
 698 369 l 1
 752 324 l 1
 728 304 l 1
 728 -93 l 2
 727 -101 725 -110 724 -118 c 2
 720 -130 l 1
 714 -142 l 1
 706 -152 l 1
 696 -160 l 1
 684 -166 l 1
 672 -170 l 1
 660 -172 l 1
 648 -173 l 1
 648 -143 l 1xb8
 548 -128 l 1
 548 -113 l 1x78
 648 -113 l 1xb8
 654 -112 l 1
 658 -112 l 1
 662 -110 l 2
EndSplineSet
Validated: 8388609
EndChar

StartChar: glyph121
Encoding: 983193 983193 121
Width: 1000
VWidth: 0
Flags: W
HStem: 327 20<238 672>
LayerCount: 2
Fore
SplineSet
350 431 m 1
 354 413 l 1
 336 416 l 1
 288 452 l 1
 320 484 444 597 498 648 c 0
 522 668 545 689 568 710 c 2
 640 770 l 1
 648 763 l 1
 629 738 609 714 568 669 c 0
 567 666 433 517 368 450 c 2
 350 431 l 1
726 308 m 1
 690 211 679 189 630 96 c 1
 600 45 l 2
 578 13 555 -18 532 -48 c 2
 496 -89 l 1
 458 -127 l 1
 418 -161 l 1
 412 -154 l 1
 434 -127 455 -100 476 -72 c 2
 506 -28 l 1
 599 124 622 186 658 286 c 2
 672 327 l 1
 238 327 l 1
 238 347 l 1
 676 347 l 1
 706 372 l 1
 762 327 l 1
 736 312 l 1
 726 308 l 1
EndSplineSet
Validated: 1
EndChar

StartChar: glyph122
Encoding: 983194 983194 122
Width: 1000
VWidth: 0
Flags: W
HStem: 727 20<238 672>
LayerCount: 2
Fore
SplineSet
294 142 m 1
 292 143 l 1
 336 184 l 1
 354 188 l 1
 350 170 l 1
 366 152 384 134 406 110 c 0
 425 90 556 -51 618 -126 c 2
 648 -162 l 1
 640 -169 l 1
 573 -118 331 107 328 110 c 2
 298 138 l 1
 294 142 l 1
726 708 m 1
 690 611 679 589 630 496 c 1
 600 445 l 2
 578 413 555 382 532 352 c 2
 496 311 l 1
 458 273 l 1
 418 239 l 1
 412 246 l 1
 434 273 455 300 476 328 c 2
 506 372 l 1
 599 524 622 586 658 686 c 2
 672 727 l 1
 238 727 l 1
 238 747 l 1
 676 747 l 1
 706 772 l 1
 762 727 l 1
 736 712 l 1
 726 708 l 1
EndSplineSet
Validated: 1
EndChar

StartChar: glyph123
Encoding: 983195 983195 123
Width: 1000
VWidth: 0
Flags: W
HStem: -10 20<312 534> 727 20<238 672>
LayerCount: 2
Fore
SplineSet
534 10 m 1
 584 60 l 1
 644 10 l 1
 644 -10 l 1
 312 -10 l 1
 312 10 l 1
 534 10 l 1
726 708 m 1
 690 611 679 589 630 496 c 1
 600 445 l 2
 578 413 555 382 532 352 c 2
 496 311 l 1
 458 273 l 1
 418 239 l 1
 412 246 l 1
 434 273 455 300 476 328 c 2
 506 372 l 1
 599 524 622 586 658 686 c 2
 672 727 l 1
 238 727 l 1
 238 747 l 1
 676 747 l 1
 706 772 l 1
 762 727 l 1
 736 712 l 1
 726 708 l 1
EndSplineSet
Validated: 1
EndChar

StartChar: glyph124
Encoding: 983196 983196 124
Width: 1000
VWidth: 0
Flags: W
HStem: 727 20<238 672>
LayerCount: 2
Fore
SplineSet
620 186 m 1
 662 142 l 1
 666 124 l 1
 648 128 l 1
 604 87 406 -95 352 -140 c 2
 316 -169 l 1
 308 -162 l 1
 368 -90 l 2
 389 -67 410 -44 430 -20 c 0
 432 -18 615 177 620 186 c 1
726 708 m 1
 690 611 679 589 630 496 c 1
 600 445 l 2
 578 413 555 382 532 352 c 2
 496 311 l 1
 458 273 l 1
 418 239 l 1
 412 246 l 1
 434 273 455 300 476 328 c 2
 506 372 l 1
 599 524 622 586 658 686 c 2
 672 727 l 1
 238 727 l 1
 238 747 l 1
 676 747 l 1
 706 772 l 1
 762 727 l 1
 736 712 l 1
 726 708 l 1
EndSplineSet
Validated: 1
EndChar

StartChar: glyph125
Encoding: 983197 983197 125
Width: 1000
VWidth: 0
Flags: W
HStem: 327 20<238 672>
LayerCount: 2
Fore
SplineSet
726 308 m 1
 690 211 679 189 630 96 c 1
 600 45 l 2
 578 13 555 -18 532 -48 c 2
 496 -89 l 1
 458 -127 l 1
 418 -161 l 1
 412 -154 l 1
 434 -127 455 -100 476 -72 c 2
 506 -28 l 1
 599 124 622 186 658 286 c 2
 672 327 l 1
 238 327 l 1
 238 347 l 1
 676 347 l 1
 706 372 l 1
 762 327 l 1
 736 312 l 1
 726 308 l 1
318 768 m 1
 348 753 l 1
 380 734 l 2
 402 719 423 703 444 686 c 2
 476 658 l 2
 499 635 523 613 546 590 c 0
 571 563 595 537 620 510 c 2
 658 464 l 1
 664 442 l 1
 654 422 l 1
 632 416 l 1
 612 428 l 1
 589 457 565 487 542 516 c 0
 520 542 499 568 478 594 c 0
 454 621 378 703 314 760 c 1
 318 768 l 1
EndSplineSet
Validated: 1
EndChar

StartChar: glyph126
Encoding: 983198 983198 126
Width: 1000
VWidth: 0
Flags: W
HStem: 327 20<238 672>
LayerCount: 2
Fore
SplineSet
726 308 m 1
 690 211 679 189 630 96 c 1
 600 45 l 2
 578 13 555 -18 532 -48 c 2
 496 -89 l 1
 458 -127 l 1
 418 -161 l 1
 412 -154 l 1
 434 -127 455 -100 476 -72 c 2
 506 -28 l 1
 599 124 622 186 658 286 c 2
 672 327 l 1
 238 327 l 1
 238 347 l 1
 676 347 l 1
 706 372 l 1
 762 327 l 1
 736 312 l 1
 726 308 l 1
460 613 m 1
 391 687 364 716 314 760 c 1
 318 768 l 1
 348 753 l 1
 380 734 l 2
 402 719 423 703 444 686 c 2
 476 658 l 1
 492 642 l 1
 506 656 603 739 604 740 c 2
 640 770 l 1
 648 763 l 1
 620 726 521 616 520 615 c 1
 542 595 562 573 582 551 c 2
 620 510 l 1
 658 464 l 1
 664 442 l 1
 654 422 l 1
 632 416 l 1
 612 428 l 1
 589 457 565 487 544 513 c 0
 524 537 506 558 488 580 c 1
 487 579 396 479 368 450 c 2
 350 431 l 1
 354 413 l 1
 336 416 l 1
 288 452 l 1
 289 453 389 548 430 585 c 2
 460 613 l 1
EndSplineSet
Validated: 1
EndChar

StartChar: glyph127
Encoding: 983199 983199 127
Width: 1000
VWidth: 0
Flags: W
HStem: 327 20<238 672> 590 20<312 534>
LayerCount: 2
Fore
SplineSet
534 610 m 1
 584 660 l 1
 644 610 l 1
 644 590 l 1
 312 590 l 1
 312 610 l 1
 534 610 l 1
726 308 m 1
 690 211 679 189 630 96 c 1
 600 45 l 2
 578 13 555 -18 532 -48 c 2
 496 -89 l 1
 458 -127 l 1
 418 -161 l 1
 412 -154 l 1
 434 -127 455 -100 476 -72 c 2
 506 -28 l 1
 599 124 622 186 658 286 c 2
 672 327 l 1
 238 327 l 1
 238 347 l 1
 676 347 l 1
 706 372 l 1
 762 327 l 1
 736 312 l 1
 726 308 l 1
EndSplineSet
Validated: 1
EndChar

StartChar: glyph128
Encoding: 983200 983200 128
Width: 1000
VWidth: 0
Flags: W
HStem: 123 20<266 500> 327 20<238 672>
LayerCount: 2
Fore
SplineSet
350 431 m 1
 354 413 l 1
 336 416 l 1
 288 452 l 1
 320 484 444 597 498 648 c 0
 522 668 545 689 568 710 c 2
 640 770 l 1
 648 763 l 1
 629 738 609 714 568 669 c 0
 567 666 433 517 368 450 c 2
 350 431 l 1
500 143 m 1
 550 193 l 1
 604 149 l 1
 616 174 625 201 636 227 c 2
 658 286 l 1
 672 327 l 1
 238 327 l 1
 238 347 l 1
 676 347 l 1
 706 372 l 1
 762 327 l 1
 736 312 l 1
 726 308 l 1
 690 211 679 189 630 96 c 1
 600 45 l 2
 578 13 555 -18 532 -48 c 2
 496 -89 l 1
 458 -127 l 1
 418 -161 l 1
 412 -154 l 1
 434 -127 455 -100 476 -72 c 2
 506 -28 l 2
 525 3 544 35 562 67 c 2
 588 118 l 1
 592 123 l 1
 266 123 l 1
 266 143 l 1
 500 143 l 1
EndSplineSet
Validated: 1
EndChar

StartChar: glyph129
Encoding: 983201 983201 129
Width: 1000
VWidth: 0
Flags: W
HStem: 523 20<266 500> 727 20<238 672>
LayerCount: 2
Fore
SplineSet
294 142 m 1
 292 143 l 1
 336 184 l 1
 354 188 l 1
 350 170 l 1
 366 152 384 134 406 110 c 0
 425 90 556 -51 618 -126 c 2
 648 -162 l 1
 640 -169 l 1
 573 -118 331 107 328 110 c 2
 298 138 l 1
 294 142 l 1
500 543 m 1
 550 593 l 1
 604 549 l 1
 616 574 625 601 636 627 c 2
 658 686 l 1
 672 727 l 1
 238 727 l 1
 238 747 l 1
 676 747 l 1
 706 772 l 1
 762 727 l 1
 736 712 l 1
 726 708 l 1
 690 611 679 589 630 496 c 1
 600 445 l 2
 578 413 555 382 532 352 c 2
 496 311 l 1
 458 273 l 1
 418 239 l 1
 412 246 l 1
 434 273 455 300 476 328 c 2
 506 372 l 2
 525 403 544 435 562 467 c 2
 588 518 l 1
 592 523 l 1
 266 523 l 1
 266 543 l 1
 500 543 l 1
EndSplineSet
Validated: 1
EndChar

StartChar: glyph130
Encoding: 983202 983202 130
Width: 1000
VWidth: 0
Flags: W
HStem: -10 20<312 534> 523 20<266 500> 727 20<238 672>
LayerCount: 2
Fore
SplineSet
534 10 m 1
 584 60 l 1
 644 10 l 1
 644 -10 l 1
 312 -10 l 1
 312 10 l 1
 534 10 l 1
500 543 m 1
 550 593 l 1
 604 549 l 1
 616 574 625 601 636 627 c 2
 658 686 l 1
 672 727 l 1
 238 727 l 1
 238 747 l 1
 676 747 l 1
 706 772 l 1
 762 727 l 1
 736 712 l 1
 726 708 l 1
 690 611 679 589 630 496 c 1
 600 445 l 2
 578 413 555 382 532 352 c 2
 496 311 l 1
 458 273 l 1
 418 239 l 1
 412 246 l 1
 434 273 455 300 476 328 c 2
 506 372 l 2
 525 403 544 435 562 467 c 2
 588 518 l 1
 592 523 l 1
 266 523 l 1
 266 543 l 1
 500 543 l 1
EndSplineSet
Validated: 1
EndChar

StartChar: glyph131
Encoding: 983203 983203 131
Width: 1000
VWidth: 0
Flags: W
HStem: 523 20<266 500> 727 20<238 672>
LayerCount: 2
Fore
SplineSet
620 186 m 1
 662 142 l 1
 666 124 l 1
 648 128 l 1
 604 87 406 -95 352 -140 c 2
 316 -169 l 1
 308 -162 l 1
 368 -90 l 2
 389 -67 410 -44 430 -20 c 0
 432 -18 615 177 620 186 c 1
500 543 m 1
 550 593 l 1
 604 549 l 1
 616 574 625 601 636 627 c 2
 658 686 l 1
 672 727 l 1
 238 727 l 1
 238 747 l 1
 676 747 l 1
 706 772 l 1
 762 727 l 1
 736 712 l 1
 726 708 l 1
 690 611 679 589 630 496 c 1
 600 445 l 2
 578 413 555 382 532 352 c 2
 496 311 l 1
 458 273 l 1
 418 239 l 1
 412 246 l 1
 434 273 455 300 476 328 c 2
 506 372 l 2
 525 403 544 435 562 467 c 2
 588 518 l 1
 592 523 l 1
 266 523 l 1
 266 543 l 1
 500 543 l 1
EndSplineSet
Validated: 1
EndChar

StartChar: glyph132
Encoding: 983204 983204 132
Width: 1000
VWidth: 0
Flags: W
HStem: 123 20<266 500> 327 20<238 672>
LayerCount: 2
Fore
SplineSet
500 143 m 1
 550 193 l 1
 604 149 l 1
 616 174 625 201 636 227 c 2
 658 286 l 1
 672 327 l 1
 238 327 l 1
 238 347 l 1
 676 347 l 1
 706 372 l 1
 762 327 l 1
 736 312 l 1
 726 308 l 1
 690 211 679 189 630 96 c 1
 600 45 l 2
 578 13 555 -18 532 -48 c 2
 496 -89 l 1
 458 -127 l 1
 418 -161 l 1
 412 -154 l 1
 434 -127 455 -100 476 -72 c 2
 506 -28 l 2
 525 3 544 35 562 67 c 2
 588 118 l 1
 592 123 l 1
 266 123 l 1
 266 143 l 1
 500 143 l 1
318 768 m 1
 348 753 l 1
 380 734 l 2
 402 719 423 703 444 686 c 2
 476 658 l 2
 499 635 523 613 546 590 c 0
 571 563 595 537 620 510 c 2
 658 464 l 1
 664 442 l 1
 654 422 l 1
 632 416 l 1
 612 428 l 1
 589 457 565 487 542 516 c 0
 520 542 499 568 478 594 c 0
 454 621 378 703 314 760 c 1
 318 768 l 1
EndSplineSet
Validated: 1
EndChar

StartChar: glyph133
Encoding: 983205 983205 133
Width: 1000
VWidth: 0
Flags: W
HStem: 123 20<266 500> 327 20<238 672>
LayerCount: 2
Fore
SplineSet
500 143 m 1
 550 193 l 1
 604 149 l 1
 616 174 625 201 636 227 c 2
 658 286 l 1
 672 327 l 1
 238 327 l 1
 238 347 l 1
 676 347 l 1
 706 372 l 1
 762 327 l 1
 736 312 l 1
 726 308 l 1
 690 211 679 189 630 96 c 1
 600 45 l 2
 578 13 555 -18 532 -48 c 2
 496 -89 l 1
 458 -127 l 1
 418 -161 l 1
 412 -154 l 1
 434 -127 455 -100 476 -72 c 2
 506 -28 l 2
 525 3 544 35 562 67 c 2
 588 118 l 1
 592 123 l 1
 266 123 l 1
 266 143 l 1
 500 143 l 1
460 613 m 1
 391 687 364 716 314 760 c 1
 318 768 l 1
 348 753 l 1
 380 734 l 2
 402 719 423 703 444 686 c 2
 476 658 l 1
 492 642 l 1
 506 656 603 739 604 740 c 2
 640 770 l 1
 648 763 l 1
 620 726 521 616 520 615 c 1
 542 595 562 573 582 551 c 2
 620 510 l 1
 658 464 l 1
 664 442 l 1
 654 422 l 1
 632 416 l 1
 612 428 l 1
 589 457 565 487 544 513 c 0
 524 537 506 558 488 580 c 1
 487 579 396 479 368 450 c 2
 350 431 l 1
 354 413 l 1
 336 416 l 1
 288 452 l 1
 289 453 389 548 430 585 c 2
 460 613 l 1
EndSplineSet
Validated: 1
EndChar

StartChar: glyph134
Encoding: 983206 983206 134
Width: 1000
VWidth: 0
Flags: W
HStem: 123 20<266 500> 327 20<238 672> 590 20<312 534>
LayerCount: 2
Fore
SplineSet
534 610 m 1
 584 660 l 1
 644 610 l 1
 644 590 l 1
 312 590 l 1
 312 610 l 1
 534 610 l 1
500 143 m 1
 550 193 l 1
 604 149 l 1
 616 174 625 201 636 227 c 2
 658 286 l 1
 672 327 l 1
 238 327 l 1
 238 347 l 1
 676 347 l 1
 706 372 l 1
 762 327 l 1
 736 312 l 1
 726 308 l 1
 690 211 679 189 630 96 c 1
 600 45 l 2
 578 13 555 -18 532 -48 c 2
 496 -89 l 1
 458 -127 l 1
 418 -161 l 1
 412 -154 l 1
 434 -127 455 -100 476 -72 c 2
 506 -28 l 2
 525 3 544 35 562 67 c 2
 588 118 l 1
 592 123 l 1
 266 123 l 1
 266 143 l 1
 500 143 l 1
EndSplineSet
Validated: 1
EndChar

StartChar: glyph135
Encoding: 983207 983207 135
Width: 1000
VWidth: 0
Flags: W
VStem: 259 60<-76 304>
LayerCount: 2
Fore
SplineSet
380 431 m 1
 384 413 l 1
 366 416 l 1
 317 452 l 1
 356 491 498 619 528 648 c 0
 552 668 575 689 598 710 c 2
 670 770 l 1
 677 763 l 1
 663 744 663 744 562 628 c 0
 558 623 427 480 398 450 c 2
 380 431 l 1
306 -157 m 1
 279 -184 l 1
 229 -134 l 1
 259 -104 l 1
 259 333 l 1
 319 323 l 1
 334 313 l 1
 319 304 l 1
 319 -76 l 1
 489 39 601 101 714 156 c 1
 766 179 l 1
 771 172 l 1
 768 170 601 58 488 -22 c 2
 396 -88 l 2
 367 -112 337 -135 307 -158 c 1
 306 -157 l 1
EndSplineSet
Validated: 1
EndChar

StartChar: glyph136
Encoding: 983208 983208 136
Width: 1000
VWidth: 0
Flags: W
VStem: 259 60<324 704>
LayerCount: 2
Fore
SplineSet
324 142 m 1
 322 143 l 1
 366 184 l 1
 384 188 l 1
 380 170 l 2
 383 167 589 -55 648 -126 c 2
 677 -162 l 1
 670 -169 l 1
 629 -138 608 -119 426 47 c 0
 403 68 380 89 358 110 c 2
 328 138 l 1
 324 142 l 1
306 243 m 1
 279 216 l 1
 229 266 l 1
 259 296 l 1
 259 733 l 1
 319 723 l 1
 334 713 l 1
 319 704 l 1
 319 324 l 1
 489 439 601 501 714 556 c 1
 766 579 l 1
 771 572 l 1
 768 570 601 458 488 378 c 2
 396 312 l 2
 367 288 337 265 307 242 c 1
 306 243 l 1
EndSplineSet
Validated: 1
EndChar

StartChar: glyph137
Encoding: 983209 983209 137
Width: 1000
VWidth: 0
Flags: W
HStem: -10 20<342 564>
VStem: 259 60<324 704>
LayerCount: 2
Fore
SplineSet
564 10 m 1
 614 60 l 1
 674 10 l 1
 674 -10 l 1
 342 -10 l 1
 342 10 l 1
 564 10 l 1
306 243 m 1
 279 216 l 1
 229 266 l 1
 259 296 l 1
 259 733 l 1
 319 723 l 1
 334 713 l 1
 319 704 l 1
 319 324 l 1
 489 439 601 501 714 556 c 1
 766 579 l 1
 771 572 l 1
 768 570 601 458 488 378 c 2
 396 312 l 2
 367 288 337 265 307 242 c 1
 306 243 l 1
EndSplineSet
Validated: 1
EndChar

StartChar: glyph138
Encoding: 983210 983210 138
Width: 1000
VWidth: 0
Flags: W
VStem: 259 60<324 704>
LayerCount: 2
Fore
SplineSet
650 186 m 1
 692 142 l 1
 695 124 l 1
 677 128 l 1
 659 111 642 94 621 75 c 0
 619 73 477 -57 452 -78 c 0
 429 -99 406 -120 382 -140 c 2
 345 -169 l 1
 338 -162 l 1
 398 -90 l 1
 397 -91 l 1
 397 -91 408 -78 523 48 c 0
 524 49 647 179 650 186 c 1
306 243 m 1
 279 216 l 1
 229 266 l 1
 259 296 l 1
 259 733 l 1
 319 723 l 1
 334 713 l 1
 319 704 l 1
 319 324 l 1
 489 439 601 501 714 556 c 1
 766 579 l 1
 771 572 l 1
 768 570 601 458 488 378 c 2
 396 312 l 2
 367 288 337 265 307 242 c 1
 306 243 l 1
EndSplineSet
Validated: 1
EndChar

StartChar: glyph139
Encoding: 983211 983211 139
Width: 1000
VWidth: 0
Flags: W
VStem: 259 60<-76 304>
LayerCount: 2
Fore
SplineSet
306 -157 m 1
 279 -184 l 1
 229 -134 l 1
 259 -104 l 1
 259 333 l 1
 319 323 l 1
 334 313 l 1
 319 304 l 1
 319 -76 l 1
 489 39 601 101 714 156 c 1
 766 179 l 1
 771 172 l 1
 768 170 601 58 488 -22 c 2
 396 -88 l 2
 367 -112 337 -135 307 -158 c 1
 306 -157 l 1
348 768 m 1
 378 753 l 1
 409 734 l 2
 431 719 452 703 473 686 c 2
 506 658 l 2
 529 635 553 613 576 590 c 0
 601 563 625 537 650 510 c 2
 688 464 l 1
 694 442 l 1
 683 422 l 1
 661 416 l 1
 641 428 l 1
 618 457 595 487 572 516 c 0
 550 542 528 568 507 594 c 0
 438 670 390 720 344 760 c 1
 348 768 l 1
EndSplineSet
Validated: 1
EndChar

StartChar: glyph140
Encoding: 983212 983212 140
Width: 1000
VWidth: 0
Flags: W
VStem: 259 60<-76 304>
LayerCount: 2
Fore
SplineSet
306 -157 m 1
 279 -184 l 1
 229 -134 l 1
 259 -104 l 1
 259 333 l 1
 319 323 l 1
 334 313 l 1
 319 304 l 1
 319 -76 l 1
 489 39 601 101 714 156 c 1
 766 179 l 1
 771 172 l 1
 768 170 601 58 488 -22 c 2
 396 -88 l 2
 367 -112 337 -135 307 -158 c 1
 306 -157 l 1
490 613 m 1
 420 688 379 729 344 760 c 1
 348 768 l 1
 378 753 l 1
 409 734 l 2
 431 719 452 703 473 686 c 2
 506 658 l 1
 522 642 l 1
 523 643 556 675 634 740 c 2
 670 770 l 1
 677 763 l 1
 641 715 551 616 550 615 c 1
 572 595 592 573 612 551 c 2
 650 510 l 1
 688 464 l 1
 694 442 l 1
 683 422 l 1
 661 416 l 1
 641 428 l 1
 618 457 595 487 574 513 c 0
 554 537 536 558 518 580 c 1
 517 579 426 479 398 450 c 2
 380 431 l 1
 384 413 l 1
 366 416 l 1
 317 452 l 1
 329 464 415 545 460 585 c 2
 490 613 l 1
EndSplineSet
Validated: 1
EndChar

StartChar: glyph141
Encoding: 983213 983213 141
Width: 1000
VWidth: 0
Flags: W
HStem: 590 20<342 564>
VStem: 259 60<-76 304>
LayerCount: 2
Fore
SplineSet
564 610 m 1
 614 660 l 1
 674 610 l 1
 674 590 l 1
 342 590 l 1
 342 610 l 1
 564 610 l 1
306 -157 m 1
 279 -184 l 1
 229 -134 l 1
 259 -104 l 1
 259 333 l 1
 319 323 l 1
 334 313 l 1
 319 304 l 1
 319 -76 l 1
 489 39 601 101 714 156 c 1
 766 179 l 1
 771 172 l 1
 768 170 601 58 488 -22 c 2
 396 -88 l 2
 367 -112 337 -135 307 -158 c 1
 306 -157 l 1
EndSplineSet
Validated: 1
EndChar

StartChar: glyph142
Encoding: 983214 983214 142
Width: 1000
VWidth: 0
Flags: W
HStem: 321 20<243 567>
VStem: 567 60<-50 301>
LayerCount: 2
Fore
SplineSet
367 431 m 1
 371 413 l 1
 353 416 l 1
 304 452 l 1
 343 491 485 619 515 648 c 0
 539 668 562 689 585 710 c 2
 657 770 l 1
 664 763 l 1
 650 744 650 744 549 628 c 0
 545 623 414 480 385 450 c 2
 367 431 l 1
627 -50 m 1
 657 -5 714 73 749 118 c 1
 757 113 l 1
 745 88 734 63 723 38 c 0
 722 36 652 -98 638 -126 c 2
 629 -145 l 1
 637 -163 l 1
 619 -164 l 1
 563 -140 l 1
 567 -133 l 1
 567 321 l 1
 243 321 l 1
 243 341 l 1
 567 341 l 1
 597 366 l 1
 652 321 l 1
 627 301 l 1
 627 -50 l 1
EndSplineSet
Validated: 1
EndChar

StartChar: glyph143
Encoding: 983215 983215 143
Width: 1000
VWidth: 0
Flags: W
HStem: 721 20<243 567>
VStem: 567 60<350 701>
LayerCount: 2
Fore
SplineSet
311 142 m 1
 309 143 l 1
 353 184 l 1
 371 188 l 1
 367 170 l 2
 370 167 576 -55 635 -126 c 2
 664 -162 l 1
 657 -169 l 1
 616 -138 595 -119 413 47 c 0
 390 68 367 89 345 110 c 2
 315 138 l 1
 311 142 l 1
627 350 m 1
 657 395 714 473 749 518 c 1
 757 513 l 1
 745 488 734 463 723 438 c 0
 722 436 652 302 638 274 c 2
 629 255 l 1
 637 237 l 1
 619 236 l 1
 563 260 l 1
 567 267 l 1
 567 721 l 1
 243 721 l 1
 243 741 l 1
 567 741 l 1
 597 766 l 1
 652 721 l 1
 627 701 l 1
 627 350 l 1
EndSplineSet
Validated: 1
EndChar

StartChar: glyph144
Encoding: 983216 983216 144
Width: 1000
VWidth: 0
Flags: W
HStem: -10 20<329 551> 721 20<243 567>
VStem: 567 60<350 701>
LayerCount: 2
Fore
SplineSet
551 10 m 1
 601 60 l 1
 661 10 l 1
 661 -10 l 1
 329 -10 l 1
 329 10 l 1
 551 10 l 1
627 350 m 1
 657 395 714 473 749 518 c 1
 757 513 l 1
 745 488 734 463 723 438 c 0
 722 436 652 302 638 274 c 2
 629 255 l 1
 637 237 l 1
 619 236 l 1
 563 260 l 1
 567 267 l 1
 567 721 l 1
 243 721 l 1
 243 741 l 1
 567 741 l 1
 597 766 l 1
 652 721 l 1
 627 701 l 1
 627 350 l 1
EndSplineSet
Validated: 1
EndChar

StartChar: glyph145
Encoding: 983217 983217 145
Width: 1000
VWidth: 0
Flags: W
HStem: 721 20<243 567>
VStem: 567 60<350 701>
LayerCount: 2
Fore
SplineSet
637 186 m 1
 679 142 l 1
 682 124 l 1
 664 128 l 1
 646 111 629 94 608 75 c 0
 606 73 464 -57 439 -78 c 0
 416 -99 393 -120 369 -140 c 2
 332 -169 l 1
 325 -162 l 1
 385 -90 l 1
 384 -91 l 1
 384 -91 395 -78 510 48 c 0
 511 49 634 179 637 186 c 1
627 350 m 1
 657 395 714 473 749 518 c 1
 757 513 l 1
 745 488 734 463 723 438 c 0
 722 436 652 302 638 274 c 2
 629 255 l 1
 637 237 l 1
 619 236 l 1
 563 260 l 1
 567 267 l 1
 567 721 l 1
 243 721 l 1
 243 741 l 1
 567 741 l 1
 597 766 l 1
 652 721 l 1
 627 701 l 1
 627 350 l 1
EndSplineSet
Validated: 1
EndChar

StartChar: glyph146
Encoding: 983218 983218 146
Width: 1000
VWidth: 0
Flags: W
HStem: 321 20<243 567>
VStem: 567 60<-50 301>
LayerCount: 2
Fore
SplineSet
627 -50 m 1
 657 -5 714 73 749 118 c 1
 757 113 l 1
 745 88 734 63 723 38 c 0
 722 36 652 -98 638 -126 c 2
 629 -145 l 1
 637 -163 l 1
 619 -164 l 1
 563 -140 l 1
 567 -133 l 1
 567 321 l 1
 243 321 l 1
 243 341 l 1
 567 341 l 1
 597 366 l 1
 652 321 l 1
 627 301 l 1
 627 -50 l 1
335 768 m 1
 365 753 l 1
 396 734 l 2
 418 719 439 703 460 686 c 2
 493 658 l 2
 516 635 540 613 563 590 c 0
 588 563 612 537 637 510 c 2
 675 464 l 1
 681 442 l 1
 670 422 l 1
 648 416 l 1
 628 428 l 1
 605 457 582 487 559 516 c 0
 537 542 515 568 494 594 c 0
 425 670 377 720 331 760 c 1
 335 768 l 1
EndSplineSet
Validated: 1
EndChar

StartChar: glyph147
Encoding: 983219 983219 147
Width: 1000
VWidth: 0
Flags: W
HStem: 321 20<243 567>
VStem: 567 60<-50 301>
LayerCount: 2
Fore
SplineSet
627 -50 m 1
 657 -5 714 73 749 118 c 1
 757 113 l 1
 745 88 734 63 723 38 c 0
 722 36 652 -98 638 -126 c 2
 629 -145 l 1
 637 -163 l 1
 619 -164 l 1
 563 -140 l 1
 567 -133 l 1
 567 321 l 1
 243 321 l 1
 243 341 l 1
 567 341 l 1
 597 366 l 1
 652 321 l 1
 627 301 l 1
 627 -50 l 1
477 613 m 1
 407 688 366 729 331 760 c 1
 335 768 l 1
 365 753 l 1
 396 734 l 2
 418 719 439 703 460 686 c 2
 493 658 l 1
 509 642 l 1
 510 643 543 675 621 740 c 2
 657 770 l 1
 664 763 l 1
 628 715 538 616 537 615 c 1
 559 595 579 573 599 551 c 2
 637 510 l 1
 675 464 l 1
 681 442 l 1
 670 422 l 1
 648 416 l 1
 628 428 l 1
 605 457 582 487 561 513 c 0
 541 537 523 558 505 580 c 1
 504 579 413 479 385 450 c 2
 367 431 l 1
 371 413 l 1
 353 416 l 1
 304 452 l 1
 316 464 402 545 447 585 c 2
 477 613 l 1
EndSplineSet
Validated: 1
EndChar

StartChar: glyph148
Encoding: 983220 983220 148
Width: 1000
VWidth: 0
Flags: W
HStem: 321 20<243 567> 590 20<329 551>
VStem: 567 60<-50 301>
LayerCount: 2
Fore
SplineSet
551 610 m 1
 601 660 l 1
 661 610 l 1
 661 590 l 1
 329 590 l 1
 329 610 l 1
 551 610 l 1
627 -50 m 1
 657 -5 714 73 749 118 c 1
 757 113 l 1
 745 88 734 63 723 38 c 0
 722 36 652 -98 638 -126 c 2
 629 -145 l 1
 637 -163 l 1
 619 -164 l 1
 563 -140 l 1
 567 -133 l 1
 567 321 l 1
 243 321 l 1
 243 341 l 1
 567 341 l 1
 597 366 l 1
 652 321 l 1
 627 301 l 1
 627 -50 l 1
EndSplineSet
Validated: 1
EndChar

StartChar: glyph149
Encoding: 983221 983221 149
Width: 1000
VWidth: 0
Flags: W
HStem: 327 20<305 330 341 633>
LayerCount: 2
Fore
SplineSet
366 431 m 1
 370 413 l 1
 352 416 l 1
 303 452 l 1
 342 491 484 619 514 648 c 0
 538 668 561 689 584 710 c 2
 656 770 l 1
 663 763 l 1
 649 744 649 744 548 628 c 0
 544 623 413 480 384 450 c 2
 366 431 l 1
494 73 m 1
 510 93 523 117 538 138 c 2
 575 203 l 1
 610 273 l 1
 633 327 l 1
 341 327 l 1
 361 286 381 246 402 206 c 2
 436 150 l 1
 474 98 l 1
 494 73 l 1
714 -173 m 1
 660 -144 l 1
 609 -110 l 1
 561 -70 l 1
 517 -27 l 1
 493 1 l 1
 476 -15 460 -32 443 -48 c 2
 393 -88 l 1
 341 -120 l 1
 287 -146 l 1
 232 -165 l 1
 228 -156 l 1
 278 -130 l 1
 326 -98 l 1
 372 -62 l 1
 417 -20 l 1
 466 36 l 1
 439 74 l 1
 406 132 l 1
 376 194 l 1
 350 260 l 1
 330 327 l 1
 305 327 l 1
 305 347 l 1
 641 347 l 1
 643 348 l 1
 643 349 l 1
 671 372 l 1
 726 327 l 1
 701 312 l 1
 690 307 l 1
 669 262 646 219 622 176 c 2
 580 111 l 2
 562 87 544 62 525 38 c 1
 553 9 l 1
 596 -28 l 1
 642 -61 l 1
 690 -89 l 2
 717 -101 745 -114 772 -126 c 1
 714 -173 l 1
EndSplineSet
Validated: 1
EndChar

StartChar: glyph150
Encoding: 983222 983222 150
Width: 1000
VWidth: 0
Flags: W
HStem: 727 20<305 330 341 633>
LayerCount: 2
Fore
SplineSet
310 142 m 1
 308 143 l 1
 352 184 l 1
 370 188 l 1
 366 170 l 2
 369 167 575 -55 634 -126 c 2
 663 -162 l 1
 656 -169 l 1
 615 -138 594 -119 412 47 c 0
 389 68 366 89 344 110 c 2
 314 138 l 1
 310 142 l 1
494 473 m 1
 510 493 523 517 538 538 c 2
 575 603 l 1
 610 673 l 1
 633 727 l 1
 341 727 l 1
 361 686 381 646 402 606 c 2
 436 550 l 1
 474 498 l 1
 494 473 l 1
714 227 m 1
 660 256 l 1
 609 290 l 1
 561 330 l 1
 517 373 l 1
 493 401 l 1
 476 385 460 368 443 352 c 2
 393 312 l 1
 341 280 l 1
 287 254 l 1
 232 235 l 1
 228 244 l 1
 278 270 l 1
 326 302 l 1
 372 338 l 1
 417 380 l 1
 466 436 l 1
 439 474 l 1
 406 532 l 1
 376 594 l 1
 350 660 l 1
 330 727 l 1
 305 727 l 1
 305 747 l 1
 641 747 l 1
 643 748 l 1
 643 749 l 1
 671 772 l 1
 726 727 l 1
 701 712 l 1
 690 707 l 1
 669 662 646 619 622 576 c 2
 580 511 l 2
 562 487 544 462 525 438 c 1
 553 409 l 1
 596 372 l 1
 642 339 l 1
 690 311 l 2
 717 299 745 286 772 274 c 1
 714 227 l 1
EndSplineSet
Validated: 1
EndChar

StartChar: glyph151
Encoding: 983223 983223 151
Width: 1000
VWidth: 0
Flags: W
HStem: -10 20<328 550> 727 20<305 330 341 633>
LayerCount: 2
Fore
SplineSet
550 10 m 1
 600 60 l 1
 660 10 l 1
 660 -10 l 1
 328 -10 l 1
 328 10 l 1
 550 10 l 1
494 473 m 1
 510 493 523 517 538 538 c 2
 575 603 l 1
 610 673 l 1
 633 727 l 1
 341 727 l 1
 361 686 381 646 402 606 c 2
 436 550 l 1
 474 498 l 1
 494 473 l 1
714 227 m 1
 660 256 l 1
 609 290 l 1
 561 330 l 1
 517 373 l 1
 493 401 l 1
 476 385 460 368 443 352 c 2
 393 312 l 1
 341 280 l 1
 287 254 l 1
 232 235 l 1
 228 244 l 1
 278 270 l 1
 326 302 l 1
 372 338 l 1
 417 380 l 1
 466 436 l 1
 439 474 l 1
 406 532 l 1
 376 594 l 1
 350 660 l 1
 330 727 l 1
 305 727 l 1
 305 747 l 1
 641 747 l 1
 643 748 l 1
 643 749 l 1
 671 772 l 1
 726 727 l 1
 701 712 l 1
 690 707 l 1
 669 662 646 619 622 576 c 2
 580 511 l 2
 562 487 544 462 525 438 c 1
 553 409 l 1
 596 372 l 1
 642 339 l 1
 690 311 l 2
 717 299 745 286 772 274 c 1
 714 227 l 1
EndSplineSet
Validated: 1
EndChar

StartChar: glyph152
Encoding: 983224 983224 152
Width: 1000
VWidth: 0
Flags: W
HStem: 727 20<305 330 341 633>
LayerCount: 2
Fore
SplineSet
636 186 m 1
 678 142 l 1
 681 124 l 1
 663 128 l 1
 645 111 628 94 607 75 c 0
 605 73 463 -57 438 -78 c 0
 415 -99 392 -120 368 -140 c 2
 331 -169 l 1
 324 -162 l 1
 384 -90 l 1
 383 -91 l 1
 383 -91 394 -78 509 48 c 0
 510 49 633 179 636 186 c 1
494 473 m 1
 510 493 523 517 538 538 c 2
 575 603 l 1
 610 673 l 1
 633 727 l 1
 341 727 l 1
 361 686 381 646 402 606 c 2
 436 550 l 1
 474 498 l 1
 494 473 l 1
714 227 m 1
 660 256 l 1
 609 290 l 1
 561 330 l 1
 517 373 l 1
 493 401 l 1
 476 385 460 368 443 352 c 2
 393 312 l 1
 341 280 l 1
 287 254 l 1
 232 235 l 1
 228 244 l 1
 278 270 l 1
 326 302 l 1
 372 338 l 1
 417 380 l 1
 466 436 l 1
 439 474 l 1
 406 532 l 1
 376 594 l 1
 350 660 l 1
 330 727 l 1
 305 727 l 1
 305 747 l 1
 641 747 l 1
 643 748 l 1
 643 749 l 1
 671 772 l 1
 726 727 l 1
 701 712 l 1
 690 707 l 1
 669 662 646 619 622 576 c 2
 580 511 l 2
 562 487 544 462 525 438 c 1
 553 409 l 1
 596 372 l 1
 642 339 l 1
 690 311 l 2
 717 299 745 286 772 274 c 1
 714 227 l 1
EndSplineSet
Validated: 1
EndChar

StartChar: glyph153
Encoding: 983225 983225 153
Width: 1000
VWidth: 0
Flags: W
HStem: 327 20<305 330 341 633>
LayerCount: 2
Fore
SplineSet
494 73 m 1
 510 93 523 117 538 138 c 2
 575 203 l 1
 610 273 l 1
 633 327 l 1
 341 327 l 1
 361 286 381 246 402 206 c 2
 436 150 l 1
 474 98 l 1
 494 73 l 1
714 -173 m 1
 660 -144 l 1
 609 -110 l 1
 561 -70 l 1
 517 -27 l 1
 493 1 l 1
 476 -15 460 -32 443 -48 c 2
 393 -88 l 1
 341 -120 l 1
 287 -146 l 1
 232 -165 l 1
 228 -156 l 1
 278 -130 l 1
 326 -98 l 1
 372 -62 l 1
 417 -20 l 1
 466 36 l 1
 439 74 l 1
 406 132 l 1
 376 194 l 1
 350 260 l 1
 330 327 l 1
 305 327 l 1
 305 347 l 1
 641 347 l 1
 643 348 l 1
 643 349 l 1
 671 372 l 1
 726 327 l 1
 701 312 l 1
 690 307 l 1
 669 262 646 219 622 176 c 2
 580 111 l 2
 562 87 544 62 525 38 c 1
 553 9 l 1
 596 -28 l 1
 642 -61 l 1
 690 -89 l 2
 717 -101 745 -114 772 -126 c 1
 714 -173 l 1
334 768 m 1
 364 753 l 1
 395 734 l 2
 417 719 438 703 459 686 c 2
 492 658 l 2
 515 635 539 613 562 590 c 0
 587 563 611 537 636 510 c 2
 674 464 l 1
 680 442 l 1
 669 422 l 1
 647 416 l 1
 627 428 l 1
 604 457 581 487 558 516 c 0
 536 542 514 568 493 594 c 0
 424 670 376 720 330 760 c 1
 334 768 l 1
EndSplineSet
Validated: 1
EndChar

StartChar: glyph154
Encoding: 983226 983226 154
Width: 1000
VWidth: 0
Flags: W
HStem: 327 20<305 330 341 633>
LayerCount: 2
Fore
SplineSet
494 73 m 1
 510 93 523 117 538 138 c 2
 575 203 l 1
 610 273 l 1
 633 327 l 1
 341 327 l 1
 361 286 381 246 402 206 c 2
 436 150 l 1
 474 98 l 1
 494 73 l 1
714 -173 m 1
 660 -144 l 1
 609 -110 l 1
 561 -70 l 1
 517 -27 l 1
 493 1 l 1
 476 -15 460 -32 443 -48 c 2
 393 -88 l 1
 341 -120 l 1
 287 -146 l 1
 232 -165 l 1
 228 -156 l 1
 278 -130 l 1
 326 -98 l 1
 372 -62 l 1
 417 -20 l 1
 466 36 l 1
 439 74 l 1
 406 132 l 1
 376 194 l 1
 350 260 l 1
 330 327 l 1
 305 327 l 1
 305 347 l 1
 641 347 l 1
 643 348 l 1
 643 349 l 1
 671 372 l 1
 726 327 l 1
 701 312 l 1
 690 307 l 1
 669 262 646 219 622 176 c 2
 580 111 l 2
 562 87 544 62 525 38 c 1
 553 9 l 1
 596 -28 l 1
 642 -61 l 1
 690 -89 l 2
 717 -101 745 -114 772 -126 c 1
 714 -173 l 1
476 613 m 1
 406 688 365 729 330 760 c 1
 334 768 l 1
 364 753 l 1
 395 734 l 2
 417 719 438 703 459 686 c 2
 492 658 l 1
 508 642 l 1
 509 643 542 675 620 740 c 2
 656 770 l 1
 663 763 l 1
 627 715 537 616 536 615 c 1
 558 595 578 573 598 551 c 2
 636 510 l 1
 674 464 l 1
 680 442 l 1
 669 422 l 1
 647 416 l 1
 627 428 l 1
 604 457 581 487 560 513 c 0
 540 537 522 558 504 580 c 1
 503 579 412 479 384 450 c 2
 366 431 l 1
 370 413 l 1
 352 416 l 1
 303 452 l 1
 315 464 401 545 446 585 c 2
 476 613 l 1
EndSplineSet
Validated: 1
EndChar

StartChar: glyph155
Encoding: 983227 983227 155
Width: 1000
VWidth: 0
Flags: W
HStem: 327 20<305 330 341 633> 590 20<328 550>
LayerCount: 2
Fore
SplineSet
550 610 m 1
 600 660 l 1
 660 610 l 1
 660 590 l 1
 328 590 l 1
 328 610 l 1
 550 610 l 1
494 73 m 1
 510 93 523 117 538 138 c 2
 575 203 l 1
 610 273 l 1
 633 327 l 1
 341 327 l 1
 361 286 381 246 402 206 c 2
 436 150 l 1
 474 98 l 1
 494 73 l 1
714 -173 m 1
 660 -144 l 1
 609 -110 l 1
 561 -70 l 1
 517 -27 l 1
 493 1 l 1
 476 -15 460 -32 443 -48 c 2
 393 -88 l 1
 341 -120 l 1
 287 -146 l 1
 232 -165 l 1
 228 -156 l 1
 278 -130 l 1
 326 -98 l 1
 372 -62 l 1
 417 -20 l 1
 466 36 l 1
 439 74 l 1
 406 132 l 1
 376 194 l 1
 350 260 l 1
 330 327 l 1
 305 327 l 1
 305 347 l 1
 641 347 l 1
 643 348 l 1
 643 349 l 1
 671 372 l 1
 726 327 l 1
 701 312 l 1
 690 307 l 1
 669 262 646 219 622 176 c 2
 580 111 l 2
 562 87 544 62 525 38 c 1
 553 9 l 1
 596 -28 l 1
 642 -61 l 1
 690 -89 l 2
 717 -101 745 -114 772 -126 c 1
 714 -173 l 1
EndSplineSet
Validated: 1
EndChar

StartChar: glyph156
Encoding: 983228 983228 156
Width: 1000
VWidth: 0
Flags: W
HStem: 114 20<242 470 530 648>
VStem: 470 60<-140 114 134 325>
LayerCount: 2
Fore
SplineSet
372 431 m 1
 376 413 l 1
 358 416 l 1
 309 452 l 1
 348 491 490 619 520 648 c 0
 544 668 567 689 590 710 c 2
 662 770 l 1
 669 763 l 1
 655 744 655 744 554 628 c 0
 550 623 419 480 390 450 c 2
 372 431 l 1
530 325 m 1
 530 134 l 1
 648 134 l 1
 698 184 l 1
 758 134 l 1
 758 114 l 1
 530 114 l 1
 530 -140 l 1
 470 -170 l 1
 470 114 l 1
 242 114 l 1
 242 134 l 1
 470 134 l 1
 470 354 l 1
 530 344 l 1
 545 334 l 1
 530 325 l 1
EndSplineSet
Validated: 1
EndChar

StartChar: glyph157
Encoding: 983229 983229 157
Width: 1000
VWidth: 0
Flags: W
HStem: 514 20<242 470 530 648>
VStem: 470 60<260 514 534 725>
LayerCount: 2
Fore
SplineSet
316 142 m 1
 314 143 l 1
 358 184 l 1
 376 188 l 1
 372 170 l 2
 375 167 581 -55 640 -126 c 2
 669 -162 l 1
 662 -169 l 1
 621 -138 600 -119 418 47 c 0
 395 68 372 89 350 110 c 2
 320 138 l 1
 316 142 l 1
530 725 m 1
 530 534 l 1
 648 534 l 1
 698 584 l 1
 758 534 l 1
 758 514 l 1
 530 514 l 1
 530 260 l 1
 470 230 l 1
 470 514 l 1
 242 514 l 1
 242 534 l 1
 470 534 l 1
 470 754 l 1
 530 744 l 1
 545 734 l 1
 530 725 l 1
EndSplineSet
Validated: 1
EndChar

StartChar: glyph158
Encoding: 983230 983230 158
Width: 1000
VWidth: 0
Flags: W
HStem: -10 20<334 556> 514 20<242 470 530 648>
VStem: 470 60<260 514 534 725>
LayerCount: 2
Fore
SplineSet
556 10 m 1
 606 60 l 1
 666 10 l 1
 666 -10 l 1
 334 -10 l 1
 334 10 l 1
 556 10 l 1
530 725 m 1
 530 534 l 1
 648 534 l 1
 698 584 l 1
 758 534 l 1
 758 514 l 1
 530 514 l 1
 530 260 l 1
 470 230 l 1
 470 514 l 1
 242 514 l 1
 242 534 l 1
 470 534 l 1
 470 754 l 1
 530 744 l 1
 545 734 l 1
 530 725 l 1
EndSplineSet
Validated: 1
EndChar

StartChar: glyph159
Encoding: 983231 983231 159
Width: 1000
VWidth: 0
Flags: W
HStem: 514 20<242 470 530 648>
VStem: 470 60<260 514 534 725>
LayerCount: 2
Fore
SplineSet
642 186 m 1
 684 142 l 1
 687 124 l 1
 669 128 l 1
 651 111 634 94 613 75 c 0
 611 73 469 -57 444 -78 c 0
 421 -99 398 -120 374 -140 c 2
 337 -169 l 1
 330 -162 l 1
 390 -90 l 1
 389 -91 l 1
 389 -91 400 -78 515 48 c 0
 516 49 639 179 642 186 c 1
530 725 m 1
 530 534 l 1
 648 534 l 1
 698 584 l 1
 758 534 l 1
 758 514 l 1
 530 514 l 1
 530 260 l 1
 470 230 l 1
 470 514 l 1
 242 514 l 1
 242 534 l 1
 470 534 l 1
 470 754 l 1
 530 744 l 1
 545 734 l 1
 530 725 l 1
EndSplineSet
Validated: 1
EndChar

StartChar: glyph160
Encoding: 983232 983232 160
Width: 1000
VWidth: 0
Flags: W
HStem: 114 20<242 470 530 648>
VStem: 470 60<-140 114 134 325>
LayerCount: 2
Fore
SplineSet
530 325 m 1
 530 134 l 1
 648 134 l 1
 698 184 l 1
 758 134 l 1
 758 114 l 1
 530 114 l 1
 530 -140 l 1
 470 -170 l 1
 470 114 l 1
 242 114 l 1
 242 134 l 1
 470 134 l 1
 470 354 l 1
 530 344 l 1
 545 334 l 1
 530 325 l 1
340 768 m 1
 370 753 l 1
 401 734 l 2
 423 719 444 703 465 686 c 2
 498 658 l 2
 521 635 545 613 568 590 c 0
 593 563 617 537 642 510 c 2
 680 464 l 1
 686 442 l 1
 675 422 l 1
 653 416 l 1
 633 428 l 1
 610 457 587 487 564 516 c 0
 542 542 520 568 499 594 c 0
 430 670 382 720 336 760 c 1
 340 768 l 1
EndSplineSet
Validated: 1
EndChar

StartChar: glyph161
Encoding: 983233 983233 161
Width: 1000
VWidth: 0
Flags: W
HStem: 114 20<242 470 530 648>
VStem: 470 60<-140 114 134 325>
LayerCount: 2
Fore
SplineSet
530 325 m 1
 530 134 l 1
 648 134 l 1
 698 184 l 1
 758 134 l 1
 758 114 l 1
 530 114 l 1
 530 -140 l 1
 470 -170 l 1
 470 114 l 1
 242 114 l 1
 242 134 l 1
 470 134 l 1
 470 354 l 1
 530 344 l 1
 545 334 l 1
 530 325 l 1
482 613 m 1
 412 688 371 729 336 760 c 1
 340 768 l 1
 370 753 l 1
 401 734 l 2
 423 719 444 703 465 686 c 2
 498 658 l 1
 514 642 l 1
 515 643 548 675 626 740 c 2
 662 770 l 1
 669 763 l 1
 633 715 543 616 542 615 c 1
 564 595 584 573 604 551 c 2
 642 510 l 1
 680 464 l 1
 686 442 l 1
 675 422 l 1
 653 416 l 1
 633 428 l 1
 610 457 587 487 566 513 c 0
 546 537 528 558 510 580 c 1
 509 579 418 479 390 450 c 2
 372 431 l 1
 376 413 l 1
 358 416 l 1
 309 452 l 1
 321 464 407 545 452 585 c 2
 482 613 l 1
EndSplineSet
Validated: 1
EndChar

StartChar: glyph162
Encoding: 983234 983234 162
Width: 1000
VWidth: 0
Flags: W
HStem: 114 20<242 470 530 648> 590 20<334 556>
VStem: 470 60<-140 114 134 325>
LayerCount: 2
Fore
SplineSet
556 610 m 1
 606 660 l 1
 666 610 l 1
 666 590 l 1
 334 590 l 1
 334 610 l 1
 556 610 l 1
530 325 m 1
 530 134 l 1
 648 134 l 1
 698 184 l 1
 758 134 l 1
 758 114 l 1
 530 114 l 1
 530 -140 l 1
 470 -170 l 1
 470 114 l 1
 242 114 l 1
 242 134 l 1
 470 134 l 1
 470 354 l 1
 530 344 l 1
 545 334 l 1
 530 325 l 1
EndSplineSet
Validated: 1
EndChar

StartChar: glyph163
Encoding: 983235 983235 163
Width: 1000
VWidth: 0
Flags: W
HStem: 111 20<290 684>
LayerCount: 2
Fore
SplineSet
364 431 m 1
 368 413 l 1
 350 416 l 1
 301 452 l 1
 340 491 482 619 512 648 c 0
 536 668 559 689 582 710 c 2
 654 770 l 1
 661 763 l 1
 647 744 647 744 546 628 c 0
 542 623 411 480 382 450 c 2
 364 431 l 1
693 131 m 2
 695 132 696 134 696 136 c 1
 698 135 l 1
 723 156 l 1
 778 111 l 1
 753 96 l 1
 738 90 l 2
 737 89 682 12 626 -44 c 2
 598 -74 l 2
 576 -95 554 -115 532 -135 c 2
 495 -167 l 1
 488 -160 l 1
 584 -40 584 -40 640 40 c 2
 658 66 l 2
 667 81 676 96 684 111 c 1
 286 111 l 1
 286 106 l 1
 222 86 l 1
 268 368 l 1
 326 348 l 1
 338 336 l 1
 323 331 l 1
 290 131 l 1
 693 131 l 2
EndSplineSet
Validated: 1
EndChar

StartChar: glyph164
Encoding: 983236 983236 164
Width: 1000
VWidth: 0
Flags: W
HStem: 511 20<290 684>
LayerCount: 2
Fore
SplineSet
308 142 m 1
 306 143 l 1
 350 184 l 1
 368 188 l 1
 364 170 l 2
 367 167 573 -55 632 -126 c 2
 661 -162 l 1
 654 -169 l 1
 613 -138 592 -119 410 47 c 0
 387 68 364 89 342 110 c 2
 312 138 l 1
 308 142 l 1
693 531 m 2
 695 532 696 534 696 536 c 1
 698 535 l 1
 723 556 l 1
 778 511 l 1
 753 496 l 1
 738 490 l 2
 737 489 682 412 626 356 c 2
 598 326 l 2
 576 305 554 285 532 265 c 2
 495 233 l 1
 488 240 l 1
 584 360 584 360 640 440 c 2
 658 466 l 2
 667 481 676 496 684 511 c 1
 286 511 l 1
 286 506 l 1
 222 486 l 1
 268 768 l 1
 326 748 l 1
 338 736 l 1
 323 731 l 1
 290 531 l 1
 693 531 l 2
EndSplineSet
Validated: 1
EndChar

StartChar: glyph165
Encoding: 983237 983237 165
Width: 1000
VWidth: 0
Flags: W
HStem: -10 20<326 548> 511 20<290 684>
LayerCount: 2
Fore
SplineSet
548 10 m 1
 598 60 l 1
 658 10 l 1
 658 -10 l 1
 326 -10 l 1
 326 10 l 1
 548 10 l 1
693 531 m 2
 695 532 696 534 696 536 c 1
 698 535 l 1
 723 556 l 1
 778 511 l 1
 753 496 l 1
 738 490 l 2
 737 489 682 412 626 356 c 2
 598 326 l 2
 576 305 554 285 532 265 c 2
 495 233 l 1
 488 240 l 1
 584 360 584 360 640 440 c 2
 658 466 l 2
 667 481 676 496 684 511 c 1
 286 511 l 1
 286 506 l 1
 222 486 l 1
 268 768 l 1
 326 748 l 1
 338 736 l 1
 323 731 l 1
 290 531 l 1
 693 531 l 2
EndSplineSet
Validated: 1
EndChar

StartChar: glyph166
Encoding: 983238 983238 166
Width: 1000
VWidth: 0
Flags: W
HStem: 511 20<290 684>
LayerCount: 2
Fore
SplineSet
634 186 m 1
 676 142 l 1
 679 124 l 1
 661 128 l 1
 643 111 626 94 605 75 c 0
 603 73 461 -57 436 -78 c 0
 413 -99 390 -120 366 -140 c 2
 329 -169 l 1
 322 -162 l 1
 382 -90 l 1
 381 -91 l 1
 381 -91 392 -78 507 48 c 0
 508 49 631 179 634 186 c 1
693 531 m 2
 695 532 696 534 696 536 c 1
 698 535 l 1
 723 556 l 1
 778 511 l 1
 753 496 l 1
 738 490 l 2
 737 489 682 412 626 356 c 2
 598 326 l 2
 576 305 554 285 532 265 c 2
 495 233 l 1
 488 240 l 1
 584 360 584 360 640 440 c 2
 658 466 l 2
 667 481 676 496 684 511 c 1
 286 511 l 1
 286 506 l 1
 222 486 l 1
 268 768 l 1
 326 748 l 1
 338 736 l 1
 323 731 l 1
 290 531 l 1
 693 531 l 2
EndSplineSet
Validated: 1
EndChar

StartChar: glyph167
Encoding: 983239 983239 167
Width: 1000
VWidth: 0
Flags: W
HStem: 111 20<290 684>
LayerCount: 2
Fore
SplineSet
693 131 m 2
 695 132 696 134 696 136 c 1
 698 135 l 1
 723 156 l 1
 778 111 l 1
 753 96 l 1
 738 90 l 2
 737 89 682 12 626 -44 c 2
 598 -74 l 2
 576 -95 554 -115 532 -135 c 2
 495 -167 l 1
 488 -160 l 1
 584 -40 584 -40 640 40 c 2
 658 66 l 2
 667 81 676 96 684 111 c 1
 286 111 l 1
 286 106 l 1
 222 86 l 1
 268 368 l 1
 326 348 l 1
 338 336 l 1
 323 331 l 1
 290 131 l 1
 693 131 l 2
332 768 m 1
 362 753 l 1
 393 734 l 2
 415 719 436 703 457 686 c 2
 490 658 l 2
 513 635 537 613 560 590 c 0
 585 563 609 537 634 510 c 2
 672 464 l 1
 678 442 l 1
 667 422 l 1
 645 416 l 1
 625 428 l 1
 602 457 579 487 556 516 c 0
 534 542 512 568 491 594 c 0
 422 670 374 720 328 760 c 1
 332 768 l 1
EndSplineSet
Validated: 1
EndChar

StartChar: glyph168
Encoding: 983240 983240 168
Width: 1000
VWidth: 0
Flags: W
HStem: 111 20<290 684>
LayerCount: 2
Fore
SplineSet
693 131 m 2
 695 132 696 134 696 136 c 1
 698 135 l 1
 723 156 l 1
 778 111 l 1
 753 96 l 1
 738 90 l 2
 737 89 682 12 626 -44 c 2
 598 -74 l 2
 576 -95 554 -115 532 -135 c 2
 495 -167 l 1
 488 -160 l 1
 584 -40 584 -40 640 40 c 2
 658 66 l 2
 667 81 676 96 684 111 c 1
 286 111 l 1
 286 106 l 1
 222 86 l 1
 268 368 l 1
 326 348 l 1
 338 336 l 1
 323 331 l 1
 290 131 l 1
 693 131 l 2
474 613 m 1
 404 688 363 729 328 760 c 1
 332 768 l 1
 362 753 l 1
 393 734 l 2
 415 719 436 703 457 686 c 2
 490 658 l 1
 506 642 l 1
 507 643 540 675 618 740 c 2
 654 770 l 1
 661 763 l 1
 625 715 535 616 534 615 c 1
 556 595 576 573 596 551 c 2
 634 510 l 1
 672 464 l 1
 678 442 l 1
 667 422 l 1
 645 416 l 1
 625 428 l 1
 602 457 579 487 558 513 c 0
 538 537 520 558 502 580 c 1
 501 579 410 479 382 450 c 2
 364 431 l 1
 368 413 l 1
 350 416 l 1
 301 452 l 1
 313 464 399 545 444 585 c 2
 474 613 l 1
EndSplineSet
Validated: 1
EndChar

StartChar: glyph169
Encoding: 983241 983241 169
Width: 1000
VWidth: 0
Flags: W
HStem: 111 20<290 684> 590 20<326 548>
LayerCount: 2
Fore
SplineSet
548 610 m 1
 598 660 l 1
 658 610 l 1
 658 590 l 1
 326 590 l 1
 326 610 l 1
 548 610 l 1
693 131 m 2
 695 132 696 134 696 136 c 1
 698 135 l 1
 723 156 l 1
 778 111 l 1
 753 96 l 1
 738 90 l 2
 737 89 682 12 626 -44 c 2
 598 -74 l 2
 576 -95 554 -115 532 -135 c 2
 495 -167 l 1
 488 -160 l 1
 584 -40 584 -40 640 40 c 2
 658 66 l 2
 667 81 676 96 684 111 c 1
 286 111 l 1
 286 106 l 1
 222 86 l 1
 268 368 l 1
 326 348 l 1
 338 336 l 1
 323 331 l 1
 290 131 l 1
 693 131 l 2
EndSplineSet
Validated: 1
EndChar

StartChar: glyph170
Encoding: 983242 983242 170
Width: 1000
VWidth: 0
Flags: W
HStem: -159 9<284.444 296.433> 102 20<384 646> 330 20<240 627>
LayerCount: 2
Fore
SplineSet
358 431 m 1
 362 413 l 1
 344 416 l 1
 295 452 l 1
 334 491 476 619 506 648 c 0
 530 668 553 689 576 710 c 2
 648 770 l 1
 655 763 l 1
 641 744 641 744 540 628 c 0
 536 623 405 480 376 450 c 2
 358 431 l 1
657 124 m 1
 684 147 l 1
 739 102 l 1
 714 87 l 1
 701 81 l 1
 688 59 l 1
 660 22 l 1
 628 -12 l 1
 592 -44 l 1
 551 -71 l 1
 506 -96 l 1
 457 -117 l 1
 404 -134 l 1
 347 -149 l 1
 286 -159 l 1
 284 -150 l 1
 322 -137 359 -124 395 -110 c 2
 444 -86 l 1
 488 -62 l 1
 527 -36 l 1
 562 -8 l 1
 592 22 l 1
 618 54 l 1
 639 88 l 1
 646 102 l 1
 349 102 l 1
 312 81 l 1
 256 118 l 1
 627 330 l 1
 240 330 l 1
 240 350 l 1
 675 350 l 1
 705 375 l 1
 723 360 742 345 760 330 c 1
 735 315 l 1
 681 292 l 1
 384 122 l 1
 654 122 l 1
 656 124 l 1
 657 124 l 1
EndSplineSet
Validated: 1
EndChar

StartChar: glyph171
Encoding: 983243 983243 171
Width: 1000
VWidth: 0
Flags: W
HStem: 241 9<284.444 296.433> 502 20<384 646> 730 20<240 627>
LayerCount: 2
Fore
SplineSet
302 142 m 1
 300 143 l 1
 344 184 l 1
 362 188 l 1
 358 170 l 2
 361 167 567 -55 626 -126 c 2
 655 -162 l 1
 648 -169 l 1
 607 -138 586 -119 404 47 c 0
 381 68 358 89 336 110 c 2
 306 138 l 1
 302 142 l 1
657 524 m 1
 684 547 l 1
 739 502 l 1
 714 487 l 1
 701 481 l 1
 688 459 l 1
 660 422 l 1
 628 388 l 1
 592 356 l 1
 551 329 l 1
 506 304 l 1
 457 283 l 1
 404 266 l 1
 347 251 l 1
 286 241 l 1
 284 250 l 1
 322 263 359 276 395 290 c 2
 444 314 l 1
 488 338 l 1
 527 364 l 1
 562 392 l 1
 592 422 l 1
 618 454 l 1
 639 488 l 1
 646 502 l 1
 349 502 l 1
 312 481 l 1
 256 518 l 1
 627 730 l 1
 240 730 l 1
 240 750 l 1
 675 750 l 1
 705 775 l 1
 723 760 742 745 760 730 c 1
 735 715 l 1
 681 692 l 1
 384 522 l 1
 654 522 l 1
 656 524 l 1
 657 524 l 1
EndSplineSet
Validated: 1
EndChar

StartChar: glyph172
Encoding: 983244 983244 172
Width: 1000
VWidth: 0
Flags: W
HStem: -10 20<320 542> 241 9<284.444 296.433> 502 20<384 646> 730 20<240 627>
LayerCount: 2
Fore
SplineSet
542 10 m 1
 592 60 l 1
 652 10 l 1
 652 -10 l 1
 320 -10 l 1
 320 10 l 1
 542 10 l 1
657 524 m 1
 684 547 l 1
 739 502 l 1
 714 487 l 1
 701 481 l 1
 688 459 l 1
 660 422 l 1
 628 388 l 1
 592 356 l 1
 551 329 l 1
 506 304 l 1
 457 283 l 1
 404 266 l 1
 347 251 l 1
 286 241 l 1
 284 250 l 1
 322 263 359 276 395 290 c 2
 444 314 l 1
 488 338 l 1
 527 364 l 1
 562 392 l 1
 592 422 l 1
 618 454 l 1
 639 488 l 1
 646 502 l 1
 349 502 l 1
 312 481 l 1
 256 518 l 1
 627 730 l 1
 240 730 l 1
 240 750 l 1
 675 750 l 1
 705 775 l 1
 723 760 742 745 760 730 c 1
 735 715 l 1
 681 692 l 1
 384 522 l 1
 654 522 l 1
 656 524 l 1
 657 524 l 1
EndSplineSet
Validated: 1
EndChar

StartChar: glyph173
Encoding: 983245 983245 173
Width: 1000
VWidth: 0
Flags: W
HStem: 241 9<284.444 296.433> 502 20<384 646> 730 20<240 627>
LayerCount: 2
Fore
SplineSet
628 186 m 1
 670 142 l 1
 673 124 l 1
 655 128 l 1
 637 111 620 94 599 75 c 0
 597 73 455 -57 430 -78 c 0
 407 -99 384 -120 360 -140 c 2
 323 -169 l 1
 316 -162 l 1
 376 -90 l 1
 375 -91 l 1
 375 -91 386 -78 501 48 c 0
 502 49 625 179 628 186 c 1
657 524 m 1
 684 547 l 1
 739 502 l 1
 714 487 l 1
 701 481 l 1
 688 459 l 1
 660 422 l 1
 628 388 l 1
 592 356 l 1
 551 329 l 1
 506 304 l 1
 457 283 l 1
 404 266 l 1
 347 251 l 1
 286 241 l 1
 284 250 l 1
 322 263 359 276 395 290 c 2
 444 314 l 1
 488 338 l 1
 527 364 l 1
 562 392 l 1
 592 422 l 1
 618 454 l 1
 639 488 l 1
 646 502 l 1
 349 502 l 1
 312 481 l 1
 256 518 l 1
 627 730 l 1
 240 730 l 1
 240 750 l 1
 675 750 l 1
 705 775 l 1
 723 760 742 745 760 730 c 1
 735 715 l 1
 681 692 l 1
 384 522 l 1
 654 522 l 1
 656 524 l 1
 657 524 l 1
EndSplineSet
Validated: 1
EndChar

StartChar: glyph174
Encoding: 983246 983246 174
Width: 1000
VWidth: 0
Flags: W
HStem: -159 9<284.444 296.433> 102 20<384 646> 330 20<240 627>
LayerCount: 2
Fore
SplineSet
657 124 m 1
 684 147 l 1
 739 102 l 1
 714 87 l 1
 701 81 l 1
 688 59 l 1
 660 22 l 1
 628 -12 l 1
 592 -44 l 1
 551 -71 l 1
 506 -96 l 1
 457 -117 l 1
 404 -134 l 1
 347 -149 l 1
 286 -159 l 1
 284 -150 l 1
 322 -137 359 -124 395 -110 c 2
 444 -86 l 1
 488 -62 l 1
 527 -36 l 1
 562 -8 l 1
 592 22 l 1
 618 54 l 1
 639 88 l 1
 646 102 l 1
 349 102 l 1
 312 81 l 1
 256 118 l 1
 627 330 l 1
 240 330 l 1
 240 350 l 1
 675 350 l 1
 705 375 l 1
 723 360 742 345 760 330 c 1
 735 315 l 1
 681 292 l 1
 384 122 l 1
 654 122 l 1
 656 124 l 1
 657 124 l 1
326 768 m 1
 356 753 l 1
 387 734 l 2
 409 719 430 703 451 686 c 2
 484 658 l 2
 507 635 531 613 554 590 c 0
 579 563 603 537 628 510 c 2
 666 464 l 1
 672 442 l 1
 661 422 l 1
 639 416 l 1
 619 428 l 1
 596 457 573 487 550 516 c 0
 528 542 506 568 485 594 c 0
 416 670 368 720 322 760 c 1
 326 768 l 1
EndSplineSet
Validated: 1
EndChar

StartChar: glyph175
Encoding: 983247 983247 175
Width: 1000
VWidth: 0
Flags: W
HStem: -159 9<284.444 296.433> 102 20<384 646> 330 20<240 627>
LayerCount: 2
Fore
SplineSet
657 124 m 1
 684 147 l 1
 739 102 l 1
 714 87 l 1
 701 81 l 1
 688 59 l 1
 660 22 l 1
 628 -12 l 1
 592 -44 l 1
 551 -71 l 1
 506 -96 l 1
 457 -117 l 1
 404 -134 l 1
 347 -149 l 1
 286 -159 l 1
 284 -150 l 1
 322 -137 359 -124 395 -110 c 2
 444 -86 l 1
 488 -62 l 1
 527 -36 l 1
 562 -8 l 1
 592 22 l 1
 618 54 l 1
 639 88 l 1
 646 102 l 1
 349 102 l 1
 312 81 l 1
 256 118 l 1
 627 330 l 1
 240 330 l 1
 240 350 l 1
 675 350 l 1
 705 375 l 1
 723 360 742 345 760 330 c 1
 735 315 l 1
 681 292 l 1
 384 122 l 1
 654 122 l 1
 656 124 l 1
 657 124 l 1
468 613 m 1
 398 688 357 729 322 760 c 1
 326 768 l 1
 356 753 l 1
 387 734 l 2
 409 719 430 703 451 686 c 2
 484 658 l 1
 500 642 l 1
 501 643 534 675 612 740 c 2
 648 770 l 1
 655 763 l 1
 619 715 529 616 528 615 c 1
 550 595 570 573 590 551 c 2
 628 510 l 1
 666 464 l 1
 672 442 l 1
 661 422 l 1
 639 416 l 1
 619 428 l 1
 596 457 573 487 552 513 c 0
 532 537 514 558 496 580 c 1
 495 579 404 479 376 450 c 2
 358 431 l 1
 362 413 l 1
 344 416 l 1
 295 452 l 1
 307 464 393 545 438 585 c 2
 468 613 l 1
EndSplineSet
Validated: 1
EndChar

StartChar: glyph176
Encoding: 983248 983248 176
Width: 1000
VWidth: 0
Flags: W
HStem: -159 9<284.444 296.433> 102 20<384 646> 330 20<240 627> 590 20<320 542>
LayerCount: 2
Fore
SplineSet
542 610 m 1
 592 660 l 1
 652 610 l 1
 652 590 l 1
 320 590 l 1
 320 610 l 1
 542 610 l 1
657 124 m 1
 684 147 l 1
 739 102 l 1
 714 87 l 1
 701 81 l 1
 688 59 l 1
 660 22 l 1
 628 -12 l 1
 592 -44 l 1
 551 -71 l 1
 506 -96 l 1
 457 -117 l 1
 404 -134 l 1
 347 -149 l 1
 286 -159 l 1
 284 -150 l 1
 322 -137 359 -124 395 -110 c 2
 444 -86 l 1
 488 -62 l 1
 527 -36 l 1
 562 -8 l 1
 592 22 l 1
 618 54 l 1
 639 88 l 1
 646 102 l 1
 349 102 l 1
 312 81 l 1
 256 118 l 1
 627 330 l 1
 240 330 l 1
 240 350 l 1
 675 350 l 1
 705 375 l 1
 723 360 742 345 760 330 c 1
 735 315 l 1
 681 292 l 1
 384 122 l 1
 654 122 l 1
 656 124 l 1
 657 124 l 1
EndSplineSet
Validated: 1
EndChar

StartChar: glyph177
Encoding: 983249 983249 177
Width: 1000
VWidth: 0
Flags: W
HStem: 195 20<245 530 590 645>
VStem: 530 60<-80 195 215 328>
LayerCount: 2
Fore
SplineSet
372 431 m 1
 376 413 l 1
 358 416 l 1
 309 452 l 1
 348 491 490 619 520 648 c 0
 544 668 567 689 590 710 c 2
 662 770 l 1
 669 763 l 1
 655 744 655 744 554 628 c 0
 550 623 419 480 390 450 c 2
 372 431 l 1
645 215 m 1
 695 265 l 1
 755 215 l 1
 755 195 l 1
 590 195 l 1
 590 -111 l 1
 593 -111 l 1
 590 -122 l 1
 590 -138 l 1
 580 -138 l 1
 550 -175 l 1
 531 -156 552 -176 520 -140 c 2
 505 -123 l 2
 479 -97 450 -69 415 -40 c 0
 404 -31 386 -15 368 1 c 2
 338 28 l 1
 344 35 l 1
 386 10 419 -3 470 -38 c 0
 486 -48 501 -59 517 -70 c 2
 530 -80 l 1
 530 195 l 1
 245 195 l 1
 245 215 l 1
 530 215 l 1
 530 357 l 1
 590 347 l 1
 605 337 l 1
 590 328 l 1
 590 215 l 1
 645 215 l 1
EndSplineSet
Validated: 1
EndChar

StartChar: glyph178
Encoding: 983250 983250 178
Width: 1000
VWidth: 0
Flags: W
HStem: 595 20<245 530 590 645>
VStem: 530 60<320 595 615 728>
LayerCount: 2
Fore
SplineSet
316 142 m 1
 314 143 l 1
 358 184 l 1
 376 188 l 1
 372 170 l 2
 375 167 581 -55 640 -126 c 2
 669 -162 l 1
 662 -169 l 1
 621 -138 600 -119 418 47 c 0
 395 68 372 89 350 110 c 2
 320 138 l 1
 316 142 l 1
645 615 m 1
 695 665 l 1
 755 615 l 1
 755 595 l 1
 590 595 l 1
 590 289 l 1
 593 289 l 1
 590 278 l 1
 590 262 l 1
 580 262 l 1
 550 225 l 1
 531 244 552 224 520 260 c 2
 505 277 l 2
 479 303 450 331 415 360 c 0
 404 369 386 385 368 401 c 2
 338 428 l 1
 344 435 l 1
 386 410 419 397 470 362 c 0
 486 352 501 341 517 330 c 2
 530 320 l 1
 530 595 l 1
 245 595 l 1
 245 615 l 1
 530 615 l 1
 530 757 l 1
 590 747 l 1
 605 737 l 1
 590 728 l 1
 590 615 l 1
 645 615 l 1
EndSplineSet
Validated: 1
EndChar

StartChar: glyph179
Encoding: 983251 983251 179
Width: 1000
VWidth: 0
Flags: W
HStem: -10 20<334 556> 595 20<245 530 590 645>
VStem: 530 60<320 595 615 728>
LayerCount: 2
Fore
SplineSet
556 10 m 1
 606 60 l 1
 666 10 l 1
 666 -10 l 1
 334 -10 l 1
 334 10 l 1
 556 10 l 1
645 615 m 1
 695 665 l 1
 755 615 l 1
 755 595 l 1
 590 595 l 1
 590 289 l 1
 593 289 l 1
 590 278 l 1
 590 262 l 1
 580 262 l 1
 550 225 l 1
 531 244 552 224 520 260 c 2
 505 277 l 2
 479 303 450 331 415 360 c 0
 404 369 386 385 368 401 c 2
 338 428 l 1
 344 435 l 1
 386 410 419 397 470 362 c 0
 486 352 501 341 517 330 c 2
 530 320 l 1
 530 595 l 1
 245 595 l 1
 245 615 l 1
 530 615 l 1
 530 757 l 1
 590 747 l 1
 605 737 l 1
 590 728 l 1
 590 615 l 1
 645 615 l 1
EndSplineSet
Validated: 1
EndChar

StartChar: glyph180
Encoding: 983252 983252 180
Width: 1000
VWidth: 0
Flags: W
HStem: 595 20<245 530 590 645>
VStem: 530 60<320 595 615 728>
LayerCount: 2
Fore
SplineSet
642 186 m 1
 684 142 l 1
 687 124 l 1
 669 128 l 1
 651 111 634 94 613 75 c 0
 611 73 469 -57 444 -78 c 0
 421 -99 398 -120 374 -140 c 2
 337 -169 l 1
 330 -162 l 1
 390 -90 l 1
 389 -91 l 1
 389 -91 400 -78 515 48 c 0
 516 49 639 179 642 186 c 1
645 615 m 1
 695 665 l 1
 755 615 l 1
 755 595 l 1
 590 595 l 1
 590 289 l 1
 593 289 l 1
 590 278 l 1
 590 262 l 1
 580 262 l 1
 550 225 l 1
 531 244 552 224 520 260 c 2
 505 277 l 2
 479 303 450 331 415 360 c 0
 404 369 386 385 368 401 c 2
 338 428 l 1
 344 435 l 1
 386 410 419 397 470 362 c 0
 486 352 501 341 517 330 c 2
 530 320 l 1
 530 595 l 1
 245 595 l 1
 245 615 l 1
 530 615 l 1
 530 757 l 1
 590 747 l 1
 605 737 l 1
 590 728 l 1
 590 615 l 1
 645 615 l 1
EndSplineSet
Validated: 1
EndChar

StartChar: glyph181
Encoding: 983253 983253 181
Width: 1000
VWidth: 0
Flags: W
HStem: 195 20<245 530 590 645>
VStem: 530 60<-80 195 215 328>
LayerCount: 2
Fore
SplineSet
645 215 m 1
 695 265 l 1
 755 215 l 1
 755 195 l 1
 590 195 l 1
 590 -111 l 1
 593 -111 l 1
 590 -122 l 1
 590 -138 l 1
 580 -138 l 1
 550 -175 l 1
 531 -156 552 -176 520 -140 c 2
 505 -123 l 2
 479 -97 450 -69 415 -40 c 0
 404 -31 386 -15 368 1 c 2
 338 28 l 1
 344 35 l 1
 386 10 419 -3 470 -38 c 0
 486 -48 501 -59 517 -70 c 2
 530 -80 l 1
 530 195 l 1
 245 195 l 1
 245 215 l 1
 530 215 l 1
 530 357 l 1
 590 347 l 1
 605 337 l 1
 590 328 l 1
 590 215 l 1
 645 215 l 1
340 768 m 1
 370 753 l 1
 401 734 l 2
 423 719 444 703 465 686 c 2
 498 658 l 2
 521 635 545 613 568 590 c 0
 593 563 617 537 642 510 c 2
 680 464 l 1
 686 442 l 1
 675 422 l 1
 653 416 l 1
 633 428 l 1
 610 457 587 487 564 516 c 0
 542 542 520 568 499 594 c 0
 430 670 382 720 336 760 c 1
 340 768 l 1
EndSplineSet
Validated: 1
EndChar

StartChar: glyph182
Encoding: 983254 983254 182
Width: 1000
VWidth: 0
Flags: W
HStem: 195 20<245 530 590 645>
VStem: 530 60<-80 195 215 328>
LayerCount: 2
Fore
SplineSet
645 215 m 1
 695 265 l 1
 755 215 l 1
 755 195 l 1
 590 195 l 1
 590 -111 l 1
 593 -111 l 1
 590 -122 l 1
 590 -138 l 1
 580 -138 l 1
 550 -175 l 1
 531 -156 552 -176 520 -140 c 2
 505 -123 l 2
 479 -97 450 -69 415 -40 c 0
 404 -31 386 -15 368 1 c 2
 338 28 l 1
 344 35 l 1
 386 10 419 -3 470 -38 c 0
 486 -48 501 -59 517 -70 c 2
 530 -80 l 1
 530 195 l 1
 245 195 l 1
 245 215 l 1
 530 215 l 1
 530 357 l 1
 590 347 l 1
 605 337 l 1
 590 328 l 1
 590 215 l 1
 645 215 l 1
482 613 m 1
 412 688 371 729 336 760 c 1
 340 768 l 1
 370 753 l 1
 401 734 l 2
 423 719 444 703 465 686 c 2
 498 658 l 1
 514 642 l 1
 515 643 548 675 626 740 c 2
 662 770 l 1
 669 763 l 1
 633 715 543 616 542 615 c 1
 564 595 584 573 604 551 c 2
 642 510 l 1
 680 464 l 1
 686 442 l 1
 675 422 l 1
 653 416 l 1
 633 428 l 1
 610 457 587 487 566 513 c 0
 546 537 528 558 510 580 c 1
 509 579 418 479 390 450 c 2
 372 431 l 1
 376 413 l 1
 358 416 l 1
 309 452 l 1
 321 464 407 545 452 585 c 2
 482 613 l 1
EndSplineSet
Validated: 1
EndChar

StartChar: glyph183
Encoding: 983255 983255 183
Width: 1000
VWidth: 0
Flags: W
HStem: 195 20<245 530 590 645> 590 20<334 556>
VStem: 530 60<-80 195 215 328>
LayerCount: 2
Fore
SplineSet
556 610 m 1
 606 660 l 1
 666 610 l 1
 666 590 l 1
 334 590 l 1
 334 610 l 1
 556 610 l 1
645 215 m 1
 695 265 l 1
 755 215 l 1
 755 195 l 1
 590 195 l 1
 590 -111 l 1
 593 -111 l 1
 590 -122 l 1
 590 -138 l 1
 580 -138 l 1
 550 -175 l 1
 531 -156 552 -176 520 -140 c 2
 505 -123 l 2
 479 -97 450 -69 415 -40 c 0
 404 -31 386 -15 368 1 c 2
 338 28 l 1
 344 35 l 1
 386 10 419 -3 470 -38 c 0
 486 -48 501 -59 517 -70 c 2
 530 -80 l 1
 530 195 l 1
 245 195 l 1
 245 215 l 1
 530 215 l 1
 530 357 l 1
 590 347 l 1
 605 337 l 1
 590 328 l 1
 590 215 l 1
 645 215 l 1
EndSplineSet
Validated: 1
EndChar

StartChar: glyph184
Encoding: 983256 983256 184
Width: 1000
VWidth: 0
Flags: W
HStem: 210 20<232 416 478 678>
LayerCount: 2
Fore
SplineSet
354 431 m 1
 358 413 l 1
 340 416 l 1
 290 452 l 1
 303 465 491 637 502 648 c 0
 526 668 549 689 572 710 c 2
 644 770 l 1
 650 763 l 1
 631 738 612 714 571 669 c 0
 570 666 417 496 372 450 c 2
 354 431 l 1
456 366 m 1
 512 343 l 1
 524 330 l 1
 506 325 l 1
 497 293 488 261 478 230 c 1
 682 230 l 1
 712 255 l 1
 768 210 l 1
 742 195 l 1
 734 192 l 1
 692 76 679 42 640 -31 c 2
 622 -67 l 2
 609 -90 595 -112 580 -133 c 2
 558 -163 l 1
 550 -158 l 2
 551 -156 598 -42 620 22 c 2
 634 61 l 2
 651 111 660 139 678 210 c 1
 472 210 l 1
 454 153 413 37 344 -81 c 1
 318 -121 l 1
 290 -157 l 1
 282 -152 l 1
 302 -112 l 2
 314 -83 326 -54 338 -24 c 2
 356 23 l 2
 395 132 395 132 416 210 c 1
 232 210 l 1
 232 230 l 1
 422 230 l 1
 422 231 431 257 456 366 c 1
EndSplineSet
Validated: 1
EndChar

StartChar: glyph185
Encoding: 983257 983257 185
Width: 1000
VWidth: 0
Flags: W
HStem: 610 20<232 416 478 678>
LayerCount: 2
Fore
SplineSet
298 142 m 1
 296 143 l 1
 340 184 l 1
 358 188 l 1
 354 170 l 2
 357 167 572 -66 622 -126 c 2
 650 -162 l 1
 644 -169 l 1
 641 -166 517 -67 332 110 c 2
 302 138 l 1
 298 142 l 1
456 766 m 1
 512 743 l 1
 524 730 l 1
 506 725 l 1
 497 693 488 661 478 630 c 1
 682 630 l 1
 712 655 l 1
 768 610 l 1
 742 595 l 1
 734 592 l 1
 692 476 679 442 640 369 c 2
 622 333 l 2
 609 310 595 288 580 267 c 2
 558 237 l 1
 550 242 l 2
 551 244 598 358 620 422 c 2
 634 461 l 2
 651 511 660 539 678 610 c 1
 472 610 l 1
 454 553 413 437 344 319 c 1
 318 279 l 1
 290 243 l 1
 282 248 l 1
 302 288 l 2
 314 317 326 346 338 376 c 2
 356 423 l 2
 395 532 395 532 416 610 c 1
 232 610 l 1
 232 630 l 1
 422 630 l 1
 422 631 431 657 456 766 c 1
EndSplineSet
Validated: 1
EndChar

StartChar: glyph186
Encoding: 983258 983258 186
Width: 1000
VWidth: 0
Flags: W
HStem: -10 20<316 538> 610 20<232 416 478 678>
LayerCount: 2
Fore
SplineSet
538 10 m 1
 588 60 l 1
 648 10 l 1
 648 -10 l 1
 316 -10 l 1
 316 10 l 1
 538 10 l 1
456 766 m 1
 512 743 l 1
 524 730 l 1
 506 725 l 1
 497 693 488 661 478 630 c 1
 682 630 l 1
 712 655 l 1
 768 610 l 1
 742 595 l 1
 734 592 l 1
 692 476 679 442 640 369 c 2
 622 333 l 2
 609 310 595 288 580 267 c 2
 558 237 l 1
 550 242 l 2
 551 244 598 358 620 422 c 2
 634 461 l 2
 651 511 660 539 678 610 c 1
 472 610 l 1
 454 553 413 437 344 319 c 1
 318 279 l 1
 290 243 l 1
 282 248 l 1
 302 288 l 2
 314 317 326 346 338 376 c 2
 356 423 l 2
 395 532 395 532 416 610 c 1
 232 610 l 1
 232 630 l 1
 422 630 l 1
 422 631 431 657 456 766 c 1
EndSplineSet
Validated: 1
EndChar

StartChar: glyph187
Encoding: 983259 983259 187
Width: 1000
VWidth: 0
Flags: W
HStem: 610 20<232 416 478 678>
LayerCount: 2
Fore
SplineSet
624 186 m 1
 666 142 l 1
 668 124 l 1
 650 128 l 1
 632 111 615 94 594 75 c 0
 563 47 405 -99 356 -140 c 2
 318 -169 l 1
 312 -162 l 1
 372 -90 l 1
 371 -91 l 1
 371 -91 382 -78 497 48 c 0
 498 49 623 184 624 186 c 1
456 766 m 1
 512 743 l 1
 524 730 l 1
 506 725 l 1
 497 693 488 661 478 630 c 1
 682 630 l 1
 712 655 l 1
 768 610 l 1
 742 595 l 1
 734 592 l 1
 692 476 679 442 640 369 c 2
 622 333 l 2
 609 310 595 288 580 267 c 2
 558 237 l 1
 550 242 l 2
 551 244 598 358 620 422 c 2
 634 461 l 2
 651 511 660 539 678 610 c 1
 472 610 l 1
 454 553 413 437 344 319 c 1
 318 279 l 1
 290 243 l 1
 282 248 l 1
 302 288 l 2
 314 317 326 346 338 376 c 2
 356 423 l 2
 395 532 395 532 416 610 c 1
 232 610 l 1
 232 630 l 1
 422 630 l 1
 422 631 431 657 456 766 c 1
EndSplineSet
Validated: 1
EndChar

StartChar: glyph188
Encoding: 983260 983260 188
Width: 1000
VWidth: 0
Flags: W
HStem: 210 20<232 416 478 678>
LayerCount: 2
Fore
SplineSet
322 768 m 1
 352 753 l 1
 382 734 l 2
 404 719 425 703 446 686 c 2
 480 658 l 2
 503 635 527 613 550 590 c 0
 575 563 599 537 624 510 c 2
 662 464 l 1
 668 442 l 1
 656 422 l 1
 634 416 l 1
 614 428 l 1
 591 457 569 487 546 516 c 0
 447 633 447 633 372 708 c 0
 350 730 335 745 318 760 c 1
 322 768 l 1
456 366 m 1
 512 343 l 1
 524 330 l 1
 506 325 l 1
 497 293 488 261 478 230 c 1
 682 230 l 1
 712 255 l 1
 768 210 l 1
 742 195 l 1
 734 192 l 1
 692 76 679 42 640 -31 c 2
 622 -67 l 2
 609 -90 595 -112 580 -133 c 2
 558 -163 l 1
 550 -158 l 2
 551 -156 598 -42 620 22 c 2
 634 61 l 2
 651 111 660 139 678 210 c 1
 472 210 l 1
 454 153 413 37 344 -81 c 1
 318 -121 l 1
 290 -157 l 1
 282 -152 l 1
 302 -112 l 2
 314 -83 326 -54 338 -24 c 2
 356 23 l 2
 395 132 395 132 416 210 c 1
 232 210 l 1
 232 230 l 1
 422 230 l 1
 422 231 431 257 456 366 c 1
EndSplineSet
Validated: 1
EndChar

StartChar: glyph189
Encoding: 983261 983261 189
Width: 1000
VWidth: 0
Flags: W
HStem: 210 20<232 416 478 678>
LayerCount: 2
Fore
SplineSet
464 613 m 1
 463 614 367 717 318 760 c 1
 322 768 l 1
 352 753 l 1
 382 734 l 2
 404 719 425 703 446 686 c 2
 480 658 l 1
 496 642 l 1
 497 643 530 675 608 740 c 2
 644 770 l 1
 650 763 l 1
 619 722 525 616 524 615 c 1
 546 595 566 573 586 551 c 2
 624 510 l 1
 662 464 l 1
 668 442 l 1
 656 422 l 1
 634 416 l 1
 614 428 l 1
 539 522 539 522 492 580 c 1
 473 559 453 539 436 520 c 0
 413 495 393 472 372 450 c 2
 354 431 l 1
 358 413 l 1
 340 416 l 1
 290 452 l 1
 291 453 394 550 434 585 c 2
 464 613 l 1
456 366 m 1
 512 343 l 1
 524 330 l 1
 506 325 l 1
 497 293 488 261 478 230 c 1
 682 230 l 1
 712 255 l 1
 768 210 l 1
 742 195 l 1
 734 192 l 1
 692 76 679 42 640 -31 c 2
 622 -67 l 2
 609 -90 595 -112 580 -133 c 2
 558 -163 l 1
 550 -158 l 2
 551 -156 598 -42 620 22 c 2
 634 61 l 2
 651 111 660 139 678 210 c 1
 472 210 l 1
 454 153 413 37 344 -81 c 1
 318 -121 l 1
 290 -157 l 1
 282 -152 l 1
 302 -112 l 2
 314 -83 326 -54 338 -24 c 2
 356 23 l 2
 395 132 395 132 416 210 c 1
 232 210 l 1
 232 230 l 1
 422 230 l 1
 422 231 431 257 456 366 c 1
EndSplineSet
Validated: 1
EndChar

StartChar: glyph190
Encoding: 983262 983262 190
Width: 1000
VWidth: 0
Flags: W
HStem: 210 20<232 416 478 678> 590 20<316 538>
LayerCount: 2
Fore
SplineSet
538 610 m 1
 588 660 l 1
 648 610 l 1
 648 590 l 1
 316 590 l 1
 316 610 l 1
 538 610 l 1
456 366 m 1
 512 343 l 1
 524 330 l 1
 506 325 l 1
 497 293 488 261 478 230 c 1
 682 230 l 1
 712 255 l 1
 768 210 l 1
 742 195 l 1
 734 192 l 1
 692 76 679 42 640 -31 c 2
 622 -67 l 2
 609 -90 595 -112 580 -133 c 2
 558 -163 l 1
 550 -158 l 2
 551 -156 598 -42 620 22 c 2
 634 61 l 2
 651 111 660 139 678 210 c 1
 472 210 l 1
 454 153 413 37 344 -81 c 1
 318 -121 l 1
 290 -157 l 1
 282 -152 l 1
 302 -112 l 2
 314 -83 326 -54 338 -24 c 2
 356 23 l 2
 395 132 395 132 416 210 c 1
 232 210 l 1
 232 230 l 1
 422 230 l 1
 422 231 431 257 456 366 c 1
EndSplineSet
Validated: 1
EndChar

StartChar: glyph191
Encoding: 983263 983263 191
Width: 1000
VWidth: 0
Flags: W
HStem: 46 20<236 364 418 534> 210 20<232 416 478 678>
LayerCount: 2
Fore
SplineSet
354 431 m 1
 358 413 l 1
 340 416 l 1
 290 452 l 1
 303 465 491 637 502 648 c 0
 526 668 549 689 572 710 c 2
 644 770 l 1
 650 763 l 1
 631 738 612 714 571 669 c 0
 570 666 417 496 372 450 c 2
 354 431 l 1
534 67 m 1
 584 118 l 1
 638 73 l 1
 645 96 653 119 660 142 c 0
 666 165 672 187 678 210 c 1
 472 210 l 1
 461 175 448 142 436 108 c 2
 418 66 l 1
 534 67 l 1
456 366 m 1
 512 343 l 1
 524 330 l 1
 506 325 l 1
 497 293 488 261 478 230 c 1
 682 230 l 1
 712 255 l 1
 768 210 l 1
 742 195 l 1
 734 192 l 1
 692 76 679 42 640 -31 c 2
 622 -67 l 2
 609 -90 595 -112 580 -133 c 2
 558 -163 l 1
 550 -158 l 2
 551 -156 598 -42 620 22 c 2
 630 48 l 1
 408 47 l 1
 392 8 l 2
 377 -22 361 -52 344 -81 c 2
 318 -121 l 1
 290 -157 l 1
 282 -152 l 1
 302 -112 l 2
 314 -83 326 -54 338 -24 c 2
 356 23 l 1
 364 46 l 1
 236 46 l 1
 236 65 l 1
 372 66 l 1
 378 82 396 136 416 210 c 1
 232 210 l 1
 232 230 l 1
 422 230 l 1
 422 231 431 257 456 366 c 1
EndSplineSet
Validated: 1
EndChar

StartChar: glyph192
Encoding: 983264 983264 192
Width: 1000
VWidth: 0
Flags: W
HStem: 446 20<236 364 418 534> 610 20<232 416 478 678>
LayerCount: 2
Fore
SplineSet
298 142 m 1
 296 143 l 1
 340 184 l 1
 358 188 l 1
 354 170 l 2
 357 167 572 -66 622 -126 c 2
 650 -162 l 1
 644 -169 l 1
 641 -166 517 -67 332 110 c 2
 302 138 l 1
 298 142 l 1
534 467 m 1
 584 518 l 1
 638 473 l 1
 645 496 653 519 660 542 c 0
 666 565 672 587 678 610 c 1
 472 610 l 1
 461 575 448 542 436 508 c 2
 418 466 l 1
 534 467 l 1
456 766 m 1
 512 743 l 1
 524 730 l 1
 506 725 l 1
 497 693 488 661 478 630 c 1
 682 630 l 1
 712 655 l 1
 768 610 l 1
 742 595 l 1
 734 592 l 1
 692 476 679 442 640 369 c 2
 622 333 l 2
 609 310 595 288 580 267 c 2
 558 237 l 1
 550 242 l 2
 551 244 598 358 620 422 c 2
 630 448 l 1
 408 447 l 1
 392 408 l 2
 377 378 361 348 344 319 c 2
 318 279 l 1
 290 243 l 1
 282 248 l 1
 302 288 l 2
 314 317 326 346 338 376 c 2
 356 423 l 1
 364 446 l 1
 236 446 l 1
 236 465 l 1
 372 466 l 1
 378 482 396 536 416 610 c 1
 232 610 l 1
 232 630 l 1
 422 630 l 1
 422 631 431 657 456 766 c 1
EndSplineSet
Validated: 1
EndChar

StartChar: glyph193
Encoding: 983265 983265 193
Width: 1000
VWidth: 0
Flags: W
HStem: -10 20<316 538> 446 20<236 364 418 534> 610 20<232 416 478 678>
LayerCount: 2
Fore
SplineSet
538 10 m 1
 588 60 l 1
 648 10 l 1
 648 -10 l 1
 316 -10 l 1
 316 10 l 1
 538 10 l 1
534 467 m 1
 584 518 l 1
 638 473 l 1
 645 496 653 519 660 542 c 0
 666 565 672 587 678 610 c 1
 472 610 l 1
 461 575 448 542 436 508 c 2
 418 466 l 1
 534 467 l 1
456 766 m 1
 512 743 l 1
 524 730 l 1
 506 725 l 1
 497 693 488 661 478 630 c 1
 682 630 l 1
 712 655 l 1
 768 610 l 1
 742 595 l 1
 734 592 l 1
 692 476 679 442 640 369 c 2
 622 333 l 2
 609 310 595 288 580 267 c 2
 558 237 l 1
 550 242 l 2
 551 244 598 358 620 422 c 2
 630 448 l 1
 408 447 l 1
 392 408 l 2
 377 378 361 348 344 319 c 2
 318 279 l 1
 290 243 l 1
 282 248 l 1
 302 288 l 2
 314 317 326 346 338 376 c 2
 356 423 l 1
 364 446 l 1
 236 446 l 1
 236 465 l 1
 372 466 l 1
 378 482 396 536 416 610 c 1
 232 610 l 1
 232 630 l 1
 422 630 l 1
 422 631 431 657 456 766 c 1
EndSplineSet
Validated: 1
EndChar

StartChar: glyph194
Encoding: 983266 983266 194
Width: 1000
VWidth: 0
Flags: W
HStem: 446 20<236 364 418 534> 610 20<232 416 478 678>
LayerCount: 2
Fore
SplineSet
624 186 m 1
 666 142 l 1
 668 124 l 1
 650 128 l 1
 632 111 615 94 594 75 c 0
 563 47 405 -99 356 -140 c 2
 318 -169 l 1
 312 -162 l 1
 372 -90 l 1
 371 -91 l 1
 371 -91 382 -78 497 48 c 0
 498 49 623 184 624 186 c 1
534 467 m 1
 584 518 l 1
 638 473 l 1
 645 496 653 519 660 542 c 0
 666 565 672 587 678 610 c 1
 472 610 l 1
 461 575 448 542 436 508 c 2
 418 466 l 1
 534 467 l 1
456 766 m 1
 512 743 l 1
 524 730 l 1
 506 725 l 1
 497 693 488 661 478 630 c 1
 682 630 l 1
 712 655 l 1
 768 610 l 1
 742 595 l 1
 734 592 l 1
 692 476 679 442 640 369 c 2
 622 333 l 2
 609 310 595 288 580 267 c 2
 558 237 l 1
 550 242 l 2
 551 244 598 358 620 422 c 2
 630 448 l 1
 408 447 l 1
 392 408 l 2
 377 378 361 348 344 319 c 2
 318 279 l 1
 290 243 l 1
 282 248 l 1
 302 288 l 2
 314 317 326 346 338 376 c 2
 356 423 l 1
 364 446 l 1
 236 446 l 1
 236 465 l 1
 372 466 l 1
 378 482 396 536 416 610 c 1
 232 610 l 1
 232 630 l 1
 422 630 l 1
 422 631 431 657 456 766 c 1
EndSplineSet
Validated: 1
EndChar

StartChar: glyph195
Encoding: 983267 983267 195
Width: 1000
VWidth: 0
Flags: W
HStem: 46 20<236 364 418 534> 210 20<232 416 478 678>
LayerCount: 2
Fore
SplineSet
534 67 m 1
 584 118 l 1
 638 73 l 1
 645 96 653 119 660 142 c 0
 666 165 672 187 678 210 c 1
 472 210 l 1
 461 175 448 142 436 108 c 2
 418 66 l 1
 534 67 l 1
322 768 m 1
 352 753 l 1
 382 734 l 2
 404 719 425 703 446 686 c 2
 480 658 l 2
 503 635 527 613 550 590 c 0
 575 563 599 537 624 510 c 2
 662 464 l 1
 668 442 l 1
 656 422 l 1
 634 416 l 1
 614 428 l 1
 591 457 569 487 546 516 c 0
 447 633 447 633 372 708 c 0
 350 730 335 745 318 760 c 1
 322 768 l 1
456 366 m 1
 512 343 l 1
 524 330 l 1
 506 325 l 1
 497 293 488 261 478 230 c 1
 682 230 l 1
 712 255 l 1
 768 210 l 1
 742 195 l 1
 734 192 l 1
 692 76 679 42 640 -31 c 2
 622 -67 l 2
 609 -90 595 -112 580 -133 c 2
 558 -163 l 1
 550 -158 l 2
 551 -156 598 -42 620 22 c 2
 630 48 l 1
 408 47 l 1
 392 8 l 2
 377 -22 361 -52 344 -81 c 2
 318 -121 l 1
 290 -157 l 1
 282 -152 l 1
 302 -112 l 2
 314 -83 326 -54 338 -24 c 2
 356 23 l 1
 364 46 l 1
 236 46 l 1
 236 65 l 1
 372 66 l 1
 378 82 396 136 416 210 c 1
 232 210 l 1
 232 230 l 1
 422 230 l 1
 422 231 431 257 456 366 c 1
EndSplineSet
Validated: 1
EndChar

StartChar: glyph196
Encoding: 983268 983268 196
Width: 1000
VWidth: 0
Flags: W
HStem: 46 20<236 364 418 534> 210 20<232 416 478 678>
LayerCount: 2
Fore
SplineSet
534 67 m 1
 584 118 l 1
 638 73 l 1
 645 96 653 119 660 142 c 0
 666 165 672 187 678 210 c 1
 472 210 l 1
 461 175 448 142 436 108 c 2
 418 66 l 1
 534 67 l 1
464 613 m 1
 463 614 367 717 318 760 c 1
 322 768 l 1
 352 753 l 1
 382 734 l 2
 404 719 425 703 446 686 c 2
 480 658 l 1
 496 642 l 1
 497 643 530 675 608 740 c 2
 644 770 l 1
 650 763 l 1
 619 722 525 616 524 615 c 1
 546 595 566 573 586 551 c 2
 624 510 l 1
 662 464 l 1
 668 442 l 1
 656 422 l 1
 634 416 l 1
 614 428 l 1
 539 522 539 522 492 580 c 1
 473 559 453 539 436 520 c 0
 413 495 393 472 372 450 c 2
 354 431 l 1
 358 413 l 1
 340 416 l 1
 290 452 l 1
 291 453 394 550 434 585 c 2
 464 613 l 1
456 366 m 1
 512 343 l 1
 524 330 l 1
 506 325 l 1
 497 293 488 261 478 230 c 1
 682 230 l 1
 712 255 l 1
 768 210 l 1
 742 195 l 1
 734 192 l 1
 692 76 679 42 640 -31 c 2
 622 -67 l 2
 609 -90 595 -112 580 -133 c 2
 558 -163 l 1
 550 -158 l 2
 551 -156 598 -42 620 22 c 2
 630 48 l 1
 408 47 l 1
 392 8 l 2
 377 -22 361 -52 344 -81 c 2
 318 -121 l 1
 290 -157 l 1
 282 -152 l 1
 302 -112 l 2
 314 -83 326 -54 338 -24 c 2
 356 23 l 1
 364 46 l 1
 236 46 l 1
 236 65 l 1
 372 66 l 1
 378 82 396 136 416 210 c 1
 232 210 l 1
 232 230 l 1
 422 230 l 1
 422 231 431 257 456 366 c 1
EndSplineSet
Validated: 1
EndChar

StartChar: glyph197
Encoding: 983269 983269 197
Width: 1000
VWidth: 0
Flags: W
HStem: 46 20<236 364 418 534> 210 20<232 416 478 678> 590 20<316 538>
LayerCount: 2
Fore
SplineSet
538 610 m 1
 588 660 l 1
 648 610 l 1
 648 590 l 1
 316 590 l 1
 316 610 l 1
 538 610 l 1
534 67 m 1
 584 118 l 1
 638 73 l 1
 645 96 653 119 660 142 c 0
 666 165 672 187 678 210 c 1
 472 210 l 1
 461 175 448 142 436 108 c 2
 418 66 l 1
 534 67 l 1
456 366 m 1
 512 343 l 1
 524 330 l 1
 506 325 l 1
 497 293 488 261 478 230 c 1
 682 230 l 1
 712 255 l 1
 768 210 l 1
 742 195 l 1
 734 192 l 1
 692 76 679 42 640 -31 c 2
 622 -67 l 2
 609 -90 595 -112 580 -133 c 2
 558 -163 l 1
 550 -158 l 2
 551 -156 598 -42 620 22 c 2
 630 48 l 1
 408 47 l 1
 392 8 l 2
 377 -22 361 -52 344 -81 c 2
 318 -121 l 1
 290 -157 l 1
 282 -152 l 1
 302 -112 l 2
 314 -83 326 -54 338 -24 c 2
 356 23 l 1
 364 46 l 1
 236 46 l 1
 236 65 l 1
 372 66 l 1
 378 82 396 136 416 210 c 1
 232 210 l 1
 232 230 l 1
 422 230 l 1
 422 231 431 257 456 366 c 1
EndSplineSet
Validated: 1
EndChar

StartChar: glyph198
Encoding: 983270 983270 198
Width: 1000
VWidth: 0
Flags: W
HStem: 102 20<242 383 443 557 617 648>
VStem: 383 60<-134 102 122 334> 557 60<-134 102 122 334>
LayerCount: 2
Fore
SplineSet
372 431 m 1
 376 413 l 1
 358 416 l 1
 309 452 l 1
 348 491 490 619 520 648 c 0
 544 668 567 689 590 710 c 2
 662 770 l 1
 669 763 l 1
 655 744 655 744 554 628 c 0
 550 623 419 480 390 450 c 2
 372 431 l 1
617 334 m 1
 617 122 l 1
 648 122 l 1
 698 172 l 1
 758 122 l 1
 758 102 l 1
 617 102 l 1
 617 -134 l 1
 557 -164 l 1
 557 102 l 1
 443 102 l 1
 443 -134 l 1
 383 -164 l 1
 383 102 l 1
 242 102 l 1
 242 122 l 1
 383 122 l 1
 383 363 l 1
 443 353 l 1
 458 343 l 1
 443 334 l 1
 443 122 l 1
 557 122 l 1
 557 363 l 1
 617 353 l 1
 632 343 l 1
 617 334 l 1
EndSplineSet
Validated: 1
EndChar

StartChar: glyph199
Encoding: 983271 983271 199
Width: 1000
VWidth: 0
Flags: W
HStem: 502 20<242 383 443 557 617 648>
VStem: 383 60<266 502 522 734> 557 60<266 502 522 734>
LayerCount: 2
Fore
SplineSet
316 142 m 1
 314 143 l 1
 358 184 l 1
 376 188 l 1
 372 170 l 2
 375 167 581 -55 640 -126 c 2
 669 -162 l 1
 662 -169 l 1
 621 -138 600 -119 418 47 c 0
 395 68 372 89 350 110 c 2
 320 138 l 1
 316 142 l 1
617 734 m 1
 617 522 l 1
 648 522 l 1
 698 572 l 1
 758 522 l 1
 758 502 l 1
 617 502 l 1
 617 266 l 1
 557 236 l 1
 557 502 l 1
 443 502 l 1
 443 266 l 1
 383 236 l 1
 383 502 l 1
 242 502 l 1
 242 522 l 1
 383 522 l 1
 383 763 l 1
 443 753 l 1
 458 743 l 1
 443 734 l 1
 443 522 l 1
 557 522 l 1
 557 763 l 1
 617 753 l 1
 632 743 l 1
 617 734 l 1
EndSplineSet
Validated: 1
EndChar

StartChar: glyph200
Encoding: 983272 983272 200
Width: 1000
VWidth: 0
Flags: W
HStem: -10 20<334 556> 502 20<242 383 443 557 617 648>
VStem: 383 60<266 502 522 734> 557 60<266 502 522 734>
LayerCount: 2
Fore
SplineSet
556 10 m 1
 606 60 l 1
 666 10 l 1
 666 -10 l 1
 334 -10 l 1
 334 10 l 1
 556 10 l 1
617 734 m 1
 617 522 l 1
 648 522 l 1
 698 572 l 1
 758 522 l 1
 758 502 l 1
 617 502 l 1
 617 266 l 1
 557 236 l 1
 557 502 l 1
 443 502 l 1
 443 266 l 1
 383 236 l 1
 383 502 l 1
 242 502 l 1
 242 522 l 1
 383 522 l 1
 383 763 l 1
 443 753 l 1
 458 743 l 1
 443 734 l 1
 443 522 l 1
 557 522 l 1
 557 763 l 1
 617 753 l 1
 632 743 l 1
 617 734 l 1
EndSplineSet
Validated: 1
EndChar

StartChar: glyph201
Encoding: 983273 983273 201
Width: 1000
VWidth: 0
Flags: W
HStem: 502 20<242 383 443 557 617 648>
VStem: 383 60<266 502 522 734> 557 60<266 502 522 734>
LayerCount: 2
Fore
SplineSet
642 186 m 1
 684 142 l 1
 687 124 l 1
 669 128 l 1
 651 111 634 94 613 75 c 0
 611 73 469 -57 444 -78 c 0
 421 -99 398 -120 374 -140 c 2
 337 -169 l 1
 330 -162 l 1
 390 -90 l 1
 389 -91 l 1
 389 -91 400 -78 515 48 c 0
 516 49 639 179 642 186 c 1
617 734 m 1
 617 522 l 1
 648 522 l 1
 698 572 l 1
 758 522 l 1
 758 502 l 1
 617 502 l 1
 617 266 l 1
 557 236 l 1
 557 502 l 1
 443 502 l 1
 443 266 l 1
 383 236 l 1
 383 502 l 1
 242 502 l 1
 242 522 l 1
 383 522 l 1
 383 763 l 1
 443 753 l 1
 458 743 l 1
 443 734 l 1
 443 522 l 1
 557 522 l 1
 557 763 l 1
 617 753 l 1
 632 743 l 1
 617 734 l 1
EndSplineSet
Validated: 1
EndChar

StartChar: glyph202
Encoding: 983274 983274 202
Width: 1000
VWidth: 0
Flags: W
HStem: 102 20<242 383 443 557 617 648>
VStem: 383 60<-134 102 122 334> 557 60<-134 102 122 334>
LayerCount: 2
Fore
SplineSet
617 334 m 1
 617 122 l 1
 648 122 l 1
 698 172 l 1
 758 122 l 1
 758 102 l 1
 617 102 l 1
 617 -134 l 1
 557 -164 l 1
 557 102 l 1
 443 102 l 1
 443 -134 l 1
 383 -164 l 1
 383 102 l 1
 242 102 l 1
 242 122 l 1
 383 122 l 1
 383 363 l 1
 443 353 l 1
 458 343 l 1
 443 334 l 1
 443 122 l 1
 557 122 l 1
 557 363 l 1
 617 353 l 1
 632 343 l 1
 617 334 l 1
340 768 m 1
 370 753 l 1
 401 734 l 2
 423 719 444 703 465 686 c 2
 498 658 l 2
 521 635 545 613 568 590 c 0
 593 563 617 537 642 510 c 2
 680 464 l 1
 686 442 l 1
 675 422 l 1
 653 416 l 1
 633 428 l 1
 610 457 587 487 564 516 c 0
 542 542 520 568 499 594 c 0
 430 670 382 720 336 760 c 1
 340 768 l 1
EndSplineSet
Validated: 1
EndChar

StartChar: glyph203
Encoding: 983275 983275 203
Width: 1000
VWidth: 0
Flags: W
HStem: 102 20<242 383 443 557 617 648>
VStem: 383 60<-134 102 122 334> 557 60<-134 102 122 334>
LayerCount: 2
Fore
SplineSet
617 334 m 1
 617 122 l 1
 648 122 l 1
 698 172 l 1
 758 122 l 1
 758 102 l 1
 617 102 l 1
 617 -134 l 1
 557 -164 l 1
 557 102 l 1
 443 102 l 1
 443 -134 l 1
 383 -164 l 1
 383 102 l 1
 242 102 l 1
 242 122 l 1
 383 122 l 1
 383 363 l 1
 443 353 l 1
 458 343 l 1
 443 334 l 1
 443 122 l 1
 557 122 l 1
 557 363 l 1
 617 353 l 1
 632 343 l 1
 617 334 l 1
482 613 m 1
 412 688 371 729 336 760 c 1
 340 768 l 1
 370 753 l 1
 401 734 l 2
 423 719 444 703 465 686 c 2
 498 658 l 1
 514 642 l 1
 515 643 548 675 626 740 c 2
 662 770 l 1
 669 763 l 1
 633 715 543 616 542 615 c 1
 564 595 584 573 604 551 c 2
 642 510 l 1
 680 464 l 1
 686 442 l 1
 675 422 l 1
 653 416 l 1
 633 428 l 1
 610 457 587 487 566 513 c 0
 546 537 528 558 510 580 c 1
 509 579 418 479 390 450 c 2
 372 431 l 1
 376 413 l 1
 358 416 l 1
 309 452 l 1
 321 464 407 545 452 585 c 2
 482 613 l 1
EndSplineSet
Validated: 1
EndChar

StartChar: glyph204
Encoding: 983276 983276 204
Width: 1000
VWidth: 0
Flags: W
HStem: 102 20<242 383 443 557 617 648> 590 20<334 556>
VStem: 383 60<-134 102 122 334> 557 60<-134 102 122 334>
LayerCount: 2
Fore
SplineSet
556 610 m 1
 606 660 l 1
 666 610 l 1
 666 590 l 1
 334 590 l 1
 334 610 l 1
 556 610 l 1
617 334 m 1
 617 122 l 1
 648 122 l 1
 698 172 l 1
 758 122 l 1
 758 102 l 1
 617 102 l 1
 617 -134 l 1
 557 -164 l 1
 557 102 l 1
 443 102 l 1
 443 -134 l 1
 383 -164 l 1
 383 102 l 1
 242 102 l 1
 242 122 l 1
 383 122 l 1
 383 363 l 1
 443 353 l 1
 458 343 l 1
 443 334 l 1
 443 122 l 1
 557 122 l 1
 557 363 l 1
 617 353 l 1
 632 343 l 1
 617 334 l 1
EndSplineSet
Validated: 1
EndChar

StartChar: glyph205
Encoding: 983277 983277 205
Width: 1000
VWidth: 0
Flags: W
HStem: 58 20<444 804> 365 20<166 480 540 744> 698 20<218 480 540 692>
VStem: 480 60<385 698>
LayerCount: 2
Fore
SplineSet
744 385 m 1
 794 435 l 1
 854 385 l 1
 854 365 l 1
 166 365 l 1
 166 385 l 1
 480 385 l 1
 480 698 l 1
 218 698 l 1
 218 718 l 1
 692 718 l 1
 742 768 l 1
 802 718 l 1
 802 698 l 1
 540 698 l 1
 540 385 l 1
 744 385 l 1
100 -149 m 1
 116 -120 249 143 326 260 c 1
 334 256 l 1
 302 171 302 172 302 169 c 1
 303 170 l 1
 303 170 293 144 168 -147 c 1
 176 -163 l 1
 160 -166 l 1
 100 -149 l 1
820 82 m 1
 846 102 l 1
 900 58 l 1
 876 42 l 1
 858 35 l 1
 799 -34 752 -78 700 -122 c 2
 668 -148 l 1
 632 -173 l 1
 626 -166 l 1
 645 -145 662 -124 680 -102 c 2
 706 -74 l 2
 720 -56 733 -38 748 -21 c 2
 768 3 l 2
 778 17 788 32 798 46 c 2
 804 58 l 1
 440 58 l 1
 438 52 l 1
 374 34 l 1
 418 276 l 1
 476 255 l 1
 490 242 l 1
 472 238 l 1
 444 78 l 1
 816 78 l 1
 816 79 l 1
 820 84 l 1
 820 82 l 1
EndSplineSet
Validated: 1
EndChar

StartChar: glyph206
Encoding: 983278 983278 206
Width: 1000
VWidth: 0
Flags: W
HStem: 68 60<796 814> 112 16<696 746> 485 20<636 816>
VStem: 128 60<-89 216> 318 56<643.625 728> 814 62<130 137 142 465>
LayerCount: 2
Fore
SplineSet
542 326 m 1x3c
 502 350 l 1
 466 379 l 1
 434 412 l 1
 408 449 l 1
 388 490 l 1
 372 534 l 1
 360 582 l 1
 358 594 l 1
 352 572 l 1
 334 522 l 1
 312 477 l 1
 284 438 l 1
 252 404 l 1
 216 374 l 1
 176 352 l 1
 132 336 l 1
 128 344 l 1
 166 369 l 1
 200 396 l 1
 230 426 l 1
 254 460 l 1
 274 497 l 1
 292 538 l 1
 304 584 l 1
 312 634 l 1
 318 688 l 1
 318 760 l 1
 378 748 l 1
 394 738 l 1
 378 728 l 1
 374 684 l 1
 374 683 l 1
 382 638 l 1
 394 590 l 1
 410 548 l 1
 430 510 l 1
 452 478 l 1
 476 448 l 1
 504 424 l 1
 536 402 l 2
 557 392 577 382 598 372 c 1
 542 326 l 1x3c
176 -168 m 1
 148 -195 l 1
 98 -145 l 1
 128 -115 l 1
 128 245 l 1
 188 235 l 1
 204 225 l 1
 188 216 l 1
 188 -89 l 1
 222 -66 l 2
 259 -44 335 2 394 32 c 2
 436 56 l 2
 465 71 495 85 526 98 c 2
 572 116 l 1
 576 109 l 2
 573 107 334 -52 279 -92 c 0
 254 -111 214 -140 176 -169 c 1
 176 -168 l 1
814 132 m 1
 814 137 l 1
 816 142 l 1
 816 485 l 1
 636 485 l 1
 636 505 l 1
 816 505 l 1
 846 530 l 1
 902 485 l 1
 876 465 l 1
 876 135 l 1
 874 122 l 1
 870 110 l 2
 865 103 860 96 854 89 c 2
 844 81 l 1
 834 74 l 1
 822 70 l 1
 808 68 l 1
 796 68 l 1xbc
 796 98 l 1
 696 112 l 1
 696 128 l 1x7c
 802 128 l 1xbc
 810 130 l 1
 812 130 l 1
 812 132 l 1
 814 132 l 1
EndSplineSet
Validated: 8388609
EndChar

StartChar: glyph207
Encoding: 983279 983279 207
Width: 1000
VWidth: 0
Flags: W
HStem: -185 20<162 716> 81 20<216 752> 365 20<150 464 524 728> 698 20<202 464 524 676>
VStem: 464 60<385 698>
LayerCount: 2
Fore
SplineSet
728 385 m 1
 778 435 l 1
 838 385 l 1
 838 365 l 1
 150 365 l 1
 150 385 l 1
 464 385 l 1
 464 698 l 1
 202 698 l 1
 202 718 l 1
 676 718 l 1
 726 768 l 1
 786 718 l 1
 786 698 l 1
 524 698 l 1
 524 385 l 1
 728 385 l 1
716 -165 m 1
 766 -115 l 1
 826 -165 l 1
 826 -185 l 1
 162 -185 l 1
 162 -165 l 1
 716 -165 l 1
782 110 m 1
 802 126 l 1
 858 81 l 1
 832 66 l 1
 806 55 l 1
 804 54 l 1
 782 36 l 1
 729 -1 717 -10 666 -40 c 0
 648 -50 560 -97 496 -126 c 1
 492 -119 l 1
 494 -118 564 -67 644 -8 c 0
 675 17 734 63 752 81 c 1
 210 81 l 1
 208 73 l 1
 142 61 l 1
 206 282 l 1
 262 256 l 1
 272 242 l 1
 256 237 l 1
 216 101 l 1
 770 101 l 1
 780 112 l 1
 782 110 l 1
EndSplineSet
Validated: 1
EndChar

StartChar: glyph208
Encoding: 983280 983280 208
Width: 1000
VWidth: 0
Flags: W
HStem: 58 20<216 754> 365 20<150 464 524 728> 698 20<202 464 524 676>
VStem: 464 60<385 698>
LayerCount: 2
Fore
SplineSet
728 385 m 1
 778 435 l 1
 838 385 l 1
 838 365 l 1
 150 365 l 1
 150 385 l 1
 464 385 l 1
 464 698 l 1
 202 698 l 1
 202 718 l 1
 676 718 l 1
 726 768 l 1
 786 718 l 1
 786 698 l 1
 524 698 l 1
 524 385 l 1
 728 385 l 1
782 85 m 1
 802 102 l 1
 858 58 l 1
 832 42 l 1
 810 33 l 1
 783 6 719 -43 588 -124 c 0
 557 -141 527 -157 496 -174 c 1
 492 -166 l 1
 519 -144 545 -123 572 -101 c 2
 610 -72 l 2
 631 -54 653 -36 656 -34 c 0
 692 -4 709 12 726 28 c 2
 748 50 l 1
 754 58 l 1
 210 58 l 1
 208 50 l 1
 142 36 l 1
 206 278 l 1
 262 253 l 1
 274 240 l 1
 258 235 l 1
 216 78 l 1
 772 78 l 1
 780 88 l 1
 782 85 l 1
EndSplineSet
Validated: 1
EndChar

StartChar: glyph209
Encoding: 983281 983281 209
Width: 1000
VWidth: 0
Flags: W
HStem: 58 20<175 536> 365 20<137 451 511 715> 698 20<189 451 511 663>
VStem: 451 60<385 698>
LayerCount: 2
Fore
SplineSet
715 385 m 1
 765 435 l 1
 825 385 l 1
 825 365 l 1
 137 365 l 1
 137 385 l 1
 451 385 l 1
 451 698 l 1
 189 698 l 1
 189 718 l 1
 663 718 l 1
 713 768 l 1
 773 718 l 1
 773 698 l 1
 511 698 l 1
 511 385 l 1
 715 385 l 1
829 262 m 1
 834 272 l 1
 885 240 l 1
 895 225 l 1
 876 223 l 2
 875 221 834 137 779 40 c 2
 713 -80 l 2
 697 -107 681 -133 665 -159 c 1
 657 -156 l 1
 689 -68 l 1
 738 54 738 54 813 225 c 2
 829 261 l 1
 829 262 l 1
552 82 m 1
 577 102 l 1
 631 58 l 1
 607 42 l 1
 589 35 l 1
 583 28 578 21 568 9 c 0
 567 8 512 -54 431 -122 c 2
 399 -148 l 1
 364 -173 l 1
 357 -166 l 1
 376 -145 394 -124 412 -102 c 2
 437 -74 l 2
 451 -56 465 -38 480 -21 c 2
 499 3 l 2
 509 17 519 32 529 46 c 2
 536 58 l 1
 171 58 l 1
 170 52 l 1
 105 34 l 1
 150 276 l 1
 207 255 l 1
 221 242 l 1
 204 238 l 1
 175 78 l 1
 547 78 l 1
 548 79 l 1
 551 84 l 1
 552 82 l 1
EndSplineSet
Validated: 1
EndChar

StartChar: glyph210
Encoding: 983282 983282 210
Width: 1000
VWidth: 0
Flags: W
HStem: -166 8<343.375 351.169> 50 20<424 575> 115 20<93 149 209 213> 240 20<315 559> 300 20<762 813> 365 20<307 449 509 541> 448 20<106 149> 490 20<697 808> 698 20<333 449 509 515>
VStem: 149 60<135 448> 449 60<385 698>
LayerCount: 2
Fore
SplineSet
213 135 m 1
 235 165 l 1
 265 135 l 1
 265 115 l 1
 93 115 l 1
 93 135 l 1
 149 135 l 1
 149 448 l 1
 106 448 l 1
 106 468 l 1
 181 468 l 1
 212 502 l 1
 252 468 l 1
 252 448 l 1
 209 448 l 1
 209 135 l 1
 213 135 l 1
541 385 m 1
 591 435 l 1
 651 385 l 1
 651 365 l 1
 307 365 l 1
 307 385 l 1
 449 385 l 1
 449 698 l 1
 333 698 l 1
 333 718 l 1
 515 718 l 1
 565 768 l 1
 625 718 l 1
 625 698 l 1
 509 698 l 1
 509 385 l 1
 541 385 l 1
630 30 m 1
 623 16 l 1
 603 -16 l 1
 581 -44 l 1
 556 -70 l 1
 528 -94 l 1
 497 -114 l 1
 463 -132 l 1
 427 -147 l 1
 387 -158 l 1
 346 -166 l 1
 343 -158 l 1
 368 -146 392 -135 416 -122 c 2
 447 -104 l 1
 475 -84 l 1
 501 -62 l 1
 523 -38 l 1
 542 -14 l 1
 558 12 l 1
 571 40 l 1
 575 50 l 1
 396 50 l 1
 368 30 l 1
 309 62 l 1
 559 240 l 1
 315 240 l 1
 315 260 l 1
 595 260 l 1
 625 285 l 1
 680 240 l 1
 655 225 l 1
 619 210 l 1
 424 70 l 1
 581 70 l 1
 611 95 l 1
 666 50 l 1
 641 35 l 1
 630 30 l 1
868 282 m 1
 864 268 859 254 855 240 c 2
 843 212 l 1
 830 186 l 1
 815 161 l 1
 798 140 l 1
 779 121 l 1
 759 105 l 1
 737 92 l 1
 714 84 l 1
 709 92 l 1
 726 108 l 1
 741 125 l 1
 755 143 l 1
 779 182 779 182 797 230 c 1
 804 256 l 1
 811 285 l 1
 813 300 l 1
 748 300 l 1
 737 285 l 1
 671 294 l 1
 808 490 l 1
 697 490 l 1
 697 510 l 1
 822 510 l 1
 852 535 l 1
 907 490 l 1
 882 475 l 1
 863 467 l 1
 762 320 l 1
 815 320 l 1
 845 345 l 1
 900 300 l 1
 875 285 l 1
 868 282 l 1
EndSplineSet
Validated: 1
EndChar

StartChar: glyph211
Encoding: 983283 983283 211
Width: 1000
VWidth: 0
Flags: W
HStem: -135 20<171 394> 365 20<146 460 520 724> 698 20<198 460 520 672>
VStem: 111 60<-115 201> 394 50<-115 202> 465 50<-188 277 385 698>
LayerCount: 2
Fore
SplineSet
724 385 m 1
 774 435 l 1
 834 385 l 1
 834 365 l 1
 146 365 l 1
 146 385 l 1
 460 385 l 1
 460 698 l 1
 198 698 l 1
 198 718 l 1
 672 718 l 1
 722 768 l 1
 782 718 l 1
 782 698 l 1
 520 698 l 1
 520 385 l 1
 724 385 l 1
444 202 m 1
 444 -135 l 1
 394 -160 l 1
 394 -135 l 1
 171 -135 l 1
 111 -165 l 1
 111 230 l 1
 171 220 l 1
 186 210 l 1
 171 201 l 1
 171 -115 l 1
 394 -115 l 1
 394 230 l 1
 444 220 l 1
 456 210 l 1
 444 202 l 1
515 277 m 1
 515 -188 l 1
 465 -212 l 1
 465 305 l 1
 515 295 l 1
 528 285 l 1
 515 277 l 1
834 -172 m 1
 804 -147 l 1
 778 -118 l 1
 755 -85 l 1
 736 -48 l 1
 722 -8 l 1
 711 36 l 1
 707 62 l 1
 696 24 l 1
 680 -20 l 1
 659 -60 l 1
 635 -95 l 1
 608 -124 l 1
 576 -147 l 1
 542 -164 l 1
 538 -156 l 1
 564 -132 l 1
 588 -106 l 1
 608 -76 l 1
 626 -42 l 1
 640 -5 l 1
 652 36 l 1
 660 82 l 1
 666 133 l 1
 670 188 l 1
 670 260 l 1
 730 248 l 1
 745 238 l 1
 729 228 l 1
 726 185 l 1
 724 165 l 1
 729 137 l 1
 739 90 l 1
 752 46 l 1
 766 8 l 1
 782 -26 l 1
 795 -44 808 -62 822 -80 c 1
 845 -100 l 2
 860 -110 874 -120 889 -130 c 1
 834 -172 l 1
EndSplineSet
Validated: 1
EndChar

StartChar: glyph212
Encoding: 983284 983284 212
Width: 1000
VWidth: 0
Flags: W
HStem: 115 20<126 216 276 295> 332 20<483 762> 448 20<144 216>
VStem: 216 60<135 448> 426 60<-89 216>
LayerCount: 2
Fore
SplineSet
295 135 m 1
 326 170 l 1
 366 135 l 1
 366 115 l 1
 126 115 l 1
 126 135 l 1
 216 135 l 1
 216 448 l 1
 144 448 l 1
 144 468 l 1
 257 468 l 1
 298 512 l 1
 348 468 l 1
 348 448 l 1
 276 448 l 1
 276 135 l 1
 295 135 l 1
762 352 m 1
 812 402 l 1
 872 352 l 1
 872 332 l 1
 471 332 l 1
 464 320 l 1
 397 322 l 1
 656 780 l 1
 703 741 l 1
 712 725 l 1
 692 722 l 1
 483 352 l 1
 762 352 l 1
874 109 m 1
 744 18 681 -11 474 -169 c 1
 473 -168 l 1
 446 -195 l 1
 396 -145 l 1
 426 -115 l 1
 426 245 l 1
 486 235 l 1
 501 225 l 1
 486 216 l 1
 486 -89 l 1
 520 -66 l 2
 590 -23 638 4 691 32 c 2
 734 56 l 2
 763 71 793 85 824 98 c 2
 870 116 l 1
 874 109 l 1
EndSplineSet
Validated: 1
EndChar

StartChar: glyph213
Encoding: 983285 983285 213
Width: 1000
VWidth: 0
Flags: W
HStem: -185 20<430 752> 115 20<126 216 276 295> 332 20<483 762> 448 20<144 216>
VStem: 216 60<135 448> 426 60<-48 222>
LayerCount: 2
Fore
SplineSet
295 135 m 1
 326 170 l 1
 366 135 l 1
 366 115 l 1
 126 115 l 1
 126 135 l 1
 216 135 l 1
 216 448 l 1
 144 448 l 1
 144 468 l 1
 257 468 l 1
 298 512 l 1
 348 468 l 1
 348 448 l 1
 276 448 l 1
 276 135 l 1
 295 135 l 1
762 352 m 1
 812 402 l 1
 872 352 l 1
 872 332 l 1
 471 332 l 1
 464 320 l 1
 397 322 l 1
 656 780 l 1
 703 741 l 1
 712 725 l 1
 692 722 l 1
 483 352 l 1
 762 352 l 1
752 -165 m 1
 802 -115 l 1
 862 -165 l 1
 862 -185 l 1
 430 -185 l 1
 430 -165 l 1
 752 -165 l 1
472 -125 m 1
 446 -150 l 1
 396 -100 l 1
 426 -70 l 1
 426 251 l 1
 486 241 l 1
 501 231 l 1
 486 222 l 1
 486 -48 l 1
 512 -32 679 61 780 101 c 2
 824 119 l 1
 870 136 l 1
 874 128 l 1
 846 110 712 29 710 28 c 2
 669 4 l 2
 643 -13 616 -30 589 -47 c 0
 550 -73 510 -99 472 -126 c 1
 472 -125 l 1
EndSplineSet
Validated: 1
EndChar

StartChar: glyph214
Encoding: 983286 983286 214
Width: 1000
VWidth: 0
Flags: W
HStem: 115 20<98 188 248 266> 332 20<454 734> 448 20<116 188>
VStem: 188 60<135 448> 376 60<-76 216>
LayerCount: 2
Fore
SplineSet
266 135 m 1
 298 170 l 1
 338 135 l 1
 338 115 l 1
 98 115 l 1
 98 135 l 1
 188 135 l 1
 188 448 l 1
 116 448 l 1
 116 468 l 1
 228 468 l 1
 270 512 l 1
 320 468 l 1
 320 448 l 1
 248 448 l 1
 248 135 l 1
 266 135 l 1
734 352 m 1
 784 402 l 1
 844 352 l 1
 844 332 l 1
 442 332 l 1
 436 320 l 1
 368 322 l 1
 628 780 l 1
 674 741 l 1
 684 725 l 1
 664 722 l 1
 454 352 l 1
 734 352 l 1
834 262 m 1
 836 270 l 1
 892 244 l 1
 902 230 l 1
 884 226 l 1
 875 195 858 148 834 83 c 2
 820 42 l 1
 804 2 l 1
 790 -38 l 2
 779 -65 767 -92 756 -118 c 2
 740 -158 l 1
 730 -156 l 1
 748 -70 l 1
 768 14 l 2
 775 42 783 69 790 97 c 0
 830 251 830 251 834 259 c 1
 834 262 l 1
426 -165 m 1
 396 -195 l 1
 346 -145 l 1
 376 -115 l 1
 376 245 l 1
 436 235 l 1
 452 225 l 1
 436 216 l 1
 436 -76 l 1
 509 -9 582 46 662 97 c 1
 696 116 l 1
 700 109 l 2
 699 108 616 25 590 2 c 2
 508 -80 l 2
 491 -99 472 -118 454 -136 c 2
 428 -166 l 1
 426 -165 l 1
EndSplineSet
Validated: 1
EndChar

StartChar: glyph215
Encoding: 983287 983287 215
Width: 1000
VWidth: 0
Flags: W
HStem: 115 20<105 161 221 225> 332 20<372 555> 358 20<708 761 819 821> 448 20<118 161>
VStem: 161 60<135 448> 315 60<-80 216> 761 60<329 358 378 486>
LayerCount: 2
Fore
SplineSet
225 135 m 1
 247 165 l 1
 277 135 l 1
 277 115 l 1
 105 115 l 1
 105 135 l 1
 161 135 l 1
 161 448 l 1
 118 448 l 1
 118 468 l 1
 193 468 l 1
 224 502 l 1
 264 468 l 1
 264 448 l 1
 221 448 l 1
 221 135 l 1
 225 135 l 1
555 352 m 1
 605 402 l 1
 665 352 l 1
 665 332 l 1
 363 332 l 1
 359 322 l 1
 291 318 l 1
 491 777 l 1
 543 744 l 1
 552 728 l 1
 535 725 l 1
 372 352 l 1
 555 352 l 1
365 -165 m 1
 335 -195 l 1
 285 -145 l 1
 315 -115 l 1
 315 245 l 1
 375 235 l 1
 390 225 l 1
 375 216 l 1
 375 -80 l 1
 395 -63 491 18 626 97 c 1
 662 116 l 1
 667 109 l 1
 663 106 546 3 545 2 c 0
 497 -39 367 -164 365 -166 c 1
 365 -165 l 1
842 88 m 1
 830 107 l 1
 820 128 l 1
 811 152 l 1
 804 176 l 1
 798 202 l 1
 795 224 l 1
 790 207 784 191 778 174 c 2
 763 145 l 1
 747 120 l 1
 729 100 l 1
 708 84 l 1
 701 91 l 1
 713 112 l 1
 724 134 l 1
 733 158 l 1
 742 186 l 1
 749 218 l 1
 754 252 l 1
 758 291 l 1
 761 333 l 1
 761 358 l 1
 708 358 l 1
 708 378 l 1
 761 378 l 1
 761 515 l 1
 821 505 l 1
 836 495 l 1
 821 486 l 1
 821 428 l 1
 819 378 l 1
 821 378 l 1
 844 408 l 1
 874 378 l 1
 874 358 l 1
 817 358 l 1
 814 329 l 1
 812 317 l 1
 816 300 821 284 825 268 c 2
 834 240 l 2
 840 224 846 209 852 193 c 2
 862 173 l 1
 872 156 l 1
 883 140 l 1
 893 128 l 1
 895 126 l 1
 842 88 l 1
EndSplineSet
Validated: 1
EndChar

StartChar: glyph216
Encoding: 983288 983288 216
Width: 1000
VWidth: 0
Flags: W
HStem: -166 8<462.25 472.792> 50 20<562 771> 115 20<118 208 268 287> 240 20<424 747> 332 20<475 754> 448 20<136 208> 608 20<422 551 631 744>
VStem: 208 60<135 448>
LayerCount: 2
Fore
SplineSet
287 135 m 1
 318 170 l 1
 358 135 l 1
 358 115 l 1
 118 115 l 1
 118 135 l 1
 208 135 l 1
 208 448 l 1
 136 448 l 1
 136 468 l 1
 249 468 l 1
 290 512 l 1
 340 468 l 1
 340 448 l 1
 268 448 l 1
 268 135 l 1
 287 135 l 1
754 352 m 1
 804 402 l 1
 864 352 l 1
 864 332 l 1
 463 332 l 1
 456 320 l 1
 389 322 l 1
 551 608 l 1
 422 608 l 1
 422 628 l 1
 562 628 l 1
 648 780 l 1
 695 741 l 1
 704 725 l 1
 684 722 l 1
 631 628 l 1
 744 628 l 1
 794 678 l 1
 854 628 l 1
 854 608 l 1
 619 608 l 1
 475 352 l 1
 754 352 l 1
780 70 m 2
 781 71 781 72 782 73 c 2
 783 73 l 1
 810 95 l 1
 864 50 l 1
 840 35 l 1
 826 29 l 1
 816 13 l 1
 792 -18 l 1
 763 -47 l 1
 731 -73 l 1
 696 -96 l 1
 656 -116 l 1
 614 -133 l 1
 568 -148 l 1
 518 -159 l 1
 464 -166 l 1
 462 -158 l 1
 495 -147 527 -135 558 -122 c 2
 600 -103 l 1
 638 -82 l 1
 672 -60 l 1
 702 -36 l 1
 728 -11 l 1
 750 16 l 1
 768 44 l 1
 771 50 l 1
 526 50 l 1
 488 29 l 1
 432 68 l 1
 747 240 l 1
 424 240 l 1
 424 260 l 1
 798 260 l 1
 828 285 l 1
 876 245 l 1
 880 245 l 1
 878 244 l 1
 882 240 l 1
 858 225 l 1
 799 201 l 1
 562 70 l 1
 780 70 l 2
EndSplineSet
Validated: 1
EndChar

StartChar: glyph217
Encoding: 983289 983289 217
Width: 1000
VWidth: 0
Flags: W
HStem: -166 8<364.25 372.135> 50 20<444 596> 82 20<754 816> 115 20<114 170 230 234> 240 20<336 580> 332 20<380 564> 448 20<126 170> 608 20<334 426 500 556>
VStem: 170 60<135 448>
LayerCount: 2
Fore
SplineSet
234 135 m 1
 256 165 l 1
 286 135 l 1
 286 115 l 1
 114 115 l 1
 114 135 l 1
 170 135 l 1
 170 448 l 1
 126 448 l 1
 126 468 l 1
 202 468 l 1
 232 502 l 1
 272 468 l 1
 272 448 l 1
 230 448 l 1
 230 135 l 1
 234 135 l 1
564 352 m 1
 614 402 l 1
 674 352 l 1
 674 332 l 1
 372 332 l 1
 368 322 l 1
 300 318 l 1
 426 608 l 1
 334 608 l 1
 334 628 l 1
 434 628 l 1
 500 777 l 1
 552 744 l 1
 560 728 l 1
 544 725 l 1
 500 628 l 1
 556 628 l 1
 606 678 l 1
 666 628 l 1
 666 608 l 1
 492 608 l 1
 380 352 l 1
 564 352 l 1
650 30 m 1
 644 16 l 1
 624 -16 l 1
 602 -44 l 1
 576 -70 l 1
 548 -94 l 1
 518 -114 l 1
 484 -132 l 1
 448 -147 l 1
 408 -158 l 1
 366 -166 l 1
 364 -158 l 1
 389 -146 412 -135 436 -122 c 2
 468 -104 l 1
 496 -84 l 1
 522 -62 l 1
 544 -38 l 1
 562 -14 l 1
 578 12 l 1
 592 40 l 1
 596 50 l 1
 416 50 l 1
 388 30 l 1
 330 62 l 1
 580 240 l 1
 336 240 l 1
 336 260 l 1
 616 260 l 1
 646 285 l 1
 700 240 l 1
 676 225 l 1
 640 210 l 1
 444 70 l 1
 602 70 l 1
 632 95 l 1
 686 50 l 1
 662 35 l 1
 650 30 l 1
816 102 m 1
 846 138 l 1
 886 102 l 1
 886 82 l 1
 750 82 l 1
 748 76 l 1
 684 60 l 1
 784 522 l 1
 840 499 l 1
 854 486 l 1
 836 481 l 1
 754 102 l 1
 816 102 l 1
EndSplineSet
Validated: 1
EndChar

StartChar: glyph218
Encoding: 983290 983290 218
Width: 1000
VWidth: 0
Flags: W
HStem: 238 20<172 758> 365 20<148 462 522 726> 698 20<200 462 522 674>
VStem: 462 60<385 698>
LayerCount: 2
Fore
SplineSet
726 385 m 1
 776 435 l 1
 836 385 l 1
 836 365 l 1
 148 365 l 1
 148 385 l 1
 462 385 l 1
 462 698 l 1
 200 698 l 1
 200 718 l 1
 674 718 l 1
 724 768 l 1
 784 718 l 1
 784 698 l 1
 522 698 l 1
 522 385 l 1
 726 385 l 1
766 258 m 2
 768 259 769 260 770 262 c 2
 772 261 l 1
 796 282 l 1
 852 238 l 1
 826 222 l 1
 812 217 l 1
 780 163 768 141 684 41 c 1
 644 -1 l 1
 602 -40 l 1
 558 -77 l 1
 512 -111 l 1
 462 -142 l 1
 410 -168 l 1
 406 -161 l 1
 480 -104 498 -88 576 -13 c 1
 614 28 l 2
 638 56 660 86 682 116 c 2
 714 162 l 2
 729 187 744 212 758 238 c 1
 172 238 l 1
 172 258 l 1
 766 258 l 2
EndSplineSet
Validated: 1
EndChar

StartChar: glyph219
Encoding: 983291 983291 219
Width: 1000
VWidth: 0
Flags: W
HStem: -185 20<160 714> 243 20<172 756> 365 20<148 462 522 726> 698 20<200 462 522 674>
VStem: 462 60<385 698>
LayerCount: 2
Fore
SplineSet
726 385 m 1
 776 435 l 1
 836 385 l 1
 836 365 l 1
 148 365 l 1
 148 385 l 1
 462 385 l 1
 462 698 l 1
 200 698 l 1
 200 718 l 1
 674 718 l 1
 724 768 l 1
 784 718 l 1
 784 698 l 1
 522 698 l 1
 522 385 l 1
 726 385 l 1
714 -165 m 1
 764 -115 l 1
 824 -165 l 1
 824 -185 l 1
 160 -185 l 1
 160 -165 l 1
 714 -165 l 1
766 263 m 2
 768 264 769 266 770 268 c 2
 772 268 l 1
 796 288 l 1
 852 243 l 1
 826 228 l 1
 812 222 l 1
 795 196 776 171 758 146 c 2
 722 104 l 1
 684 64 l 1
 644 26 l 2
 616 3 588 -19 558 -41 c 2
 510 -72 l 1
 462 -98 l 1
 410 -122 l 1
 406 -114 l 1
 437 -93 467 -72 496 -49 c 2
 538 -15 l 1
 576 20 l 2
 601 45 626 70 650 96 c 2
 684 136 l 2
 704 164 724 193 744 222 c 2
 756 243 l 1
 172 243 l 1
 172 263 l 1
 766 263 l 2
EndSplineSet
Validated: 1
EndChar

StartChar: glyph220
Encoding: 983292 983292 220
Width: 1000
VWidth: 0
Flags: W
HStem: 365 20<291 537 597 732> 698 20<333 537 597 691>
VStem: 153 60<-35 626> 303 60<-95 216> 537 60<385 698>
LayerCount: 2
Fore
SplineSet
213 626 m 1
 213 -35 l 1
 153 -65 l 1
 153 655 l 1
 213 645 l 1
 228 635 l 1
 213 626 l 1
732 385 m 1
 782 435 l 1
 842 385 l 1
 842 365 l 1
 291 365 l 1
 291 385 l 1
 537 385 l 1
 537 698 l 1
 333 698 l 1
 333 718 l 1
 691 718 l 1
 741 768 l 1
 801 718 l 1
 801 698 l 1
 597 698 l 1
 597 385 l 1
 732 385 l 1
348 -170 m 1
 323 -195 l 1
 273 -145 l 1
 303 -115 l 1
 303 245 l 1
 363 235 l 1
 378 225 l 1
 363 216 l 1
 363 -95 l 1
 452 -45 604 24 626 34 c 0
 729 77 731 78 843 117 c 1
 847 108 l 1
 745 56 621 -9 349 -170 c 1
 348 -170 l 1
EndSplineSet
Validated: 1
EndChar

StartChar: glyph221
Encoding: 983293 983293 221
Width: 1000
VWidth: 0
Flags: W
HStem: 365 20<261 507 567 702> 698 20<303 507 567 661>
VStem: 123 60<-35 626> 247 60<-85 216> 507 60<385 698>
LayerCount: 2
Fore
SplineSet
183 626 m 1
 183 -35 l 1
 123 -65 l 1
 123 655 l 1
 183 645 l 1
 198 635 l 1
 183 626 l 1
702 385 m 1
 752 435 l 1
 812 385 l 1
 812 365 l 1
 261 365 l 1
 261 385 l 1
 507 385 l 1
 507 698 l 1
 303 698 l 1
 303 718 l 1
 661 718 l 1
 711 768 l 1
 771 718 l 1
 771 698 l 1
 567 698 l 1
 567 385 l 1
 702 385 l 1
783 182 m 2
 793 211 803 240 813 270 c 1
 867 242 l 1
 877 228 l 1
 859 224 l 1
 849 204 842 183 829 153 c 0
 816 122 796 83 781 46 c 0
 768 15 756 -12 744 -39 c 2
 706 -119 l 1
 685 -159 l 1
 677 -156 l 1
 688 -112 l 2
 702 -70 715 -18 741 56 c 2
 783 182 l 2
295 -167 m 1
 267 -195 l 1
 217 -145 l 1
 247 -115 l 1
 247 245 l 1
 307 235 l 1
 322 225 l 1
 307 216 l 1
 307 -85 l 1
 354 -48 459 23 515 55 c 2
 553 77 l 1
 593 98 l 1
 633 116 l 1
 638 109 l 1
 614 91 591 73 569 54 c 0
 567 52 455 -31 363 -110 c 2
 329 -138 l 1
 297 -168 l 1
 295 -167 l 1
EndSplineSet
Validated: 1
EndChar

StartChar: glyph222
Encoding: 983294 983294 222
Width: 1000
VWidth: 0
Flags: W
HStem: 238 20<271 307 319 715> 365 20<402 613 673 773> 698 20<439 613 673 737>
VStem: 613 60<385 698>
LayerCount: 2
Fore
SplineSet
773 385 m 1
 823 435 l 1
 883 385 l 1
 883 365 l 1
 402 365 l 1
 402 385 l 1
 613 385 l 1
 613 698 l 1
 439 698 l 1
 439 718 l 1
 737 718 l 1
 787 768 l 1
 847 718 l 1
 847 698 l 1
 673 698 l 1
 673 385 l 1
 773 385 l 1
524 26 m 1
 549 45 570 68 593 89 c 2
 643 142 l 1
 667 174 692 205 715 238 c 1
 319 238 l 1
 353 192 l 1
 395 142 l 1
 439 96 l 1
 487 54 l 1
 524 26 l 1
826 -184 m 1
 755 -160 l 1
 687 -132 l 1
 623 -99 l 1
 564 -62 l 1
 522 -31 l 1
 499 -49 472 -62 447 -78 c 2
 382 -110 l 1
 315 -136 l 1
 244 -158 l 1
 172 -172 l 1
 169 -163 l 1
 239 -139 l 1
 305 -112 l 1
 367 -80 l 1
 428 -45 l 1
 488 -3 l 1
 459 22 l 1
 413 71 l 1
 371 124 l 1
 335 180 l 1
 307 238 l 1
 271 238 l 1
 271 258 l 1
 729 258 l 1
 734 264 l 1
 736 263 l 1
 759 282 l 1
 814 238 l 1
 789 222 l 1
 771 215 l 1
 734 166 l 1
 682 107 l 1
 627 52 l 1
 570 4 l 1
 563 -1 l 1
 591 -20 l 1
 649 -50 l 1
 711 -78 l 1
 775 -101 l 2
 812 -111 849 -121 885 -132 c 1
 826 -184 l 1
121 736 m 1
 115 746 l 1
 173 766 l 1
 190 764 l 1
 180 749 l 1
 210 685 314 435 315 432 c 2
 347 344 l 1
 339 341 l 1
 314 380 l 1
 261 471 190 598 121 736 c 1
EndSplineSet
Validated: 1
EndChar

StartChar: glyph223
Encoding: 983295 983295 223
Width: 1000
VWidth: 0
Flags: W
HStem: 238 20<456 480 490 760> 365 20<168 482 542 746> 698 20<220 482 542 694>
VStem: 482 60<385 698>
LayerCount: 2
Fore
SplineSet
746 385 m 1
 796 435 l 1
 856 385 l 1
 856 365 l 1
 168 365 l 1
 168 385 l 1
 482 385 l 1
 482 698 l 1
 220 698 l 1
 220 718 l 1
 694 718 l 1
 744 768 l 1
 804 718 l 1
 804 698 l 1
 542 698 l 1
 542 385 l 1
 746 385 l 1
104 -149 m 1
 106 -145 249 139 328 260 c 1
 336 256 l 1
 325 227 315 198 304 169 c 0
 303 166 226 -23 196 -89 c 0
 189 -105 179 -126 170 -147 c 1
 180 -163 l 1
 162 -166 l 1
 104 -149 l 1
632 31 m 1
 645 50 659 68 672 86 c 2
 706 139 l 1
 740 198 l 1
 760 238 l 1
 490 238 l 1
 516 190 l 2
 537 157 558 125 580 94 c 2
 614 51 l 1
 632 31 l 1
838 -183 m 1
 788 -158 l 1
 740 -130 l 1
 694 -96 l 1
 654 -60 l 1
 630 -36 l 1
 630 -37 l 1
 584 -76 l 1
 538 -108 l 1
 490 -136 l 1
 438 -157 l 1
 388 -172 l 1
 384 -163 l 1
 432 -140 l 1
 462 -121 491 -102 520 -82 c 1
 560 -47 l 1
 600 -8 l 1
 602 -3 l 1
 580 25 l 1
 550 74 l 1
 522 126 l 1
 498 182 l 1
 480 238 l 1
 456 238 l 1
 456 258 l 1
 768 258 l 1
 798 282 l 1
 852 238 l 1
 828 222 l 1
 814 217 l 1
 790 170 l 1
 752 110 l 1
 714 56 l 2
 698 37 682 18 666 -1 c 1
 688 -22 l 1
 728 -52 l 1
 770 -80 l 1
 800 -95 831 -109 862 -122 c 2
 896 -134 l 1
 838 -183 l 1
EndSplineSet
Validated: 1
EndChar

StartChar: glyph224
Encoding: 983296 983296 224
Width: 1000
VWidth: 0
Flags: W
HStem: -166 8<344.25 357.459> 50 20<463 730> 240 20<298 698> 332 20<353 728> 608 20<294 458 545 716>
VStem: 146 60<-35 626>
LayerCount: 2
Fore
SplineSet
206 626 m 1
 206 -35 l 1
 146 -65 l 1
 146 655 l 1
 206 645 l 1
 221 635 l 1
 206 626 l 1
728 352 m 1
 778 402 l 1
 838 352 l 1
 838 332 l 1
 339 332 l 1
 329 318 l 1
 262 327 l 1
 458 608 l 1
 294 608 l 1
 294 628 l 1
 472 628 l 1
 580 782 l 1
 623 739 l 1
 630 722 l 1
 610 720 l 1
 545 628 l 1
 716 628 l 1
 766 678 l 1
 826 628 l 1
 826 608 l 1
 531 608 l 1
 353 352 l 1
 728 352 l 1
741 70 m 2
 743 72 744 74 745 76 c 2
 747 75 l 1
 771 95 l 1
 826 50 l 1
 801 35 l 1
 785 28 l 1
 772 11 l 1
 742 -20 l 1
 708 -48 l 1
 670 -74 l 1
 626 -96 l 1
 579 -116 l 1
 528 -134 l 1
 472 -148 l 1
 411 -159 l 1
 346 -166 l 1
 344 -158 l 1
 442 -132 490 -113 564 -82 c 1
 606 -59 l 1
 644 -35 l 1
 676 -10 l 1
 704 18 l 1
 727 46 l 1
 730 50 l 1
 418 50 l 1
 371 29 l 1
 319 72 l 1
 698 240 l 1
 298 240 l 1
 298 260 l 1
 764 260 l 1
 794 285 l 1
 842 245 l 1
 854 245 l 1
 847 242 l 1
 848 240 l 1
 824 225 l 1
 764 200 l 1
 764 204 l 1
 463 70 l 1
 741 70 l 2
EndSplineSet
Validated: 1
EndChar

StartChar: glyph225
Encoding: 983297 983297 225
Width: 1000
VWidth: 0
Flags: W
HStem: -168 20<474 753> 115 20<117 207 267 286> 448 20<135 207> 738 20<473 495 506 753>
VStem: 207 60<135 448>
LayerCount: 2
Fore
SplineSet
286 135 m 1
 317 170 l 1
 357 135 l 1
 357 115 l 1
 117 115 l 1
 117 135 l 1
 207 135 l 1
 207 448 l 1
 135 448 l 1
 135 468 l 1
 248 468 l 1
 289 512 l 1
 339 468 l 1
 339 448 l 1
 267 448 l 1
 267 135 l 1
 286 135 l 1
637 533 m 1
 649 550 661 568 673 585 c 2
 705 638 l 1
 735 696 l 1
 753 738 l 1
 506 738 l 1
 523 705 541 672 559 640 c 2
 589 593 l 1
 621 550 l 1
 637 533 l 1
760 758 m 2
 763 759 788 780 790 782 c 2
 845 738 l 1
 820 722 l 1
 809 718 l 1
 791 681 771 646 751 611 c 2
 715 556 l 1
 676 508 l 1
 668 499 l 1
 687 481 708 464 728 447 c 2
 767 420 l 1
 809 397 l 2
 834 386 858 376 883 365 c 1
 827 318 l 1
 779 342 l 1
 735 371 l 1
 693 404 l 1
 655 440 l 1
 635 463 l 1
 594 424 l 1
 551 392 l 1
 505 364 l 1
 458 343 l 1
 409 328 l 1
 407 337 l 1
 450 360 l 1
 491 387 l 1
 531 418 l 1
 569 453 l 1
 605 492 l 1
 609 497 l 1
 587 526 l 1
 559 574 l 1
 533 626 l 1
 511 682 l 1
 495 738 l 1
 473 738 l 1
 473 758 l 1
 760 758 l 2
753 -148 m 1
 803 -98 l 1
 863 -148 l 1
 863 -168 l 1
 462 -168 l 1
 455 -180 l 1
 388 -178 l 1
 647 280 l 1
 694 241 l 1
 703 225 l 1
 683 222 l 1
 474 -148 l 1
 753 -148 l 1
EndSplineSet
Validated: 1
EndChar

StartChar: glyph226
Encoding: 983298 983298 226
Width: 1000
VWidth: 0
Flags: W
HStem: -135 20<238 762> 365 20<156 470 530 734> 698 20<208 470 530 682>
VStem: 178 60<-115 201> 470 60<385 698> 762 60<-115 201>
CounterMasks: 1 1c
LayerCount: 2
Fore
SplineSet
734 385 m 1
 784 435 l 1
 844 385 l 1
 844 365 l 1
 156 365 l 1
 156 385 l 1
 470 385 l 1
 470 698 l 1
 208 698 l 1
 208 718 l 1
 682 718 l 1
 732 768 l 1
 792 718 l 1
 792 698 l 1
 530 698 l 1
 530 385 l 1
 734 385 l 1
822 201 m 1
 822 -135 l 1
 762 -165 l 1
 762 -135 l 1
 238 -135 l 1
 178 -165 l 1
 178 230 l 1
 238 220 l 1
 253 210 l 1
 238 201 l 1
 238 -115 l 1
 762 -115 l 1
 762 230 l 1
 822 220 l 1
 837 210 l 1
 822 201 l 1
EndSplineSet
Validated: 1
EndChar

StartChar: glyph227
Encoding: 983299 983299 227
Width: 1000
VWidth: 0
Flags: W
HStem: -135 20<466 814> 365 20<176 490 550 754> 698 20<228 490 550 702>
VStem: 406 60<-115 201> 490 60<385 698> 814 60<-115 201>
LayerCount: 2
Fore
SplineSet
754 385 m 1
 804 435 l 1
 864 385 l 1
 864 365 l 1
 176 365 l 1
 176 385 l 1
 490 385 l 1
 490 698 l 1
 228 698 l 1
 228 718 l 1
 702 718 l 1
 752 768 l 1
 812 718 l 1
 812 698 l 1
 550 698 l 1
 550 385 l 1
 754 385 l 1
874 201 m 1
 874 -135 l 1
 814 -165 l 1
 814 -135 l 1
 466 -135 l 1
 406 -165 l 1
 406 230 l 1
 466 220 l 1
 480 210 l 1
 466 201 l 1
 466 -115 l 1
 814 -115 l 1
 814 230 l 1
 874 220 l 1
 888 210 l 1
 874 201 l 1
118 236 m 1
 112 246 l 1
 170 266 l 1
 186 264 l 1
 176 249 l 2
 177 247 239 111 277 14 c 0
 288 -12 300 -40 312 -68 c 2
 344 -156 l 1
 336 -159 l 1
 310 -120 l 2
 308 -116 202 67 118 236 c 1
EndSplineSet
Validated: 1
EndChar

StartChar: glyph228
Encoding: 983300 983300 228
Width: 1000
VWidth: 0
Flags: W
HStem: 365 20<267 513 573 708> 698 20<309 513 573 667>
VStem: 129 60<-35 626> 513 60<385 698> 813 56<-152 -134>
LayerCount: 2
Fore
SplineSet
189 626 m 1
 189 -35 l 1
 129 -65 l 1
 129 655 l 1
 189 645 l 1
 204 635 l 1
 189 626 l 1
708 385 m 1
 758 435 l 1
 818 385 l 1
 818 365 l 1
 267 365 l 1
 267 385 l 1
 513 385 l 1
 513 698 l 1
 309 698 l 1
 309 718 l 1
 667 718 l 1
 717 768 l 1
 777 718 l 1
 777 698 l 1
 573 698 l 1
 573 385 l 1
 708 385 l 1
610 -174 m 1
 575 -149 l 1
 544 -120 l 1
 517 -86 l 1
 495 -50 l 1
 477 -9 l 1
 464 35 l 1
 456 77 l 1
 451 58 445 41 439 23 c 2
 419 -22 l 1
 395 -62 l 1
 367 -96 l 1
 335 -124 l 1
 299 -148 l 1
 261 -164 l 1
 257 -156 l 1
 289 -132 l 1
 317 -104 l 1
 342 -75 l 1
 363 -42 l 1
 381 -4 l 1
 395 38 l 1
 405 84 l 1
 413 134 l 1
 417 188 l 1
 417 260 l 1
 477 248 l 1
 492 238 l 1
 476 228 l 1
 473 184 l 1
 472 174 l 1
 479 137 l 1
 490 90 l 1
 503 48 l 1
 521 10 l 1
 539 -24 l 1
 561 -53 l 1
 585 -78 l 1
 613 -98 l 1
 642 -116 l 1
 666 -129 l 1
 610 -174 l 1
693 256 m 1
 711 236 l 1
 728 210 l 1
 745 181 l 2
 756 157 768 134 777 114 c 0
 778 112 821 16 851 -78 c 2
 871 -134 l 1
 869 -157 l 1
 851 -172 l 1
 828 -169 l 1
 813 -152 l 1
 807 -131 768 5 753 54 c 2
 739 95 l 1
 727 134 l 1
 687 244 686 250 686 251 c 2
 693 256 l 1
EndSplineSet
Validated: 1
EndChar

StartChar: glyph229
Encoding: 983301 983301 229
Width: 1000
VWidth: 0
Flags: W
HStem: -168 20<361 736> 365 20<292 538 598 733> 698 20<334 538 598 692>
VStem: 154 60<-35 626> 538 60<385 698>
LayerCount: 2
Fore
SplineSet
214 626 m 1
 214 -35 l 1
 154 -65 l 1
 154 655 l 1
 214 645 l 1
 229 635 l 1
 214 626 l 1
733 385 m 1
 783 435 l 1
 843 385 l 1
 843 365 l 1
 292 365 l 1
 292 385 l 1
 538 385 l 1
 538 698 l 1
 334 698 l 1
 334 718 l 1
 692 718 l 1
 742 768 l 1
 802 718 l 1
 802 698 l 1
 598 698 l 1
 598 385 l 1
 733 385 l 1
736 -148 m 1
 786 -98 l 1
 846 -148 l 1
 846 -168 l 1
 347 -168 l 1
 337 -182 l 1
 270 -173 l 1
 588 282 l 1
 631 239 l 1
 638 222 l 1
 618 220 l 1
 361 -148 l 1
 736 -148 l 1
EndSplineSet
Validated: 1
EndChar

StartChar: glyph230
Encoding: 983302 983302 230
Width: 1000
VWidth: 0
Flags: W
HStem: 61 9<153.667 165.712> 365 20<159 473 533 737> 698 20<211 473 533 685>
VStem: 473 60<385 698> 753 60<-101 244>
LayerCount: 2
Fore
SplineSet
737 385 m 1
 787 435 l 1
 847 385 l 1
 847 365 l 1
 159 365 l 1
 159 385 l 1
 473 385 l 1
 473 698 l 1
 211 698 l 1
 211 718 l 1
 685 718 l 1
 735 768 l 1
 795 718 l 1
 795 698 l 1
 533 698 l 1
 533 385 l 1
 737 385 l 1
814 -125 m 1
 813 -129 l 1
 813 -158 l 1
 806 -158 l 1
 799 -184 l 1
 795 -182 566 -81 423 -32 c 0
 202 45 202 45 153 61 c 1
 156 70 l 1
 407 21 542 -25 689 -78 c 2
 752 -101 l 1
 753 -101 l 1
 753 272 l 1
 813 262 l 1
 828 252 l 1
 813 244 l 1
 813 -119 l 1
 814 -125 l 1
EndSplineSet
Validated: 1
EndChar

StartChar: glyph231
Encoding: 983303 983303 231
Width: 1000
VWidth: 0
Flags: W
HStem: 61 9<398.889 406.46> 365 20<180 494 554 758> 698 20<232 494 554 706>
VStem: 494 60<385 698> 810 60<-95 244>
LayerCount: 2
Fore
SplineSet
758 385 m 1
 808 435 l 1
 868 385 l 1
 868 365 l 1
 180 365 l 1
 180 385 l 1
 494 385 l 1
 494 698 l 1
 232 698 l 1
 232 718 l 1
 706 718 l 1
 756 768 l 1
 816 718 l 1
 816 698 l 1
 554 698 l 1
 554 385 l 1
 758 385 l 1
115 -149 m 1
 127 -128 266 146 340 260 c 1
 348 256 l 1
 337 227 327 198 316 169 c 0
 315 166 224 -54 208 -89 c 0
 201 -105 191 -126 182 -147 c 1
 191 -163 l 1
 174 -166 l 1
 115 -149 l 1
845 -183 m 1
 844 -182 795 -151 711 -100 c 0
 654 -68 595 -36 536 -6 c 0
 490 16 443 38 398 61 c 1
 402 70 l 1
 452 56 l 1
 500 41 l 2
 532 30 564 18 596 6 c 0
 690 -34 778 -77 780 -78 c 2
 810 -95 l 1
 810 272 l 1
 870 262 l 1
 885 252 l 1
 870 244 l 1
 870 -158 l 1
 855 -158 l 1
 845 -183 l 1
EndSplineSet
Validated: 1
EndChar

StartChar: glyph232
Encoding: 983304 983304 232
Width: 1000
VWidth: 0
Flags: W
HStem: -135 20<162 476 536 740> 198 20<214 476 536 688> 332 20<242 744>
VStem: 476 60<-115 198>
LayerCount: 2
Fore
SplineSet
744 352 m 1
 794 402 l 1
 854 352 l 1
 854 332 l 1
 226 332 l 1
 210 316 l 1
 146 332 l 1
 538 784 l 1
 578 737 l 1
 582 720 l 1
 562 719 l 1
 242 352 l 1
 744 352 l 1
740 -115 m 1
 790 -65 l 1
 850 -115 l 1
 850 -135 l 1
 162 -135 l 1
 162 -115 l 1
 476 -115 l 1
 476 198 l 1
 214 198 l 1
 214 218 l 1
 688 218 l 1
 738 268 l 1
 798 218 l 1
 798 198 l 1
 536 198 l 1
 536 -115 l 1
 740 -115 l 1
EndSplineSet
Validated: 1
EndChar

StartChar: glyph233
Encoding: 983305 983305 233
Width: 1000
VWidth: 0
Flags: W
HStem: -135 20<363 771>
VStem: 153 60<-35 626> 303 60<-115 201 405 716> 771 60<-115 201>
LayerCount: 2
Fore
SplineSet
213 626 m 1
 213 -35 l 1
 153 -65 l 1
 153 655 l 1
 213 645 l 1
 228 635 l 1
 213 626 l 1
348 330 m 1
 323 305 l 1
 273 355 l 1
 303 385 l 1
 303 745 l 1
 363 735 l 1
 378 725 l 1
 363 716 l 1
 363 405 l 1
 452 455 604 524 626 534 c 0
 729 577 731 578 843 617 c 1
 847 608 l 1
 745 556 621 491 349 330 c 1
 348 330 l 1
831 201 m 1
 831 -135 l 1
 771 -165 l 1
 771 -135 l 1
 363 -135 l 1
 303 -165 l 1
 303 230 l 1
 363 220 l 1
 378 210 l 1
 363 201 l 1
 363 -115 l 1
 771 -115 l 1
 771 230 l 1
 831 220 l 1
 845 210 l 1
 831 201 l 1
EndSplineSet
Validated: 1
EndChar

StartChar: glyph234
Encoding: 983306 983306 234
Width: 1000
VWidth: 0
Flags: W
HStem: 61 9<398.889 406.46> 365 20<180 494 554 758> 698 20<232 494 554 706>
VStem: 494 60<385 698> 810 60<-95 244>
LayerCount: 2
Fore
SplineSet
758 385 m 1
 808 435 l 1
 868 385 l 1
 868 365 l 1
 180 365 l 1
 180 385 l 1
 494 385 l 1
 494 698 l 1
 232 698 l 1
 232 718 l 1
 706 718 l 1
 756 768 l 1
 816 718 l 1
 816 698 l 1
 554 698 l 1
 554 385 l 1
 758 385 l 1
844 -183 m 1
 837 -179 778 -137 624 -52 c 2
 536 -6 l 2
 490 16 443 38 398 61 c 1
 402 70 l 1
 452 56 l 1
 500 41 l 2
 532 30 564 18 596 6 c 0
 670 -25 778 -77 780 -78 c 2
 810 -95 l 1
 810 272 l 1
 870 262 l 1
 884 252 l 1
 870 244 l 1
 870 -158 l 1
 854 -158 l 1
 844 -183 l 1
122 236 m 1
 116 246 l 1
 174 266 l 1
 190 264 l 1
 180 249 l 2
 181 247 243 111 281 14 c 0
 292 -12 304 -40 316 -68 c 2
 348 -156 l 1
 340 -159 l 1
 314 -120 l 2
 312 -116 206 67 122 236 c 1
EndSplineSet
Validated: 1
EndChar

StartChar: glyph235
Encoding: 983307 983307 235
Width: 1000
VWidth: 0
Flags: W
HStem: -185 20<171 725> 84 9<153.667 176.8> 365 20<159 473 533 737> 698 20<211 473 533 685>
VStem: 473 60<385 698> 753 60<-58 247>
LayerCount: 2
Fore
SplineSet
737 385 m 1
 787 435 l 1
 847 385 l 1
 847 365 l 1
 159 365 l 1
 159 385 l 1
 473 385 l 1
 473 698 l 1
 211 698 l 1
 211 718 l 1
 685 718 l 1
 735 768 l 1
 795 718 l 1
 795 698 l 1
 533 698 l 1
 533 385 l 1
 737 385 l 1
753 -58 m 1
 753 276 l 1
 813 266 l 1
 828 256 l 1
 813 247 l 1
 813 -112 l 1
 806 -112 l 1
 801 -137 l 1
 835 -165 l 1
 835 -185 l 1
 171 -185 l 1
 171 -165 l 1
 725 -165 l 1
 765 -125 l 1
 734 -112 702 -100 670 -88 c 2
 609 -64 l 1
 384 13 384 13 287 42 c 2
 221 64 l 1
 153 84 l 1
 156 93 l 1
 225 82 l 2
 271 73 316 63 362 54 c 2
 429 38 l 2
 473 26 516 14 560 2 c 2
 625 -16 l 2
 668 -29 710 -43 751 -58 c 1
 753 -58 l 1
EndSplineSet
Validated: 1
EndChar

